<?xml version="1.0" encoding="UTF-8" standalone="no"?>
<svg
   width="10.923035in"
   height="19.430317in"
   viewBox="0 0 3276.9066 5829.0877"
   version="1.1"
   id="svg111"
   sodipodi:docname="hanging-bg-bulb-on.svg"
   inkscape:export-filename="C:\xampp\htdocs\part4\index\assets\img\new-bulb-on.png"
   inkscape:export-xdpi="96"
   inkscape:export-ydpi="96"
   inkscape:version="1.1.1 (3bf5ae0d25, 2021-09-20)"
   xmlns:inkscape="http://www.inkscape.org/namespaces/inkscape"
   xmlns:sodipodi="http://sodipodi.sourceforge.net/DTD/sodipodi-0.dtd"
   xmlns="http://www.w3.org/2000/svg"
   xmlns:svg="http://www.w3.org/2000/svg">
  <path
     style="color:#000000;fill:#000000;stroke-width:11.8019;-inkscape-stroke:none"
     d="m 1601.5063,0 v 2152.88 h 98.6892 V 0 Z"
     id="path4316" />
  <defs
     id="defs115" />
  <sodipodi:namedview
     id="namedview113"
     pagecolor="#505050"
     bordercolor="#ffffff"
     borderopacity="1"
     inkscape:pageshadow="0"
     inkscape:pageopacity="0"
     inkscape:pagecheckerboard="1"
     inkscape:document-units="in"
     showgrid="false"
     inkscape:zoom="0.15993646"
     inkscape:cx="2860.5111"
     inkscape:cy="359.51778"
     inkscape:window-width="1680"
     inkscape:window-height="987"
     inkscape:window-x="-8"
     inkscape:window-y="-8"
     inkscape:window-maximized="1"
     inkscape:current-layer="svg111"
     inkscape:lockguides="true" />
  <path
     style="fill:#000000;stroke:#000000;stroke-width:6.25868"
     d="m 1517.3268,2153.8025 c -95.2541,15.0975 -160.9427,44.313 -202.1162,89.8875 -21.3827,23.6655 -28.1644,40.2975 -48.1886,118.155 -4.9209,19.1355 -19.5142,40.62 -51.016,75.105 -24.2679,26.565 -49.4538,58.695 -55.9686,71.4 -26.2669,51.213 -43.2007,225.9825 -43.2414,446.283 -0.023,132.1095 -0.6964,139.695 -16.6081,187.7625 -9.1203,27.5475 -45.779,106.4175 -81.4637,175.2645 -173.98231,335.658 -247.76646,500.7525 -283.94713,635.3325 -16.79793,62.4825 -20.0988,88.293 -25.20101,197.073 -9.81877,209.34 10.00406,327.63 80.36921,479.592 39.08037,84.393 92.43934,164.6505 174.75063,262.833 l 77.0191,91.875 98.3379,57.9795 c 209.3633,123.435 300.2174,149.9505 516.2984,150.6825 92.8771,0.3 126.3734,-2.082 177.6907,-12.702 127.8637,-26.463 224.1343,-66.6555 330.3919,-137.9475 37.2234,-24.975 75.341,-48.6705 84.7058,-52.6575 25.4904,-10.8525 134.2644,-135.9105 183.2271,-210.6555 102.8024,-156.9375 152.4489,-299.6175 167.0684,-480.135 12.8175,-158.277 -14.7938,-337.932 -76.9824,-500.892 -11.9319,-31.2675 -84.7362,-181.7175 -161.7876,-334.3305 -77.0518,-152.6145 -148.199,-301.422 -158.1055,-330.6795 l -18.0115,-53.1975 -1.1601,-212.7975 c -1.6208,-297.8175 -10.1546,-339.753 -85.4532,-419.973 -47.1665,-50.247 -52.3943,-59.01 -61.8795,-103.71 -21.9551,-103.47 -97.0782,-162.4845 -242.3334,-190.377 -57.4761,-11.0355 -204.3324,-10.5975 -276.3966,0.822 z m 325.4518,90.123 c 77.9115,26.7225 100.1392,55.935 100.1392,131.5995 v 44.013 h -291.9233 -291.9238 l 3.3646,-49.11 c 5.1633,-75.33 24.0608,-101.28 89.3012,-122.6175 51.6973,-16.908 106.6298,-21.573 231.4442,-19.6605 103.6578,1.59 124.1347,3.615 159.5964,15.7755 z m 171.6123,240.2925 c 51.124,23.4075 72.4768,62.7075 72.4768,133.4025 v 39.747 h -435.8869 -435.8867 l 3.7361,-44.565 c 6.294,-75.075 38.0271,-120.3825 95.4143,-136.227 11.3157,-3.1275 101.7723,-4.398 201.0144,-2.823 99.2424,1.5705 217.054,0.105 261.8036,-3.2895 121.034,-9.138 196.9257,-4.74 237.3284,13.7595 z m -345.291,221.712 417.7678,3.183 v 71.1375 71.1375 h -435.7082 -435.7082 l 3.9755,-42.2475 c 10.9708,-116.5875 10.7208,-115.305 21.6154,-110.718 5.6595,2.3805 198.2856,5.76 428.0577,7.5105 z m 417.7678,251.163 c 0,45.492 -2.1832,58.3275 -11.9844,70.407 -13.9236,17.1675 41.3484,14.808 -499.6637,21.345 l -358.31,4.3305 v -75.8625 -75.858 h 434.9789 434.9792 z m 1.1391,145.887 c 10.9986,7.2105 25.0182,31.3875 43.5297,75.075 15.018,35.4375 84.2673,178.968 153.8876,318.9525 69.6198,139.983 134.8301,275.28 144.9107,300.6555 138.5854,348.87 111.5977,696.882 -74.252,957.495 -45.8687,64.3245 -147.1017,164.6745 -212.8875,211.035 -83.6063,58.917 -186.6123,103.875 -297.2879,129.747 -72.6981,16.995 -315.0649,17.0325 -388.039,0.105 -96.4843,-22.44 -237.8309,-86.07 -311.2445,-140.115 -56.1244,-41.3175 -145.1315,-129.4395 -187.43531,-185.5695 -120.54848,-159.9525 -185.88657,-401.3655 -168.05645,-620.94 15.98277,-196.8255 47.08722,-284.1375 235.12296,-660 67.9133,-135.75 130.2129,-264.6705 138.443,-286.485 32.33,-85.698 47.6647,-105.015 86.6336,-109.1355 13.769,-1.4595 204.0035,-2.37 422.7431,-2.025 363.0529,0.5625 399.1221,1.545 413.932,11.253 z"
     id="path1013" />
  <path
     style="fill:#000000;stroke:#000000;stroke-width:6.25868"
     d="m 1515.0483,3224.6525 c -2.1902,15.9705 -3.9801,41.2125 -3.9801,56.088 0,47.427 -24.5836,221.025 -47.3276,334.2075 -14.6717,73.0095 -37.376,155.955 -68.0986,248.7825 -31.8867,96.345 -43.5407,139.257 -37.8186,139.257 16.9158,0 28.8045,-8.2995 38.3601,-26.7795 5.4041,-10.4505 22.5779,-32.6325 38.1637,-49.293 50.9244,-54.447 104.7075,-54.1995 159.6377,0.7305 16.3567,16.3575 29.7396,35.43 29.7396,42.3825 0,34.8795 41.3503,31.2495 61.3122,-5.385 30.01,-55.068 60.0572,-74.3175 116.0153,-74.3175 42.287,0 58.295,11.7 95.5545,69.8295 18.1188,28.2675 31.4955,42.828 39.342,42.828 25.4235,0 20.3628,-36.168 -14.8869,-106.398 -61.117,-121.7625 -113.338,-378.147 -125.8866,-618.045 l -4.338,-82.9275 h -19.4044 -19.4048 l 3.903,89.19 c 6.9026,157.743 33.1562,321.4005 77.5325,483.315 12.0079,43.815 21.8326,80.745 21.8326,82.068 0,1.3275 -16.4776,0.687 -36.6172,-1.4175 -41.8008,-4.3725 -70.6221,3.21 -114.2172,30.0345 -37.2238,22.9005 -70.3602,23.655 -99.3634,2.2575 -35.8059,-26.415 -70.9779,-36.657 -112.8462,-32.862 -29.0189,2.6295 -37.512,1.485 -37.512,-5.058 0,-4.65 15.3675,-78.315 34.1497,-163.695 38.3273,-174.2295 56.9517,-294.027 63.297,-407.1525 l 4.3007,-76.6695 h -18.7296 c -17.537,0 -18.9828,1.8495 -22.7094,29.04 z"
     id="path1997"
     inkscape:export-filename="C:\xampp\htdocs\part4\index\assets\img\path1997.png"
     inkscape:export-xdpi="96"
     inkscape:export-ydpi="96" />
  <g
     id="g1953"
     transform="matrix(1.5,0,0,1.5,-1336.3574,2031.8526)">
    <path
       id="path1126-1"
       style="fill:#000000;stroke:#000000;stroke-width:4.00288"
       d="m 1288.9465,1047.6365 c -8.3298,-0.3599 -20.0688,-5.5655 -41.1492,-16.644 -56.4534,-29.6671 -204.7238,-117.26554 -216.3289,-127.79504 -13.1758,-11.9541 -14.0327,-23.8671 -2.5471,-35.352 6.5261,-6.5275 11.6145,-7.9587 22.2209,-6.2362 15.533,2.5205 228.9377,122.5893 246.1046,138.46634 15.4669,14.3047 18.3938,29.3873 7.7731,40.0073 -5.1885,5.1885 -9.5948,7.8313 -16.0734,7.5536 z" />
    <path
       style="fill:#000000;stroke:#000000;stroke-width:4.00288"
       d="m 1037.1959,1564.8209 c -106.25929,19.6127 -126.86699,24.5349 -135.09749,32.2668 -19.6967,18.5039 -6.2785,37.4007 26.0344,36.6646 27.7978,-0.6334 256.36629,-40.6895 268.76439,-47.1005 33.4439,-17.2943 21.7186,-46.3564 -18.3046,-45.3691 -8.8062,0.223 -72.4345,10.8092 -141.3967,23.5382 z"
       id="path1279-8" />
    <path
       style="fill:#000000;stroke:#000000;stroke-width:4.00288"
       d="m 1454.4134,2024.1174 c -14.8084,8.46 -58.848,55.6015 -118.2413,126.5689 -66.3899,79.3284 -76.9611,97.4724 -68.1081,116.9016 5.7339,12.5844 23.3822,12.9779 38.7813,0.8648 13.0448,-10.2611 161.7677,-188.2302 173.8269,-208.0106 10.3862,-17.0345 10.5567,-33.7503 0.4029,-39.1855 -10.3287,-5.528 -12.3571,-5.31 -26.6603,2.8608 z"
       id="path1392-5" />
    <path
       id="path1505-0"
       style="fill:#000000;stroke:#000000;stroke-width:4.00288"
       d="m 1983.1691,2529.4888 c -21.2921,0 -22.0023,-5.3439 -22.0023,-162.1377 0,-124.1455 0.8772,-145.5692 6.2361,-153.222 7.999,-11.4202 27.7821,-12.0864 33.6398,-1.1419 2.6391,4.9303 4.1278,60.5956 4.1278,153.2229 0,158.0485 -0.6907,163.2787 -22.0014,163.2787 z" />
    <path
       style="fill:#000000;stroke:#000000;stroke-width:4.00288"
       d="m 2489.0367,2022.5912 c -11.9562,5.929 -14.4694,23.4297 -5.3617,37.3302 13.0801,19.9622 161.0259,195.8541 173.7247,206.5389 15.9495,13.4213 34.0857,14.4227 40.6039,2.2435 9.3458,-17.4627 -1.8191,-35.5946 -78.9132,-128.1447 -40.9679,-49.1819 -79.9478,-95.1966 -86.6214,-102.2535 -15.5811,-16.4762 -30.7946,-21.9813 -43.4323,-15.7144 z"
       id="path1658-0" />
    <path
       style="fill:#000000;stroke:#000000;stroke-width:4.00288"
       d="m 2762.8545,1544.8529 c -4.8886,1.9679 -10.1142,8.4658 -11.6145,14.4422 -2.1967,8.7529 -0.626,12.6742 8.0758,20.1594 12.8694,11.0698 1.642,8.4242 141.9725,33.4483 125.3544,22.3533 152.8284,24.6398 164.8898,13.7248 13.442,-12.165 8.3766,-25.2969 -14.2357,-36.8998 -10.6871,-5.4842 -248.8864,-49.028 -266.4303,-48.7042 -7.5745,0.137 -17.77,1.8636 -22.6576,3.8293 z"
       id="path1771-4" />
    <path
       style="fill:#000000;stroke:#000000;stroke-width:4.00288"
       d="m 2793.757,926.50616 c -113.514,63.1809 -140.1009,81.60134 -140.1009,97.06394 0,11.2416 11.6784,24.8527 21.2416,24.7571 13.7694,-0.137 33.839,-10.6647 140.3721,-73.62774 124.0054,-73.2901 115.9676,-67.8388 125.002,-84.775 l 7.596,-14.24 -9.4503,-7.7023 c -5.1971,-4.2366 -13.3032,-7.5895 -18.0131,-7.4521 -4.7093,0.137 -61.7007,29.8269 -126.6474,65.9761 z"
       id="path1884-7" />
  </g>
</svg>
