<?xml version="1.0" encoding="UTF-8" standalone="no"?>
<svg
   width="4.2256389in"
   height="178.30956in"
   viewBox="0 0 1267.6901 53492.798"
   version="1.1"
   id="svg111"
   sodipodi:docname="hanging-bulb-off.svg"
   inkscape:export-filename="C:\xampp\htdocs\part4\index\assets\img\new-bulb-on.png"
   inkscape:export-xdpi="96"
   inkscape:export-ydpi="96"
   inkscape:version="1.1.1 (3bf5ae0d25, 2021-09-20)"
   xmlns:inkscape="http://www.inkscape.org/namespaces/inkscape"
   xmlns:sodipodi="http://sodipodi.sourceforge.net/DTD/sodipodi-0.dtd"
   xmlns="http://www.w3.org/2000/svg"
   xmlns:svg="http://www.w3.org/2000/svg">
  <path
     style="color:#000000;fill:#000000;stroke-width:45.0177;-inkscape-stroke:none"
     d="m 608.06354,0 v 51482.68 h 60.04793 V 0 Z"
     id="path4316" />
  <defs
     id="defs115" />
  <sodipodi:namedview
     id="namedview113"
     pagecolor="#505050"
     bordercolor="#ffffff"
     borderopacity="1"
     inkscape:pageshadow="0"
     inkscape:pageopacity="0"
     inkscape:pagecheckerboard="1"
     inkscape:document-units="in"
     showgrid="false"
     inkscape:zoom="0.019992057"
     inkscape:cx="10179.043"
     inkscape:cy="5127.0363"
     inkscape:window-width="1680"
     inkscape:window-height="987"
     inkscape:window-x="-8"
     inkscape:window-y="-8"
     inkscape:window-maximized="1"
     inkscape:current-layer="svg111"
     inkscape:lockguides="true" />
  <path
     style="fill:#000000;stroke:#000000;stroke-width:4.17245"
     d="m 542.14919,51464.545 c -63.50264,10.065 -107.29507,29.542 -134.74409,59.925 -14.2551,15.777 -18.77625,26.865 -32.12573,78.77 -3.28057,12.757 -13.00942,27.08 -34.01062,50.07 -16.17863,17.71 -32.96925,39.13 -37.31243,47.6 -17.5113,34.142 -28.80045,150.655 -28.8276,297.522 -0.015,88.073 -0.46425,93.13 -11.0721,125.175 -6.08018,18.365 -30.5193,70.945 -54.30908,116.843 -115.988238,223.772 -165.177668,333.835 -189.298118,423.555 -11.1986201,41.655 -13.3992001,58.862 -16.8006701,131.382 -6.54585,139.56 6.6693701,218.42 53.5794701,319.728 26.05358,56.262 61.626228,109.767 116.500418,175.222 l 51.34605,61.25 65.55863,38.653 c 139.57553,82.29 200.14492,99.967 344.19892,100.455 61.91805,0.2 84.249,-1.388 118.46048,-8.468 85.24252,-17.642 149.42295,-44.437 220.26135,-91.965 24.81555,-16.65 50.22723,-32.447 56.47043,-35.105 16.9936,-7.235 89.5096,-90.607 122.1514,-140.437 68.5349,-104.625 101.6326,-199.745 111.3789,-320.09 8.545,-105.518 -9.8625,-225.288 -51.3216,-333.928 -7.9546,-20.845 -56.4908,-121.145 -107.8584,-222.887 -51.3678,-101.743 -98.7993,-200.948 -105.40353,-220.453 l -12.00773,-35.465 -0.7734,-141.865 c -1.08052,-198.545 -6.76972,-226.502 -56.9688,-279.982 -31.44435,-33.498 -34.92952,-39.34 -41.253,-69.14 -14.6367,-68.98 -64.71877,-108.323 -161.55562,-126.918 -38.31743,-7.357 -136.2216,-7.065 -184.26443,0.548 z m 216.96795,60.082 c 51.94095,17.815 66.75953,37.29 66.75953,87.733 v 29.342 H 631.26104 436.6452 l 2.24302,-32.74 c 3.4422,-50.22 16.04055,-67.52 59.53417,-81.745 34.46483,-11.272 71.08658,-14.382 154.29615,-13.107 69.10515,1.06 82.7565,2.41 106.39763,10.517 z m 114.40815,160.195 c 34.08278,15.605 48.31793,41.805 48.31793,88.935 v 26.498 H 631.25189 340.6608 l 2.49075,-29.71 c 4.19595,-50.05 25.35135,-80.255 63.60952,-90.818 7.5438,-2.085 67.84815,-2.932 134.00955,-1.882 66.16162,1.047 144.70267,0.07 174.5358,-2.193 80.68935,-6.092 131.28382,-3.16 158.21887,9.173 z m -230.19397,147.808 278.5119,2.122 v 47.425 47.425 H 631.37099 340.89892 l 2.65035,-28.165 c 7.31385,-77.725 7.1472,-76.87 14.41028,-73.812 3.77295,1.587 132.19034,3.84 285.37177,5.007 z m 278.5119,167.442 c 0,30.328 -1.45545,38.885 -7.9896,46.938 -9.28238,11.445 27.56557,9.872 -333.1092,14.23 l -238.87327,2.887 v -50.575 -50.572 h 289.98592 289.98615 z m 0.75937,97.258 c 7.33245,4.807 16.67888,20.925 29.01983,50.05 10.01205,23.625 56.17818,119.312 102.59168,212.635 46.4132,93.322 89.8867,183.52 96.6071,200.437 92.3903,232.58 74.3985,464.588 -49.5013,638.33 -30.5791,42.883 -98.0678,109.783 -141.92493,140.69 -55.73753,39.278 -124.4082,69.25 -198.19193,86.498 -48.46537,11.33 -210.04327,11.355 -258.6927,0.07 -64.32292,-14.96 -158.55397,-57.38 -207.49634,-93.41 -37.41631,-27.545 -96.75436,-86.293 -124.9569,-123.713 -80.365648,-106.635 -123.924378,-267.577 -112.037628,-413.96 10.65518,-131.217 31.39148,-189.425 156.748648,-440 45.27555,-90.5 86.8086,-176.447 92.2953,-190.99 21.55335,-57.132 31.77653,-70.01 57.75578,-72.757 9.17932,-0.973 136.00229,-1.58 281.82877,-1.35 242.03527,0.375 266.0814,1.03 275.95462,7.502 z"
     id="path1013" />
  <path
     style="fill:#000000;stroke:#000000;stroke-width:4.17245"
     d="m 540.63022,52178.445 c -1.4601,10.647 -2.65335,27.475 -2.65335,37.392 0,31.618 -16.38908,147.35 -31.55175,222.805 -9.78113,48.673 -24.91733,103.97 -45.39907,165.855 -21.25778,64.23 -29.0271,92.838 -25.21238,92.838 11.27715,0 19.203,-5.533 25.57335,-17.853 3.60278,-6.967 15.05198,-21.755 25.44247,-32.862 33.94965,-36.298 69.80505,-36.133 106.42515,0.487 10.90448,10.905 19.8264,23.62 19.8264,28.255 0,23.253 27.56693,20.833 40.87478,-3.59 20.0067,-36.712 40.03822,-49.545 77.3436,-49.545 28.1913,0 38.86335,7.8 63.70305,46.553 12.0792,18.845 20.99692,28.552 26.22795,28.552 16.94902,0 13.57522,-24.112 -9.9246,-70.932 -40.74465,-81.175 -75.55868,-252.098 -83.9244,-412.03 l -2.892,-55.285 h -12.9363 -12.93653 l 2.60205,59.46 c 4.6017,105.162 22.10408,214.267 51.68828,322.21 8.00527,29.21 14.5551,53.83 14.5551,54.712 0,0.885 -10.9851,0.458 -24.41153,-0.945 -27.86715,-2.915 -47.0814,2.14 -76.1448,20.023 -24.81585,15.267 -46.9068,15.77 -66.24225,1.505 -23.87062,-17.61 -47.31862,-24.438 -75.23077,-21.908 -19.34595,1.753 -25.008,0.99 -25.008,-3.372 0,-3.1 10.245,-52.21 22.76647,-109.13 25.55153,-116.153 37.96778,-196.018 42.198,-271.435 l 2.8671,-51.113 h -12.48637 c -11.6913,0 -12.65528,1.233 -15.13965,19.36 z"
     id="path1997"
     inkscape:export-filename="C:\xampp\htdocs\part4\index\assets\img\path1997.png"
     inkscape:export-xdpi="96"
     inkscape:export-ydpi="96" />
  <g
     inkscape:groupmode="layer"
     id="layer1"
     inkscape:label="on"
     style="display:none"
     transform="translate(234.69261,29522.778)" />
  <g
     inkscape:groupmode="layer"
     id="layer2"
     inkscape:label="off"
     style="display:none"
     transform="translate(234.69261,29522.778)" />
</svg>
