<?xml version="1.0" encoding="UTF-8" standalone="no"?>
<svg
   width="2.66667in"
   height="2.66667in"
   viewBox="0 0 800 800"
   version="1.1"
   id="svg111"
   sodipodi:docname="new-bulb-off.svg"
   inkscape:export-filename="C:\xampp\htdocs\part4\index\assets\img\new-bulb-on.png"
   inkscape:export-xdpi="96"
   inkscape:export-ydpi="96"
   inkscape:version="1.1.1 (3bf5ae0d25, 2021-09-20)"
   xmlns:inkscape="http://www.inkscape.org/namespaces/inkscape"
   xmlns:sodipodi="http://sodipodi.sourceforge.net/DTD/sodipodi-0.dtd"
   xmlns="http://www.w3.org/2000/svg"
   xmlns:svg="http://www.w3.org/2000/svg">
  <defs
     id="defs115" />
  <sodipodi:namedview
     id="namedview113"
     pagecolor="#505050"
     bordercolor="#ffffff"
     borderopacity="1"
     inkscape:pageshadow="0"
     inkscape:pageopacity="0"
     inkscape:pagecheckerboard="1"
     inkscape:document-units="in"
     showgrid="false"
     inkscape:zoom="5.4321549"
     inkscape:cx="102.26144"
     inkscape:cy="144.41782"
     inkscape:window-width="1680"
     inkscape:window-height="987"
     inkscape:window-x="-8"
     inkscape:window-y="-8"
     inkscape:window-maximized="1"
     inkscape:current-layer="svg111"
     inkscape:lockguides="true" />
  <path
     style="fill:#000000;stroke:#000000;stroke-width:0.178025"
     d="m 123.81657,194.39626 c -2.70945,-0.42951 -4.57793,-1.26049 -5.74909,-2.55683 -0.60822,-0.67322 -0.80112,-1.14621 -1.3707,-3.36091 -0.13997,-0.54426 -0.55507,-1.15536 -1.45112,-2.1363 -0.69029,-0.75568 -1.40669,-1.66958 -1.592,-2.03089 -0.74715,-1.45676 -1.22882,-6.42801 -1.22998,-12.69437 -7e-4,-3.75775 -0.0198,-3.97351 -0.47241,-5.34076 -0.25942,-0.78364 -1.30216,-3.02703 -2.31719,-4.98531 -4.94884,-9.54767 -7.04759,-14.24363 -8.07673,-18.07169 -0.47781,-1.7773 -0.5717,-2.51151 -0.71683,-5.60567 -0.27929,-5.95461 0.28456,-9.31928 2.28606,-13.64167 1.11162,-2.40063 2.62939,-4.68347 4.97069,-7.47627 l 2.19077,-2.61326 2.79717,-1.64917 c 5.95523,-3.51113 8.53953,-4.26536 14.68584,-4.28611 2.64184,-0.009 3.59463,0.0592 5.05432,0.36127 3.63702,0.75268 6.37539,1.89603 9.39783,3.92387 1.0588,0.71037 2.14303,1.38438 2.40941,1.49778 0.72506,0.30869 3.81908,3.86589 5.2118,5.99202 2.92416,4.46404 4.33633,8.52246 4.75217,13.65719 0.36459,4.50204 -0.4208,9.61225 -2.18972,14.24761 -0.3394,0.88937 -2.41028,5.1688 -4.60197,9.50983 -2.19169,4.34104 -4.21544,8.57375 -4.49722,9.40601 l -0.51233,1.51322 -0.033,6.05286 c -0.0461,8.47129 -0.28884,9.66415 -2.43067,11.94593 -1.34163,1.42929 -1.49033,1.67852 -1.76013,2.95001 -0.6245,2.94311 -2.76134,4.6218 -6.89305,5.41514 -1.63488,0.31392 -5.81213,0.30142 -7.86196,-0.0235 z m 9.25731,-2.5636 c 2.21615,-0.76012 2.84841,-1.591 2.84841,-3.74325 v -1.2519 h -8.30361 -8.30362 l 0.0957,1.39687 c 0.14687,2.14274 0.6844,2.88081 2.54013,3.48777 1.4705,0.48095 3.03303,0.6137 6.58331,0.55926 2.94849,-0.0452 3.53095,-0.10278 4.53964,-0.44875 z m 4.88142,-6.83498 c 1.4542,-0.66575 2.06157,-1.78367 2.06157,-3.79453 v -1.1306 h -12.39858 -12.39857 l 0.10627,1.2676 c 0.17903,2.13552 1.08166,3.42426 2.71401,3.87497 0.32187,0.0889 2.89486,0.12503 5.71775,0.0803 2.8229,-0.0447 6.17399,-0.003 7.44687,0.0935 3.44275,0.25997 5.60145,0.13484 6.75068,-0.3913 z m -9.82162,-6.30649 11.88319,-0.0905 v -2.02348 -2.02348 h -12.3935 -12.39349 l 0.11308,1.20167 c 0.31206,3.31629 0.30495,3.27983 0.61484,3.1494 0.16098,-0.0678 5.64013,-0.1639 12.17588,-0.21365 z m 11.88319,-7.14413 c 0,-1.29403 -0.0621,-1.65911 -0.34089,-2.00278 -0.39605,-0.48829 1.17613,-0.42113 -14.21268,-0.60709 l -10.19194,-0.12316 v 2.15777 2.15777 h 12.37275 12.37276 z m 0.0324,-4.14975 c 0.31285,-0.20506 0.71163,-0.89281 1.23818,-2.13538 0.42718,-1.00809 2.39694,-5.09072 4.37725,-9.0725 1.9803,-3.98178 3.83517,-7.8302 4.12191,-8.55204 3.94199,-9.92339 3.17434,-19.8224 -2.11206,-27.23545 -1.30471,-1.82958 -4.18423,-4.68401 -6.05547,-6.00271 -2.37814,-1.67591 -5.30809,-2.95466 -8.4562,-3.69062 -2.06786,-0.48342 -8.96186,-0.48448 -11.03757,-0.002 -2.74445,0.63832 -6.76498,2.44829 -8.85319,3.98554 -1.59643,1.17522 -4.12819,3.68177 -5.3315,5.27841 -3.42894,4.54977 -5.28745,11.4166 -4.78028,17.66226 0.45462,5.59867 1.33937,8.08219 6.68795,18.77339 1.93176,3.86137 3.70384,7.52839 3.93794,8.14894 0.91961,2.43761 1.3558,2.98711 2.46425,3.10436 0.39165,0.0414 5.80277,0.0674 12.02471,0.0576 10.32685,-0.0161 11.35282,-0.044 11.77408,-0.32016 z"
     id="path1013"
     transform="scale(3.1249959)" />
  <path
     style="fill:#000000;stroke:#000000;stroke-width:0.178025"
     d="m 123.75176,163.93642 c -0.0623,-0.45428 -0.11321,-1.17222 -0.11321,-1.59542 0,-1.34899 -0.69927,-6.28689 -1.34621,-9.50631 -0.41733,-2.07675 -1.06314,-4.43607 -1.93703,-7.07651 -0.907,-2.74045 -1.23849,-3.96106 -1.07573,-3.96106 0.48116,0 0.81933,0.23606 1.09113,0.76166 0.15372,0.29727 0.64222,0.92827 1.08555,1.40223 1.44852,1.54859 2.97835,1.54154 4.54081,-0.0209 0.46526,-0.46527 0.84593,-1.00779 0.84593,-1.20562 0,-0.99208 1.17619,-0.88877 1.74399,0.15317 0.85362,1.56643 1.7083,2.11393 3.3,2.11393 1.20283,0 1.65817,-0.33274 2.718,-1.98619 0.51538,-0.80406 0.89587,-1.21827 1.11906,-1.21827 0.72316,0 0.57921,1.02883 -0.42345,3.02643 -1.73844,3.46352 -3.22384,10.75616 -3.58078,17.58 l -0.12339,2.35883 -0.55195,1.8e-4 -0.55196,1.8e-4 0.11102,-2.53704 c 0.19634,-4.48688 0.94311,-9.14202 2.20537,-13.74761 0.34156,-1.24627 0.62102,-2.29676 0.62102,-2.33443 0,-0.0377 -0.4687,-0.0195 -1.04156,0.0404 -1.189,0.12428 -2.00881,-0.0913 -3.24885,-0.8543 -1.05881,-0.65149 -2.00136,-0.67293 -2.82634,-0.0643 -1.01848,0.75141 -2.01893,1.04276 -3.20985,0.93477 -0.82543,-0.0748 -1.06701,-0.0423 -1.06701,0.14387 0,0.13234 0.43712,2.22767 0.97137,4.65628 1.0902,4.95578 1.61996,8.3634 1.80045,11.58118 l 0.12233,2.18081 h -0.53275 c -0.49883,0 -0.53996,-0.0526 -0.64596,-0.82596 z"
     id="path1997"
     transform="scale(3.1249959)"
     inkscape:export-filename="C:\xampp\htdocs\part4\index\assets\img\path1997.png"
     inkscape:export-xdpi="96"
     inkscape:export-ydpi="96" />
  <g
     inkscape:groupmode="layer"
     id="layer1"
     inkscape:label="on"
     style="display:none" />
  <g
     inkscape:groupmode="layer"
     id="layer2"
     inkscape:label="off"
     style="display:none" />
</svg>
