<?xml version="1.0" encoding="UTF-8" standalone="no"?>
<svg
   width="1.4700165in"
   height="1.5912948in"
   viewBox="0 0 441.00438 477.38782"
   version="1.1"
   id="svg111"
   sodipodi:docname="top-bulb-on.svg"
   inkscape:export-filename="C:\xampp\htdocs\part4\index\assets\img\new-bulb-on.png"
   inkscape:export-xdpi="96"
   inkscape:export-ydpi="96"
   inkscape:version="1.1.1 (3bf5ae0d25, 2021-09-20)"
   xmlns:inkscape="http://www.inkscape.org/namespaces/inkscape"
   xmlns:sodipodi="http://sodipodi.sourceforge.net/DTD/sodipodi-0.dtd"
   xmlns="http://www.w3.org/2000/svg"
   xmlns:svg="http://www.w3.org/2000/svg">
  <defs
     id="defs115" />
  <sodipodi:namedview
     id="namedview113"
     pagecolor="#505050"
     bordercolor="#ffffff"
     borderopacity="1"
     inkscape:pageshadow="0"
     inkscape:pageopacity="0"
     inkscape:pagecheckerboard="1"
     inkscape:document-units="in"
     showgrid="false"
     inkscape:zoom="1.9859731"
     inkscape:cx="93.405092"
     inkscape:cy="93.908623"
     inkscape:window-width="1680"
     inkscape:window-height="987"
     inkscape:window-x="-8"
     inkscape:window-y="-8"
     inkscape:window-maximized="1"
     inkscape:current-layer="svg111" />
  <path
     id="new bulb"
     fill="none"
     stroke="#000000"
     stroke-width="1.45249"
     d="m 885.09933,333.13927 c 0,0 -18.2577,-21.7873 -18.2577,-21.7873 -15.8757,-22.06326 -25.2878,-45.31756 -25.3169,-72.6243 0,0 0.7408,-25.09897 0.7408,-25.09897 3.2681,-24.66322 16.6455,-51.51969 27.728,-73.6701 8.8165,-17.63319 19.8554,-34.13343 25.0118,-53.495068 0,0 0,-38.01157 0,-38.01157 0.3631,-8.09035 1.6849,-29.79049 5.2144,-36.31216 4.0815,-7.4948303 9.9641,-10.7484003 12.4623,-14.9315603 2.4402,-4.11053 2.3385,-13.6824197 6.972,-19.0420897 10.4724,-12.17183 34.8015,-14.08912 49.6895,-13.95839 13.5517,0.13072 34.30767,4.43008 42.26737,16.44214 4.5172,6.84122 3.3697,12.5494797 5.6937,16.5583397 2.3821,4.09602 8.5697,7.62556 12.4043,14.9315603 5.6066,10.6903 5.011,35.51329 4.9965,47.93205 -0.014,9.67356 -1.4815,17.85105 0.7698,27.59724 4.1106,17.836528 30.8073,62.573108 40.0886,84.244198 14.278,33.37814 17.9964,69.87912 6.3184,104.57901 -4.3575,12.97071 -14.0746,29.9648 -22.6733,40.5389 0,0 -14.3361,16.10807 -14.3361,16.10807 -4.9965,0.98769 -17.0667,10.93723 -23.2398,14.14722 -15.527,8.09034 -33.26187,13.3193 -50.83697,13.45002 -23.7772,0.17431 -37.6049,-1.36534 -59.5519,-12.07016 0,0 -26.1448,-15.52708 -26.1448,-15.52708 z M 1001.2982,0.51991169 c 0,-4.67699999 0.7263,-11.66345969 -2.32397,-15.41087969 -2.8323,-3.47143 -9.2523,-5.46135 -13.5226,-6.57976 -8.0758,-1.71393 -31.3882,-1.64131 -39.4786,0 -4.6044,0.71172 -11.9975,2.64352 -14.9751,6.40546 -3.0357,3.83457 -2.324,10.8645997 -2.324,15.58517969 0,0 72.62427,0 72.62427,0 z m 18.8823,30.50222031 c -0.2469,-7.887 0.2179,-15.07681 -7.4076,-19.79739 -8.4535,-5.2144303 -26.39167,-2.0334803 -36.16687,-1.9899103 0,0 -40.6697,0 -40.6697,0 -4.5898,-0.0146 -11.7506,-0.98769 -15.7304,0.72625 -9.7607,4.2122003 -10.1674,11.9249003 -10.4143,21.0610503 0,0 110.38887,0 110.38887,0 z m -108.93637,7.26243 c 0,0 -1.4525,17.42983 -1.4525,17.42983 0,0 110.38887,0 110.38887,0 0,0 0,-15.97735 0,-15.97735 0,0 -71.17177,0 -71.17177,0 0,0 -37.7646,-1.45248 -37.7646,-1.45248 z m 108.93637,26.14475 c 0,0 -110.38887,0 -110.38887,0 0,0 0,17.42983 0,17.42983 0,0 66.8144,0 66.8144,0 0,0 27.59717,-1.45249 27.59717,-1.45249 13.3048,0.0581 15.774,2.58543 15.9773,-8.71491 0,0 0,-7.26243 0,-7.26243 z m -109.82237,25.52018 c -5.1999,3.96529 -6.2603,10.733878 -8.7731,16.601918 0,0 -16.4276,33.40719 -16.4276,33.40719 -9.3395,18.403 -18.8242,35.28088 -24.9246,55.19447 -9.9641,32.57928 -7.4803,67.16297 8.5696,97.31658 6.0278,11.31487 10.9082,16.16618 19.6376,24.99729 10.0803,10.16741 18.4321,15.64328 31.519,21.26441 17.1539,7.36409 23.7481,8.80206 42.1221,8.93278 18.1561,0.1162 26.2319,-0.50837 43.57457,-6.81216 12.0266,-4.38651 21.4968,-10.60315 31.1122,-18.92589 48.9488,-42.28188 47.8595,-109.44484 17.7785,-162.47512 0,0 -7.1463,-15.13491 -7.1463,-15.13491 0,0 -16.8924,-33.40718 -16.8924,-33.40718 -1.9899,-4.09602 -6.8993,-18.388468 -9.6154,-20.305748 -2.5855,-1.81562 -7.7708,-1.48155 -10.8792,-1.48155 0,0 -65.36177,0 -65.36177,0 -8.1485,0 -27.4666,-0.79886 -34.2932,0.82792 z m 35.7456,10.791978 c 0,0 7.2625,0 7.2625,0 -0.058,20.36385 -2.8324,39.76907 -7.5965,59.55193 0,0 -5.4759,24.69228 -5.4759,24.69228 15.0623,-2.84688 17.3572,4.18315 22.6297,5.94066 4.0815,1.36533 8.5407,-3.0357 12.23,-4.67701 5.0982,-2.26587 9.1652,-2.01895 14.5248,-1.26365 -8.2937,-28.62852 -12.898,-54.36657 -13.0723,-84.24421 0,0 7.2624,0 7.2624,0 0.5519,25.22969 5.3597,67.8892 16.41307,90.05415 1.496,2.9776 7.2479,13.10142 3.0212,15.73042 -1.0168,0.63909 -2.1788,0.47933 -3.2246,0 -5.40317,-2.5128 -6.23107,-17.21196 -19.50687,-14.35056 -13.1014,2.81782 -6.8702,15.89019 -19.9426,13.145 -0.2179,-3.15189 -0.4212,-4.48818 -2.4547,-7.16076 -1.3218,-1.75751 -2.8614,-3.15189 -4.7351,-4.29936 -13.6534,-8.36631 -20.3929,10.16741 -22.6007,11.7942 -2.1642,1.59773 -4.0815,1.16198 -6.5216,1.1184 0,0 10.9953,-33.40718 10.9953,-33.40718 5.4177,-18.99852 10.7338,-52.89955 10.7919,-72.62431 z m -172.39556,27.68438 c 6.68144,-1.80108 9.83334,1.24914 15.52708,4.48819 0,0 27.59724,15.75948 27.59724,15.75948 3.67479,2.1061 11.27134,5.96972 13.63884,9.19423 3.7765,5.15633 0.3777,11.18415 -6.4055,9.68809 -4.27028,-0.92959 -14.74269,-7.56745 -18.85323,-10.08026 0,0 -26.14476,-15.01871 -26.14476,-15.01871 -6.01329,-3.57311 -11.59084,-7.40767 -5.35967,-14.03102 z m 380.10113,-0.52289 c 10.4288,-0.62457 9.5283,7.08814 2.8178,12.36065 0,0 -40.5825,23.93698 -40.5825,23.93698 -4.0088,2.17873 -12.5059,7.29148 -15.0187,0 -2.077,-5.75185 5.1418,-9.81881 9.2088,-12.2154 0,0 43.5746,-24.08223 43.5746,-24.08223 z M 800.85514,265.51151 c 15.4254,-1.77203 13.76957,7.52388 8.49704,10.73387 -2.54185,1.55417 -9.61546,2.52733 -12.8545,3.1519 0,0 -30.50221,5.21443 -30.50221,5.21443 -3.86361,0.63909 -12.40423,2.44017 -15.8902,1.56869 -6.47809,-1.59775 -7.40769,-8.9328 1.39439,-11.77968 0,0 49.35548,-8.88921 49.35548,-8.88921 z m 321.46426,0.84244 c 6.7686,-2.5128 14.3941,-0.18882 21.3225,1.13295 0,0 36.3121,6.53618 36.3121,6.53618 8.9183,2.26588 9.601,8.27918 5.3452,11.16962 -3.6312,2.42565 -11.3294,0.59552 -15.5126,0 0,0 -43.5455,-7.81438 -43.5455,-7.81438 -6.1585,-2.03348 -8.468,-5.8971 -3.9217,-11.02437 z m -263.30667,95.89314 c 10.4724,-2.78876 10.7193,4.47367 5.839,11.5618 0,0 -23.937,29.04972 -23.937,29.04972 -2.5709,3.0357 -9.354,11.48917 -12.5785,12.95618 -5.5195,2.49828 -11.88139,-2.93403 -4.8659,-12.95618 4.7497,-6.79763 29.7905,-36.54456 35.5424,-40.61152 z m 208.11217,0 c 7.887,-2.32397 10.7194,3.0938 15.3964,8.65683 0,0 24.3872,29.04972 24.3872,29.04972 2.934,3.58765 9.4121,12.21541 2.8759,15.86115 -5.4904,3.05023 -11.2422,-5.09822 -14.1908,-8.59871 0,0 -25.404,-30.50222 -25.404,-30.50222 -4.0669,-5.0837 -8.1193,-8.80206 -3.0647,-14.46677 z m -104.17227,37.75013 c 9.8769,-3.83456 9.2814,4.66247 9.2959,11.57631 0,0 0,42.1221 0,42.1221 -0.014,4.31389 0.7117,13.6098 -5.81,13.6098 -1.8591,0 -3.3116,-0.95864 -4.3284,-2.4547 -1.6413,-2.42566 -1.467,-6.84121 -1.4815,-9.70261 0,0 0,-37.76465 0,-37.76465 0,-5.79542 -1.162,-12.53495 2.324,-17.38625 z" />
  <path
     style="fill:#000000;stroke:#000000;stroke-width:0.808058"
     d="m 206.27058,1.5537517 c -12.29824,1.94954 -20.77929,5.72136 -26.09521,11.6054703 -2.76071,3.05576 -3.6363,5.20266 -6.22162,15.25523 -0.63533,2.47039 -2.51946,5.24418 -6.58666,9.69669 -3.13323,3.43003 -6.38498,7.57824 -7.2261,9.21823 -3.39133,6.61226 -5.57764,29.17684 -5.58289,57.619908 -0.003,17.05649 -0.0899,18.03583 -2.14428,24.2418 -1.17752,3.55695 -5.91052,13.73972 -10.51776,22.62839 -22.46284,43.337 -31.98911,64.65203 -36.66039,82.02764 -2.16878,8.06719 -2.59496,11.39978 -3.2537,25.44421 -1.26771,27.02807 1.29162,42.30035 10.37646,61.91973 5.04566,10.8965 11.93484,21.25833 22.56204,33.93489 l 9.94392,11.86164 12.6964,7.4856 c 27.03087,15.93705 38.76103,19.36052 66.65923,19.4547 11.99135,0.0408 16.31607,-0.26871 22.94163,-1.6398 16.50847,-3.41644 28.93797,-8.60611 42.65688,-17.8105 4.80589,-3.22439 9.72724,-6.28372 10.93634,-6.79845 3.29105,-1.40114 17.33484,-17.54733 23.65644,-27.19786 13.27279,-20.26234 19.68265,-38.68356 21.57015,-61.99017 1.65488,-20.43483 -1.91001,-43.63013 -9.93917,-64.6701 -1.54054,-4.03686 -10.94028,-23.46125 -20.8884,-43.16525 -9.94812,-19.70403 -19.13394,-38.91637 -20.41295,-42.694 l -2.32548,-6.86853 -0.14976,-27.474008 c -0.20927,-38.45131 -1.31107,-43.86571 -11.03286,-54.22275 -6.08966,-6.48756 -6.76463,-7.61881 -7.98926,-13.39014 -2.83461,-13.3588 -12.53375,-20.9784003 -31.28764,-24.5793903 -7.42074,-1.42487001 -26.38134,-1.36814001 -35.68555,0.1066 z m 42.01906,11.6362103 c 10.05913,3.45019 12.92896,7.22156 12.92896,16.99066 v 5.6824 h -37.6902 -37.69024 l 0.4344,-6.34042 c 0.66663,-9.72594 3.10648,-13.07604 11.52967,-15.83104 6.67462,-2.18304 13.76697,-2.78559 29.88174,-2.53849 13.38324,0.20516 16.02703,0.46652 20.60547,2.03689 z m 22.15683,31.02406 c 6.60063,3.02186 9.35748,8.0961 9.35748,17.22343 v 5.1318 h -56.27732 -56.27728 l 0.48238,-5.75364 c 0.81261,-9.69318 4.90966,-15.54277 12.31892,-17.58855 1.46097,-0.40351 13.1398,-0.56752 25.95294,-0.36448 12.81318,0.20289 28.02382,0.0131 33.80145,-0.4244 15.62668,-1.18001 25.42506,-0.61205 30.64143,1.77611 z m -44.58048,28.62524 53.93796,0.41079 v 9.18459 9.18461 H 223.5497 167.29547 l 0.51328,-5.45439 c 1.41643,-15.0527 1.38417,-14.8872 2.79076,-14.29518 0.73069,0.30775 25.60062,0.74395 55.26648,0.96977 z m 53.93796,32.427308 c 0,5.87362 -0.28186,7.53072 -1.5473,9.09064 -1.79767,2.21636 5.33848,1.91152 -64.51155,2.75559 l -46.26135,0.55903 v -9.79414 -9.794158 h 56.16008 56.16012 z m 0.14707,18.83577 c 1.42004,0.93078 3.23011,4.05248 5.62012,9.69253 1.93898,4.57572 10.87974,23.10684 19.8684,41.18018 8.9886,18.07337 17.40788,35.5414 18.7094,38.81784 17.89274,45.0424 14.40838,89.97414 -9.58667,123.62208 -5.92209,8.30449 -18.99227,21.26078 -27.48586,27.24638 -10.79441,7.60699 -24.09349,13.41124 -38.38281,16.75177 -9.38604,2.19425 -40.678,2.19907 -50.09968,0.009 -12.45709,-2.89735 -30.70633,-11.11283 -40.18475,-18.09043 -7.24622,-5.33434 -18.73792,-16.7116 -24.19976,-23.95877 -15.564,-20.65146 -23.99979,-51.8201 -21.69774,-80.16924 2.06353,-25.41244 6.07943,-36.68518 30.3567,-85.21266 8.76828,-17.52682 16.81177,-34.17147 17.87435,-36.98816 4.17413,-11.06435 6.154,-13.55853 11.18527,-14.09073 1.77771,-0.18793 26.33886,-0.30592 54.58032,-0.26145 46.87373,0.073 51.53062,0.19972 53.44271,1.45321 z"
     id="path1013" />
  <g
     id="g9881"
     transform="translate(-176.31002,-163.60817)">
    <path
       id="path1126"
       style="fill:#000000;stroke:#000000;stroke-width:0.808058"
       d="m 256.66247,341.45144 c -1.68154,-0.0721 -4.05133,-1.12359 -8.30676,-3.35996 -11.39623,-5.98895 -41.32748,-23.67228 -43.67028,-25.79789 -2.65976,-2.41313 -2.83269,-4.81807 -0.51418,-7.13656 1.31746,-1.31767 2.34464,-1.60653 4.48582,-1.25885 3.13562,0.50881 46.21548,24.74711 49.68092,27.95216 3.12227,2.88762 3.71312,5.9323 1.56915,8.07626 -1.04737,1.04738 -1.93683,1.5808 -3.24467,1.52484 z" />
    <path
       style="fill:#000000;stroke:#000000;stroke-width:0.808058"
       d="m 205.84165,445.85502 c -21.45047,3.95921 -25.61056,4.95284 -27.272,6.51366 -3.97614,3.73539 -1.26751,7.55001 5.2555,7.40145 5.61159,-0.12797 51.75257,-8.21388 54.25534,-9.50809 6.75132,-3.49113 4.38432,-9.35795 -3.69512,-9.15864 -1.77773,0.0453 -14.6224,2.18209 -28.54372,4.75162 z"
       id="path1279" />
    <path
       style="fill:#000000;stroke:#000000;stroke-width:0.808058"
       d="m 290.0651,538.57294 c -2.9893,1.70777 -11.8796,11.22422 -23.86925,25.55044 -13.40211,16.0139 -15.53608,19.67663 -13.74902,23.59877 1.15746,2.54038 4.72017,2.61986 7.82875,0.17466 2.63344,-2.07146 32.65596,-37.99793 35.09041,-41.99099 2.09657,-3.4388 2.13111,-6.81325 0.0808,-7.91046 -2.08504,-1.11587 -2.49442,-1.07193 -5.38186,0.57758 z"
       id="path1392" />
    <path
       id="path1505"
       style="fill:#000000;stroke:#000000;stroke-width:0.808058"
       d="m 396.80451,640.59194 c -4.29814,0 -4.44153,-1.07875 -4.44153,-32.73054 0,-25.06125 0.17684,-29.38608 1.2589,-30.93091 1.61472,-2.30533 5.60837,-2.43991 6.79078,-0.23049 0.53283,0.99517 0.83337,12.23243 0.83337,30.93089 0,31.90529 -0.13929,32.96105 -4.44152,32.96105 z" />
    <path
       style="fill:#000000;stroke:#000000;stroke-width:0.808058"
       d="m 498.92359,538.26484 c -2.41352,1.19685 -2.92093,4.72971 -1.08232,7.53576 2.64048,4.02988 32.50624,39.537 35.06965,41.69394 3.21979,2.70928 6.88081,2.91157 8.19663,0.4529 1.88664,-3.52517 -0.36719,-7.18538 -15.93007,-25.86847 -8.27022,-9.92838 -16.13901,-19.21724 -17.48619,-20.64185 -3.14536,-3.32615 -6.21649,-4.43734 -8.7677,-3.17228 z"
       id="path1658" />
    <path
       style="fill:#000000;stroke:#000000;stroke-width:0.808058"
       d="m 554.19893,441.82414 c -0.98668,0.39717 -2.04168,1.709 -2.34453,2.91546 -0.44346,1.76686 -0.12622,2.55855 1.63031,4.06951 2.59792,2.23463 0.33136,1.70062 28.65988,6.75223 25.30519,4.51246 30.85132,4.97408 33.28609,2.77065 2.71365,-2.45583 1.69102,-5.10666 -2.87365,-7.44901 -2.15736,-1.10707 -50.24252,-9.89719 -53.78413,-9.83192 -1.52902,0.0273 -3.58728,0.37629 -4.57397,0.77308 z"
       id="path1771" />
    <path
       style="fill:#000000;stroke:#000000;stroke-width:0.808058"
       d="m 560.43721,316.99886 c -22.91488,12.75436 -28.28204,16.47281 -28.28204,19.59429 0,2.26927 2.35756,5.01697 4.28809,4.99768 2.77961,-0.0273 6.83099,-2.15289 28.3368,-14.86323 25.03294,-14.79491 23.41036,-13.69451 25.23404,-17.1134 l 1.53338,-2.87464 -1.90766,-1.55488 c -1.0492,-0.8552 -2.68551,-1.53215 -3.63625,-1.50438 -0.95073,0.0273 -12.45559,6.02114 -25.56636,13.31856 z"
       id="path1884" />
  </g>
  <path
     style="fill:#000000;stroke:#000000;stroke-width:0.808058"
     d="m 205.9764,139.81136 c -0.28277,2.06199 -0.51386,5.32073 -0.51386,7.24164 0,6.12309 -3.17399,28.53628 -6.11047,43.14927 -1.89425,9.42641 -4.8256,20.13538 -8.7922,32.12039 -4.11688,12.43892 -5.62153,17.97929 -4.88275,17.97929 2.18399,0 3.71894,-1.07147 4.95266,-3.45718 0.69773,-1.34931 2.91503,-4.21343 4.92731,-6.36473 6.57486,-7.02907 13.51878,-6.99709 20.61081,0.0949 2.11181,2.11185 3.83968,4.57438 3.83968,5.47233 0,4.50305 5.33874,4.03413 7.91601,-0.69525 3.87458,-7.11005 7.754,-9.59515 14.97873,-9.59515 5.45966,0 7.52646,1.51031 12.33704,9.01534 2.33931,3.64964 4.06636,5.52974 5.07944,5.52974 3.28242,0 2.62903,-4.66988 -1.92205,-13.737 -7.89081,-15.72097 -14.63306,-48.82237 -16.25321,-79.79586 l -0.56008,-10.70676 -2.50531,-8.2e-4 -2.50534,-8.2e-4 0.50392,11.51565 c 0.89119,20.36601 4.28078,41.49577 10.0102,62.4006 1.55034,5.65684 2.81881,10.42502 2.81881,10.59601 0,0.17112 -2.12743,0.0885 -4.72765,-0.18338 -5.39689,-0.56411 -9.11801,0.41441 -14.74657,3.87768 -4.80596,2.95712 -9.0842,3.05444 -12.82879,0.29185 -4.62291,-3.41065 -9.16396,-4.7331 -14.56957,-4.24293 -3.74662,0.33953 -4.84316,0.19201 -4.84316,-0.65302 0,-0.60069 1.98409,-10.11143 4.40907,-21.13493 4.94842,-22.49434 7.35302,-37.96158 8.17226,-52.56712 l 0.55526,-9.89873 h -2.41817 c -2.2642,0 -2.45088,0.23875 -2.93202,3.74904 z"
     id="path1997"
     inkscape:export-filename="C:\xampp\htdocs\part4\index\assets\img\path1997.png"
     inkscape:export-xdpi="96"
     inkscape:export-ydpi="96" />
</svg>
