<?xml version="1.0" encoding="utf-8"?>
<!-- Generator: Adobe Illustrator 21.0.2, SVG Export Plug-In . SVG Version: 6.00 Build 0)  -->
<svg version="1.1" id="Слой_3" xmlns="http://www.w3.org/2000/svg" xmlns:xlink="http://www.w3.org/1999/xlink" x="0px" y="0px"
	 viewBox="0 0 2000 2000" style="enable-background:new 0 0 2000 2000;" xml:space="preserve">
<path d="M1243.1,1049.8c11.2-4.1,27-7.8,47.2-11c41.1-6.4,95.7-10,153.7-10s112.6,3.5,153.7,10c20.1,3.2,36,6.8,47.2,11
	c4.1,1.5,7.5,3.1,10.3,4.7l-42.3-384.3c1.8-1.6,2.8-3.2,2.8-4.9c0-0.3-0.1-0.7-0.1-1l-5.2-40.5c0-14.4-74.5-26-166.3-26
	s-166.3,11.7-166.3,26l-5.2,40.5c-0.1,0.3-0.1,0.7-0.1,1c0,1.8,1.1,3.5,3.3,5.2l-43.4,384.3
	C1235.1,1053.1,1238.7,1051.4,1243.1,1049.8z M1325.3,752.4c-1.7,30.1-3.8,60.3-6.3,90.3c-2.5,30.1-5.4,60.1-8.7,90.2
	c-3.4,30-7,60-11.8,89.9c0.2-30.3,1.6-60.5,3.2-90.6c1.7-30.1,3.8-60.3,6.3-90.3c2.5-30.1,5.4-60.1,8.7-90.2c3.4-30,7-60,11.8-89.9
	C1328.3,692,1326.9,722.2,1325.3,752.4z M1367.3,749c-1,30-2.5,60.1-4.3,90.1c-1.8,30-4,60-6.7,89.9c-2.7,29.9-5.7,59.9-9.8,89.7
	c-0.5-30.1,0.2-60.2,1.2-90.3c1-30,2.5-60.1,4.3-90.1c1.8-30,4-60,6.7-89.9c2.7-29.9,5.7-59.9,9.8-89.7
	C1369,688.9,1368.3,719,1367.3,749z M1406,837.9c-0.8,29.8-2,59.7-3.7,89.5c-1.7,29.8-3.7,59.6-6.8,89.4
	c-1.5-29.9-1.8-59.8-1.8-89.6c0-29.9,0.5-59.7,1.3-89.5c0.8-29.8,2-59.7,3.7-89.5c1.7-29.8,3.7-59.6,6.8-89.4
	c1.5,29.9,1.8,59.8,1.8,89.6C1407.3,778.2,1406.8,808.1,1406,837.9z M1447.8,927.5c-0.9,30.4-2,60.8-4.3,91.3
	c-2.3-30.4-3.5-60.8-4.3-91.3c-0.8-30.4-1.2-60.8-1.2-91.3c0-30.4,0.4-60.8,1.2-91.3c0.9-30.4,2-60.8,4.3-91.3
	c2.3,30.4,3.4,60.8,4.3,91.3c0.8,30.4,1.2,60.8,1.2,91.3C1449,866.7,1448.6,897.1,1447.8,927.5z M1492.5,1016.8
	c-3.1-29.8-5.1-59.6-6.8-89.4c-1.6-29.8-2.8-59.6-3.7-89.5c-0.8-29.8-1.3-59.7-1.3-89.5c0-29.9,0.4-59.7,1.8-89.6
	c3.1,29.8,5.1,59.6,6.8,89.4c1.6,29.8,2.8,59.6,3.7,89.5c0.8,29.8,1.3,59.7,1.3,89.5C1494.3,957,1494,986.9,1492.5,1016.8z
	 M1541.5,1018.8c-4.1-29.9-7.1-59.8-9.8-89.7c-2.6-30-4.8-59.9-6.7-89.9c-1.8-30-3.3-60-4.3-90.1c-1-30.1-1.7-60.1-1.2-90.3
	c4.1,29.9,7.1,59.8,9.8,89.7c2.6,30,4.8,59.9,6.7,89.9c1.8,30,3.3,60,4.3,90.1C1541.3,958.5,1542,988.6,1541.5,1018.8z
	 M1577.7,932.9c-3.3-30-6.2-60.1-8.7-90.2c-2.5-30.1-4.6-60.2-6.3-90.3c-1.6-30.2-3-60.3-3.2-90.6c4.8,29.9,8.4,59.9,11.8,89.9
	c3.3,30,6.2,60.1,8.7,90.2c2.5,30.1,4.6,60.2,6.3,90.3c1.6,30.2,3,60.3,3.2,90.6C1584.7,992.9,1581.1,962.9,1577.7,932.9z
	 M1621.5,848.6c3.4,30.4,6.5,60.9,9.1,91.4c2.6,30.5,4.8,61.1,6,91.7c-5.7-30.2-10.3-60.4-14.5-90.8c-4.2-30.3-8-60.7-11.4-91.1
	c-3.4-30.4-6.5-60.9-9.1-91.4c-2.5-30.5-4.8-61.1-6-91.7c5.7,30.2,10.2,60.5,14.5,90.8C1614.3,787.8,1618,818.2,1621.5,848.6z
	 M1284.2,626c1.6,0.2,3.2,0.6,4.8,1c3.1,0.7,6.3,1.5,8.7,0.9c0.9-0.2,3-2.3,4.4-3.6c3.1-3,7-6.8,12.3-7.7c4.5-0.8,8.7,1.1,12.4,2.7
	c2.5,1.1,5.4,2.3,7.1,2.1c1.2-0.2,3.5-2,5.3-3.4c3.4-2.7,7.2-5.8,12.2-6.3c4.6-0.5,8.8,1.7,12.4,3.6c2.4,1.2,5.1,2.6,6.7,2.5
	c1.3-0.1,3.7-1.8,5.6-3.2c3.5-2.5,7.4-5.3,12.3-5.6c4.7-0.2,8.7,2.1,12.3,4.1c2.3,1.3,4.8,2.7,6.3,2.7l0.1,0c1.3,0,3.8-1.7,5.9-3.1
	c3.5-2.3,7.5-5,12.4-5.1l0.2,0c4.6,0,8.6,2.4,12,4.6c2.2,1.4,4.8,2.9,6.2,2.9c1.4,0,3.9-1.6,6.1-2.9c3.5-2.2,7.5-4.7,12.2-4.6
	c4.8,0.1,8.8,2.7,12.3,5.1c2,1.3,4.5,3,5.7,3c1.4,0,4-1.4,6.3-2.7c3.6-2.1,7.6-4.4,12.3-4.2c4.9,0.3,8.8,3.1,12.2,5.6
	c1.9,1.4,4.3,3.1,5.5,3.2c1.5,0.1,4.2-1.3,6.5-2.5c3.6-1.9,7.8-4.1,12.3-3.6c5,0.5,8.8,3.6,12.1,6.3c1.7,1.4,4,3.3,5.2,3.4
	c1.6,0.2,4.5-1,6.9-2.1c3.7-1.7,7.9-3.5,12.4-2.8c5.3,0.9,9.1,4.6,12.2,7.6c1.4,1.3,3.5,3.4,4.4,3.6c2.2,0.5,5.3-0.3,8.4-1.1
	c2.1-0.5,4.2-1.1,6.3-1.3l1.5,11.3l-0.1,0.1l0.1,0l0,0c-0.9-0.1-3.3,0.5-4.9,1c-4,1-8.9,2.3-14,1.1c-4-1-6.9-3.8-9.7-6.5
	c-2.1-2-4.4-4.2-6.1-4.5c-1-0.2-3.9,1.1-5.8,1.9c-3.9,1.7-8.2,3.7-13.1,3c-4.4-0.6-7.9-3.4-11-5.9c-2.1-1.7-4.5-3.6-6-3.8
	c-1.2-0.1-3.9,1.3-5.9,2.4c-3.7,1.9-7.9,4.1-12.7,3.8c-4.5-0.3-8.2-3-11.5-5.4c-2.1-1.6-4.6-3.3-6-3.4c-1.2-0.1-3.8,1.4-5.9,2.6
	c-3.6,2.1-7.7,4.4-12.4,4.3c-4.6-0.2-8.4-2.7-11.8-5c-2.1-1.4-4.7-3.1-6.1-3.1h0c-1.3,0-3.8,1.6-5.9,2.9c-3.5,2.2-7.5,4.7-12.2,4.7
	c-4.7,0-8.7-2.5-12.3-4.7c-2.1-1.3-4.7-2.9-6-2.9c-1.5,0-4,1.7-6.2,3.2c-3.4,2.3-7.3,4.8-11.8,5c-4.8,0.2-8.9-2.2-12.5-4.2
	c-2.1-1.2-4.7-2.7-6-2.6c-1.5,0.1-4,1.9-6.2,3.4c-3.3,2.4-7,5-11.5,5.4c-4.8,0.4-9-1.8-12.8-3.7c-2.1-1.1-4.8-2.5-6-2.3
	c-1.6,0.2-4,2.1-6.2,3.8c-3.1,2.5-6.6,5.3-11,5.9c-4.9,0.6-9.3-1.3-13.2-3c-2-0.9-4.8-2.1-5.9-1.9c-1.9,0.3-4.1,2.5-6.3,4.6
	c-2.8,2.7-5.7,5.5-9.6,6.5c-1.6,0.4-3.2,0.6-4.8,0.6c-3.4,0-6.6-0.7-9.4-1.4c-1-0.2-2.3-0.5-3.4-0.7L1284.2,626z M1444,639.2
	c92.3,0,167.1,10.8,167.1,24.2c0,0.9-0.3,1.8-1,2.6c-0.7-0.9-1.6-1.7-2.6-2.4c-0.3-0.2-0.6-0.4-0.8-0.7
	c-8.3-9.5-72.9-19.8-162.7-19.8c-41.2,0-80.6,2.2-111.2,6.2c-33.6,4.4-48.7,10-51.7,13.8c-0.3,0.4-0.6,0.7-1,0.9
	c-0.9,0.5-1.6,1.2-2.3,1.9c-0.6-0.8-0.9-1.7-0.9-2.5C1276.9,650,1351.7,639.2,1444,639.2z M1257.5,940c2.6-30.5,5.7-61,9.1-91.4
	c3.4-30.4,7.2-60.8,11.4-91.1c4.3-30.3,8.8-60.6,14.5-90.8c-1.1,30.7-3.4,61.2-6,91.7c-2.6,30.5-5.7,61-9.1,91.4
	c-3.4,30.4-7.2,60.8-11.4,91.1c-4.3,30.3-8.8,60.6-14.5,90.8C1252.6,1001.1,1254.9,970.5,1257.5,940z"/>
<path d="M1915.5,1269.8c0-0.4-0.1-0.9-0.2-1.3l-6.8-52.7c0-18.7-96.9-33.9-216.5-33.9c-84.6,0-157.9,7.6-193.5,18.7v20.6
	c1.1,0,2.1,0,3-0.3c1.2-0.3,3.9-3,5.8-4.7c4.1-3.9,9.1-8.8,16.1-10.1c5.8-1,11.3,1.4,16.2,3.5c3.3,1.4,7,3,9.2,2.8
	c1.5-0.2,4.5-2.6,6.9-4.5c4.4-3.5,9.4-7.5,15.9-8.2c6-0.6,11.4,2.2,16.2,4.6c3.1,1.6,6.6,3.4,8.7,3.3c1.7-0.1,4.8-2.4,7.3-4.2
	c4.5-3.3,9.6-6.9,16-7.3c6.1-0.3,11.4,2.7,16.1,5.4c2.9,1.7,6.3,3.6,8.3,3.6l0.1,0c1.7-0.1,5-2.2,7.6-4c4.6-3.1,9.8-6.5,16.1-6.6
	c0.1,0,0.2,0,0.3,0c6,0,11.1,3.2,15.7,6c2.9,1.8,6.2,3.8,8.1,3.8c1.8,0,5.1-2,8-3.8c4.6-2.9,9.8-6.1,15.9-6c6.3,0.1,11.4,3.6,16,6.6
	c2.6,1.7,5.8,3.9,7.5,4c1.9,0.1,5.2-1.9,8.2-3.6c4.7-2.7,9.9-5.7,16-5.4c6.3,0.3,11.4,4,15.9,7.3c2.5,1.8,5.6,4.1,7.2,4.2
	c2,0.2,5.4-1.7,8.5-3.3c4.7-2.5,10.1-5.3,16.1-4.7c6.5,0.6,11.4,4.6,15.8,8.2c2.2,1.8,5.3,4.2,6.8,4.4c2.1,0.3,5.8-1.4,9-2.8
	c4.8-2.2,10.3-4.6,16.1-3.6c6.9,1.2,11.9,6,15.9,9.9c1.8,1.7,4.5,4.4,5.7,4.7c2.9,0.7,6.9-0.4,10.9-1.4c2.7-0.7,5.4-1.4,8.2-1.6
	l1.9,14.7l-0.1,0.2l0.1,0l0,0c-1.2-0.1-4.3,0.7-6.4,1.2c-5.2,1.3-11.6,3-18.2,1.4c-5.2-1.2-8.9-4.9-12.6-8.5c-2.7-2.6-5.7-5.5-8-5.9
	c-1.3-0.2-5,1.4-7.5,2.5c-5,2.2-10.7,4.8-17,4c-5.7-0.7-10.2-4.4-14.3-7.6c-2.7-2.2-5.9-4.7-7.9-4.9c-1.5-0.2-5.1,1.7-7.7,3.1
	c-4.8,2.5-10.3,5.4-16.5,4.9c-5.9-0.4-10.7-3.9-14.9-7c-2.8-2-6-4.3-7.9-4.4c-1.6-0.1-5,1.9-7.7,3.4c-4.7,2.7-10,5.8-16.2,5.6
	c-5.9-0.2-10.9-3.5-15.3-6.5c-2.7-1.8-6.1-4.1-7.9-4.1h0c-1.7,0-5,2.1-7.6,3.7c-4.6,2.9-9.8,6.1-15.9,6.1c-6.2,0-11.4-3.2-16-6.1
	c-2.7-1.7-6.1-3.8-7.8-3.7c-1.9,0-5.2,2.2-8.1,4.1c-4.4,2.9-9.4,6.3-15.4,6.5c-6.2,0.2-11.6-2.8-16.3-5.5c-2.8-1.6-6.2-3.5-7.9-3.4
	c-2,0.1-5.2,2.4-8,4.5c-4.3,3.1-9.1,6.6-15,7c-6.2,0.5-11.8-2.4-16.6-4.9c-2.8-1.4-6.2-3.2-7.8-3.1c-2.1,0.2-5.2,2.7-8,5
	c-4,3.2-8.6,6.9-14.3,7.6c-6.3,0.8-12.1-1.7-17.1-3.9c-2.6-1.2-6.3-2.7-7.6-2.5c-2.4,0.4-5.4,3.3-8.2,6c-3.7,3.5-7.4,7.2-12.5,8.5
	c-2.1,0.5-4.2,0.7-6.2,0.7c-0.2,0-0.3,0-0.5,0v16.7c27.9-7.9,77.8-13.8,138-16.1v61c-9.6-0.4-19-0.8-28.1-1.4
	c-1.3,1.9-3.3,3.7-6,5.5c10.9,0.7,22.3,1.4,34,1.8v106.7c-65.1,4.1-112,15.5-112,28.9c0,8.9,20.6,16.9,53.4,22.5
	c5.2,0.9,9.9,3.5,13.2,7.6c6.7,8.4,20.1,15.6,37.8,20.7c-12,7.7-19.4,17.8-19.4,28.8c0,15.8,15.1,29.7,37.8,37.4
	c-0.5,1-0.8,2-0.8,3.1c0,6.3,9.3,11.7,23,14.5v15.9c-6.7,2.2-11,5.4-11,9.1c0,4.7,7.1,8.7,17.5,10.7v33.8c0,135.6-110.4,246-246,246
	c-41.8,0-81.2-10.5-115.7-29c83.1-21.3,144.7-96.8,144.7-186.5V1460c9.3-2.1,15.5-5.9,15.5-10.3c0-3.6-4.3-6.9-11-9.1v-15.9
	c13.7-2.8,23-8.2,23-14.5c0-1.4-0.5-2.7-1.3-4c21.3-7.9,35.3-21.3,35.3-36.5c0-10.9-7.2-20.9-19-28.6c18-5.1,31.7-12.4,38.5-20.9
	c3.3-4.1,8-6.7,13.2-7.6c32.8-5.6,53.4-13.6,53.4-22.5c0-13.4-46.9-24.8-112-28.9v-106.5c99.1-3.6,173-17.5,173-34.1
	c0-0.4-0.1-0.9-0.2-1.3l-6.8-52.7c0-18.7-96.9-33.9-216.5-33.9s-216.5,15.2-216.5,33.9l-6.8,52.7c-0.1,0.4-0.2,0.9-0.2,1.3
	c0,16.3,71.4,30,168,33.9v106.7c-65.1,4.1-112,15.5-112,28.9c0,8.9,20.6,16.9,53.4,22.5c5.2,0.9,9.9,3.5,13.2,7.6
	c6.7,8.4,20.1,15.6,37.8,20.7c-12,7.7-19.4,17.8-19.4,28.8c0,15.8,15.1,29.7,37.8,37.4c-0.5,1-0.8,2-0.8,3.1c0,6.3,9.3,11.7,23,14.5
	v15.9c-6.7,2.2-11,5.4-11,9.1c0,4.7,7.1,8.7,17.5,10.7v213.3c0,85.8-67.3,156.3-152,161.2c-56.1-45.1-92-114.3-92-191.7v-150.9
	c9.3-5.5,15.5-15.6,15.5-27.1s-6.2-21.7-15.5-27.1v-38.4h9.5v-34h-8.5c-1.9-3-4.9-5.5-8.5-7.1v-11.5c7.1-5.7,12-17.6,12-31.4
	c0-19.3-9.6-35-21.5-35s-21.5,15.7-21.5,35c0,14.4,5.4,26.8,13,32.2v10.7c-3.6,1.6-6.5,4.1-8.5,7.1h-7.5v34h10.5v37.8
	c-4.1,2.3-7.7,5.4-10.5,9.2h-23.1c1.9-4.1,3-8.7,3-13.5c0-12.4-7.1-23.1-17.5-28.2v-37.3h10.5v-34h-8.5c-1.9-3-4.9-5.5-8.5-7.1
	v-11.5c7.1-5.7,12-17.6,12-31.4c0-19.3-9.6-35-21.5-35s-21.5,15.7-21.5,35c0,14.4,5.4,26.8,13,32.2v10.7c-3.6,1.6-6.5,4.1-8.5,7.1
	h-7.5v34h9.5v39c-2.3,1.5-4.4,3.3-6.3,5.3c-1.2-0.2-2.5-0.3-3.7-0.3c-13,0-23.5,9.6-23.5,21.5s10.5,21.5,23.5,21.5
	c1.3,0,2.5-0.1,3.7-0.3c1.8,2,4,3.8,6.3,5.3v214c0,105.9,85.9,192,191.6,192.5c47.3,35,104.4,54,164.4,54
	c74,0,143.6-28.8,195.9-81.1s81.1-121.9,81.1-195.9V1609c9.3-2.1,15.5-5.9,15.5-10.3c0-3.6-4.3-6.9-11-9.1v-15.9
	c13.7-2.8,23-8.2,23-14.5c0-1.4-0.5-2.7-1.3-4c21.3-7.9,35.3-21.3,35.3-36.5c0-10.9-7.2-20.9-19-28.6c18-5.1,31.7-12.4,38.5-20.9
	c3.3-4.1,8-6.7,13.2-7.6c32.8-5.6,53.4-13.6,53.4-22.5c0-13.4-46.9-24.8-112-28.9v-106.5C1841.6,1300.3,1915.5,1286.4,1915.5,1269.8
	z M1742.5,1236.5c95.8,3.3,167,15.8,167,30.7c0,14.9-71.2,27.4-167,30.7V1236.5z M1076.5,1362.8h-6v-26h6V1362.8z M1695.5,1235.7
	c7.8,0,15.4,0.1,23,0.2v173.3c-7.5-0.2-15.2-0.4-23-0.4V1235.7z M1702,1550.7l3,0.3c1.1,0.1,1.8,1.1,1.7,2.1c-0.1,1.1-1,1.8-2.1,1.7
	l0,0l-2.9-0.3l0,0c-1.1-0.1-1.9-1-1.8-2.1S1701,1550.6,1702,1550.7L1702,1550.7z M1692.9,1550.3L1692.9,1550.3l3.1,0.1
	c1.1,0,2,0.9,1.9,2c0,1.1-0.9,1.9-2,1.9l-0.1,0l-2.9,0l-0.1,0c-1.1,0-2-0.9-2-2C1690.9,1551.1,1691.8,1550.2,1692.9,1550.3z
	 M1687.5,1435c0.4-6.1,0.9-12.2,2-18.3c1,6.1,1.6,12.2,2,18.3c0.4,6.1,0.5,12.2,0.5,18.3c0,6.1-0.2,12.2-0.5,18.3
	c-0.1,1.1-0.2,2.2-0.2,3.3c-0.7,0-1.5,0-2.2,0c-0.4,0-0.8,0-1.2,0c-0.1-1.1-0.2-2.2-0.2-3.3c-0.4-6.1-0.5-12.2-0.5-18.3
	C1687,1447.2,1687.2,1441.1,1687.5,1435z M1683.8,1550.6l3-0.2c1.1-0.1,2,0.8,2.1,1.8s-0.8,2-1.8,2.1l0,0l0,0l-2.9,0.1l0,0
	c-1.1,0.1-2-0.8-2-1.9C1681.9,1551.5,1682.7,1550.6,1683.8,1550.6z M1677.7,1551.2c1.1-0.1,2,0.6,2.2,1.6c0.1,1.1-0.6,2-1.6,2.2l0,0
	l-0.1,0l-2.9,0.4l0,0c-1,0.1-2-0.6-2.1-1.7c-0.1-1,0.6-2,1.6-2.1L1677.7,1551.2z M1653.5,1236.2c4.9-0.1,9.9-0.2,15-0.3V1409
	c-5.1,0.1-10.1,0.3-15,0.5V1236.2z M1630.1,1436.1c4.6,5.6,9.1,11.3,13.4,17.2c4.3,5.8,8.5,11.8,12.6,17.8c1.4,2.2,2.9,4.4,4.3,6.6
	c-1.1,0.2-2.1,0.5-3.2,0.7c-1.4-1.7-2.8-3.3-4.2-5c-4.6-5.6-9.1-11.3-13.4-17.2c-4.3-5.8-8.5-11.8-12.6-17.8
	c-4-6.1-7.9-12.2-11.4-18.7C1620.7,1425,1625.4,1430.5,1630.1,1436.1z M1598.3,1438.8c6.4,5.2,12.7,10.6,18.9,16.1
	c6.2,5.5,12.2,11.1,18.1,16.9c3.4,3.3,6.8,6.7,10.1,10.2c-0.8,0.3-1.6,0.6-2.3,0.9c-3.5-2.7-6.9-5.4-10.3-8.2
	c-6.4-5.2-12.7-10.6-18.9-16.1c-6.2-5.5-12.2-11.1-18.1-16.9c-5.9-5.8-11.7-11.7-17.2-18C1585.4,1428.5,1591.9,1433.6,1598.3,1438.8
	z M1612.5,1476.9c-7.9-4.5-15.6-9.2-23.3-14c-7.7-4.8-15.3-9.8-22.7-15c-7.5-5.1-14.8-10.4-22-16.2c8.2,4,16.2,8.3,24,12.8
	c7.9,4.5,15.6,9.2,23.3,14c7.7,4.8,15.2,9.8,22.7,15c6.4,4.4,12.7,8.9,18.9,13.7c-0.3,0.2-0.6,0.3-0.8,0.5
	C1625.7,1484.4,1619.1,1480.7,1612.5,1476.9z M1629.2,1540.9c-3-2.3-5.8-5.1-7.9-8.5c-2.2-3.3-3.7-7.3-4.1-11.4l-0.1-1.6l0-0.8
	l0-0.8l0.1-1.6c0-0.5,0.1-1,0.2-1.5c0.3-2,1-4,1.8-5.9c1.7-3.7,4.1-6.9,6.9-9.5c5.6-5.2,12.5-8.5,19.6-10.1
	c-5.9,4.3-11.4,8.7-15.6,13.9c-2.1,2.6-3.8,5.4-4.8,8.3c-0.5,1.5-0.9,2.9-1.1,4.4c-0.3,1.5-0.2,3-0.1,4.5c0.5,6,4,11.6,8.7,16.4
	c4.7,4.9,10.5,8.8,16.6,12.8C1642.2,1548.3,1635.2,1545.6,1629.2,1540.9z M1652.2,1560.4L1652.2,1560.4l-0.1,0l-2.8,0.9l0,0
	c-0.7,0.2-1.4-0.2-1.6-0.8c-0.2-0.7,0.1-1.4,0.8-1.6l2.8-1.1c0.7-0.3,1.5,0.1,1.8,0.8S1653,1560.1,1652.2,1560.4z M1660.8,1558
	L1660.8,1558l-0.1,0l-2.9,0.7l0,0c-0.8,0.2-1.7-0.3-1.9-1.1c-0.2-0.8,0.3-1.6,1-1.9l2.9-0.9c0.9-0.3,1.8,0.2,2.1,1.1
	C1662.2,1556.9,1661.7,1557.8,1660.8,1558z M1655.2,1435.7c-2.1-6.2-4.2-12.5-5.7-19c3.5,5.7,6.5,11.6,9.3,17.5c2.8,5.9,5.5,12,8,18
	c2.5,6.1,4.8,12.2,7,18.5c0.5,1.5,1,3.1,1.6,4.7c-1.2,0.1-2.3,0.2-3.4,0.4c-0.6-1.2-1.2-2.4-1.7-3.5c-2.8-5.9-5.5-12-8-18
	C1659.7,1448.1,1657.3,1442,1655.2,1435.7z M1669.5,1556.2L1669.5,1556.2L1669.5,1556.2l-3,0.6l0,0c-1,0.2-1.9-0.4-2-1.4
	c-0.2-0.9,0.4-1.8,1.3-2l3-0.7c1-0.2,1.9,0.4,2.1,1.4C1671.1,1555,1670.5,1556,1669.5,1556.2z M1467.6,1405.6
	c-0.2,1-1.1,1.6-2.1,1.5l0,0l-2.9-0.5l0,0c-1-0.2-1.7-1.1-1.6-2.2c0.2-1,1.1-1.7,2.2-1.6l0.1,0l3,0.6
	C1467.1,1403.6,1467.8,1404.6,1467.6,1405.6z M1460.8,1323.2c-0.6,1.2-1.2,2.4-1.8,3.7c-1.1-0.1-2.3-0.3-3.4-0.4
	c0.5-1.6,1.1-3.2,1.6-4.7c2.2-6.2,4.5-12.4,7-18.5c2.5-6.1,5.2-12.1,8-18c2.9-5.9,5.8-11.8,9.3-17.5c-1.5,6.5-3.5,12.8-5.7,19
	c-2.2,6.2-4.5,12.4-7,18.5C1466.3,1311.3,1463.7,1317.3,1460.8,1323.2z M1439.8,1325.8c-0.1-1.1-0.2-2.2-0.2-3.3
	c-0.4-6.1-0.5-12.2-0.5-18.3c0-6.1,0.2-12.2,0.5-18.3c0.4-6.1,0.9-12.2,2-18.3c1,6.1,1.6,12.2,2,18.3c0.4,6.1,0.5,12.2,0.5,18.3
	c0,6.1-0.2,12.2-0.5,18.3c-0.1,1.1-0.2,2.2-0.2,3.3c-0.7,0-1.5,0-2.2,0C1440.6,1325.8,1440.2,1325.8,1439.8,1325.8z M1440.9,1403.2
	c0.1,1.1-0.8,2-1.8,2.1l0,0l0,0l-2.9,0.1l0,0c-1.1,0.1-2-0.8-2-1.9c-0.1-1.1,0.8-2,1.8-2l3-0.2
	C1439.9,1401.3,1440.8,1402.1,1440.9,1403.2z M1444.9,1401.3L1444.9,1401.3l3.1,0.1c1.1,0,2,0.9,1.9,2c0,1.1-0.9,1.9-2,1.9l-0.1,0
	l-2.9,0l-0.1,0c-1.1,0-2-0.9-2-2C1442.9,1402.1,1443.8,1401.2,1444.9,1401.3z M1447.5,1259.8v-173.1c7.8,0,15.4,0.1,23,0.2v173.3
	C1463,1260,1455.3,1259.8,1447.5,1259.8z M1454,1401.7L1454,1401.7l3.1,0.3c1.1,0.1,1.8,1.1,1.7,2.1c-0.1,1.1-1,1.8-2.1,1.7l0,0
	l-2.9-0.3l0,0c-1.1-0.1-1.9-1-1.8-2.1S1453,1401.6,1454,1401.7z M1476.2,1407.6c-0.2,0.9-1.1,1.4-2,1.2l0,0l-2.9-0.7l0,0
	c-0.9-0.2-1.5-1.1-1.3-2.1s1.1-1.5,2.1-1.3l0.1,0l2.9,0.8C1475.9,1405.8,1476.4,1406.7,1476.2,1407.6z M1484.6,1410.2
	c-0.3,0.7-1,1.1-1.8,0.9l0,0l-2.9-0.8l0,0c-0.8-0.2-1.3-1.1-1.1-1.9c0.2-0.8,1.1-1.3,1.9-1.1l0.1,0l2.9,1
	C1484.4,1408.6,1484.8,1409.4,1484.6,1410.2z M1502.3,1348.9c2.7,2.2,5.1,4.8,7,7.9c1.9,3.1,3.2,6.6,3.6,10.4
	c0.1,0.9,0.1,1.9,0.1,2.8c-0.1,0.9,0,1.9-0.2,2.8c-0.1,0.9-0.3,1.8-0.6,2.7c-0.2,0.9-0.5,1.8-0.8,2.6c-1.3,3.4-3.4,6.5-5.8,9
	c-4.8,5-10.9,8.3-17.3,10.1c5-4.3,9.6-8.6,13-13.6c3.4-4.9,5.1-10.4,4.6-15.7c-0.6-5.4-3.4-10.5-7.4-15c-4-4.6-9-8.5-14.2-12.5
	C1490.7,1341.7,1497,1344.5,1502.3,1348.9z M1586.5,1282.8c-7.1,5.7-14.5,11-22,16.2c-7.5,5.2-15,10.1-22.7,15
	c-7.7,4.8-15.4,9.5-23.3,14c-6.8,3.9-13.6,7.7-20.6,11.1c-0.2-0.1-0.5-0.3-0.7-0.4c6.3-4.9,12.7-9.5,19.3-14
	c7.5-5.2,15-10.1,22.7-15c7.7-4.8,15.4-9.5,23.3-14C1570.3,1291.1,1578.3,1286.7,1586.5,1282.8z M1552.5,1274.8
	c-5.5,6.3-11.3,12.2-17.2,18c-5.9,5.8-12,11.4-18.1,16.9c-6.2,5.5-12.4,10.9-18.9,16.1c-3.5,2.9-7.1,5.7-10.7,8.4
	c-0.7-0.3-1.5-0.6-2.2-0.9c3.4-3.6,6.8-7,10.3-10.4c5.9-5.8,12-11.4,18.1-16.9c6.2-5.5,12.4-10.9,18.9-16.1
	C1539.1,1284.6,1545.6,1279.5,1552.5,1274.8z M1500.9,1287.1c4.7-5.6,9.4-11.1,14.6-16.3c-3.5,6.5-7.4,12.6-11.4,18.7
	c-4,6.1-8.2,12-12.6,17.8c-4.3,5.8-8.8,11.6-13.4,17.2c-1.5,1.8-2.9,3.5-4.4,5.2c-1-0.3-2.1-0.5-3.1-0.7c1.4-2.3,2.9-4.6,4.4-6.8
	c4-6.1,8.2-12,12.6-17.8C1491.8,1298.4,1496.3,1292.7,1500.9,1287.1z M1661.5,1118.2c0,14.9-71.2,27.4-167,30.7v-61.3
	C1590.3,1090.8,1661.5,1103.3,1661.5,1118.2z M1236,1069.5c2.1,0.3,4.1,0.8,6.2,1.2c4.1,0.9,8.2,1.9,11.3,1.1c1.2-0.3,3.9-3,5.8-4.7
	c4.1-3.9,9.1-8.8,16.1-10.1c5.8-1,11.3,1.4,16.2,3.5c3.3,1.4,7,3,9.2,2.8c1.5-0.2,4.5-2.6,6.9-4.5c4.4-3.5,9.4-7.5,15.9-8.2
	c6-0.6,11.4,2.2,16.2,4.6c3.1,1.6,6.6,3.4,8.7,3.3c1.7-0.1,4.8-2.4,7.3-4.2c4.5-3.3,9.6-6.9,16-7.3c6.1-0.3,11.4,2.7,16.1,5.4
	c2.9,1.7,6.3,3.6,8.3,3.6l0.1,0c1.7-0.1,5-2.2,7.6-4c4.6-3.1,9.8-6.5,16.1-6.6c0.1,0,0.2,0,0.3,0c6,0,11.1,3.2,15.7,6
	c2.9,1.8,6.2,3.8,8.1,3.8c1.8,0,5.1-2,8-3.8c4.6-2.9,9.8-6.1,15.9-6c6.3,0.1,11.4,3.6,16,6.6c2.6,1.7,5.8,3.9,7.5,4
	c1.9,0.1,5.2-1.9,8.2-3.6c4.7-2.7,9.9-5.7,16-5.4c6.3,0.3,11.4,4,15.9,7.3c2.5,1.8,5.6,4.1,7.2,4.2c2,0.2,5.4-1.7,8.5-3.3
	c4.7-2.5,10.1-5.3,16.1-4.7c6.5,0.6,11.4,4.6,15.8,8.2c2.2,1.8,5.3,4.2,6.8,4.4c2.1,0.3,5.8-1.4,9-2.8c4.8-2.2,10.3-4.6,16.1-3.6
	c6.9,1.2,11.9,6,15.9,9.9c1.8,1.7,4.5,4.4,5.7,4.7c2.9,0.7,6.9-0.4,10.9-1.4c2.7-0.7,5.4-1.4,8.2-1.6l1.9,14.7l-0.1,0.2l0.1,0l0,0
	c-1.2-0.1-4.3,0.7-6.4,1.2c-5.2,1.3-11.6,3-18.2,1.4c-5.2-1.2-8.9-4.9-12.6-8.5c-2.7-2.6-5.7-5.5-8-5.9c-1.3-0.2-5,1.4-7.5,2.5
	c-5,2.2-10.7,4.8-17,4c-5.7-0.7-10.2-4.4-14.3-7.6c-2.7-2.2-5.9-4.7-7.9-4.9c-1.5-0.2-5.1,1.7-7.7,3.1c-4.8,2.5-10.3,5.4-16.5,4.9
	c-5.9-0.4-10.7-3.9-14.9-7c-2.8-2-6-4.3-7.9-4.4c-1.6-0.1-5,1.9-7.7,3.4c-4.7,2.7-10,5.8-16.2,5.6c-5.9-0.2-10.9-3.5-15.3-6.5
	c-2.7-1.8-6.1-4.1-7.9-4.1h0c-1.7,0-5,2.1-7.6,3.7c-4.6,2.9-9.8,6.1-15.9,6.1c-6.2,0-11.4-3.2-16-6.1c-2.7-1.7-6.1-3.8-7.8-3.7
	c-1.9,0-5.2,2.2-8.1,4.1c-4.4,2.9-9.4,6.3-15.4,6.5c-6.2,0.2-11.6-2.8-16.3-5.5c-2.8-1.6-6.2-3.5-7.9-3.4c-2,0.1-5.2,2.4-8,4.5
	c-4.3,3.1-9.1,6.6-15,7c-6.2,0.5-11.8-2.4-16.6-4.9c-2.8-1.4-6.2-3.2-7.8-3.1c-2.1,0.2-5.2,2.7-8,5c-4,3.2-8.6,6.9-14.3,7.6
	c-6.3,0.8-12.1-1.7-17.1-3.9c-2.6-1.2-6.3-2.7-7.6-2.5c-2.4,0.4-5.4,3.3-8.2,6c-3.7,3.5-7.4,7.2-12.5,8.5c-2.1,0.5-4.2,0.7-6.2,0.7
	c-4.4,0-8.6-1-12.2-1.8c-1.3-0.3-3.1-0.7-4.5-0.9L1236,1069.5z M1430.2,1406L1430.2,1406L1430.2,1406l-3,0.4l0,0
	c-1,0.1-2-0.6-2.1-1.7c-0.1-1,0.6-2,1.6-2.1l3-0.4c1.1-0.1,2,0.6,2.2,1.6C1432,1404.8,1431.3,1405.8,1430.2,1406z M1420.5,1086.9
	V1260c-5.1,0.1-10.1,0.3-15,0.5v-173.3C1410.4,1087.1,1415.4,1087,1420.5,1086.9z M1226.5,1118.2c0-14.6,68.8-26.9,162-30.5v61
	C1295.3,1145.2,1226.5,1132.9,1226.5,1118.2z M1382.1,1287.1c4.6,5.6,9.1,11.3,13.4,17.2c4.3,5.8,8.5,11.8,12.6,17.8
	c1.4,2.2,2.9,4.4,4.3,6.6c-1.1,0.2-2.1,0.5-3.2,0.7c-1.4-1.7-2.8-3.3-4.2-5c-4.6-5.6-9.1-11.3-13.4-17.2
	c-4.3-5.8-8.5-11.8-12.6-17.8c-4-6.1-7.9-12.2-11.4-18.7C1372.7,1276,1377.4,1281.5,1382.1,1287.1z M1350.3,1289.8
	c6.4,5.2,12.7,10.6,18.9,16.1c6.2,5.5,12.2,11.1,18.1,16.9c3.4,3.3,6.8,6.7,10.1,10.2c-0.8,0.3-1.6,0.6-2.3,0.9
	c-3.5-2.7-6.9-5.4-10.3-8.2c-6.4-5.2-12.7-10.6-18.9-16.1c-6.2-5.5-12.2-11.1-18.1-16.9c-5.9-5.8-11.7-11.7-17.2-18
	C1337.4,1279.5,1343.9,1284.6,1350.3,1289.8z M1364.5,1327.9c-7.9-4.5-15.6-9.2-23.3-14c-7.7-4.8-15.3-9.8-22.7-15
	c-7.5-5.1-14.8-10.4-22-16.2c8.2,4,16.2,8.3,24,12.8c7.9,4.5,15.6,9.2,23.3,14c7.7,4.8,15.2,9.8,22.7,15c6.4,4.4,12.7,8.9,18.9,13.7
	c-0.3,0.2-0.6,0.3-0.8,0.5C1377.7,1335.4,1371.1,1331.7,1364.5,1327.9z M1381.2,1391.9c-3-2.3-5.8-5.1-7.9-8.5
	c-2.2-3.3-3.7-7.3-4.1-11.4l-0.1-1.6l0-0.8l0-0.8l0.1-1.6c0-0.5,0.1-1,0.2-1.5c0.3-2,1-4,1.8-5.9c1.7-3.7,4.1-6.9,6.9-9.5
	c5.6-5.2,12.5-8.5,19.6-10.1c-5.9,4.3-11.4,8.7-15.6,13.9c-2.1,2.6-3.8,5.4-4.8,8.3c-0.5,1.5-0.9,2.9-1.1,4.4
	c-0.3,1.5-0.2,3-0.1,4.5c0.5,6,4,11.6,8.7,16.4c4.7,4.9,10.5,8.8,16.6,12.8C1394.2,1399.3,1387.2,1396.6,1381.2,1391.9z
	 M1404.2,1411.4L1404.2,1411.4l-0.1,0l-2.8,0.9l0,0c-0.7,0.2-1.4-0.2-1.6-0.8c-0.2-0.7,0.1-1.4,0.8-1.6l2.8-1.1
	c0.7-0.3,1.5,0.1,1.8,0.8S1405,1411.1,1404.2,1411.4z M1412.8,1409L1412.8,1409l-0.1,0l-2.9,0.7l0,0c-0.8,0.2-1.7-0.3-1.9-1.1
	c-0.2-0.8,0.3-1.6,1-1.9l2.9-0.9c0.9-0.3,1.8,0.2,2.1,1.1C1414.2,1407.9,1413.7,1408.8,1412.8,1409z M1407.2,1286.7
	c-2.1-6.2-4.2-12.5-5.7-19c3.5,5.7,6.5,11.6,9.3,17.5c2.8,5.9,5.5,12,8,18c2.5,6.1,4.8,12.2,7,18.5c0.5,1.5,1,3.1,1.6,4.7
	c-1.2,0.1-2.3,0.2-3.4,0.4c-0.6-1.2-1.2-2.4-1.7-3.5c-2.8-5.9-5.5-12-8-18C1411.7,1299.1,1409.3,1293,1407.2,1286.7z M1421.5,1407.2
	L1421.5,1407.2L1421.5,1407.2l-3,0.6l0,0c-1,0.2-1.9-0.4-2-1.4c-0.2-0.9,0.4-1.8,1.3-2l3-0.7c1-0.2,1.9,0.4,2.1,1.4
	C1423.1,1406,1422.5,1407,1421.5,1407.2z M1420,1452.8c-1.4,0-2.5-1.1-2.5-2.5s1.1-2.5,2.5-2.5h46c1.4,0,2.5,1.1,2.5,2.5
	s-1.1,2.5-2.5,2.5H1420z M1256.8,1834.9c-3.3-0.2-6.7-0.5-9.9-0.9c-1.3-1.2-2.6-2.5-3.9-3.8c-50-50-77.5-116.4-77.5-187v-146.6
	c0.8,0.1,1.7,0.1,2.5,0.1c1.2,0,2.4-0.1,3.5-0.2v146.7C1171.5,1719.2,1204.4,1787.6,1256.8,1834.9z M1190.7,1451.6
	c3,5.9,2.6,12.1-0.8,13.9c-3.4,1.8-8.7-1.6-11.7-7.5s-2.6-12.1,0.8-13.9C1182.5,1442.3,1187.7,1445.7,1190.7,1451.6z M1173.5,1368.8
	h13v26h-13V1368.8z M1171.5,1433.9c-1.1-0.1-2.3-0.2-3.5-0.2c-0.8,0-1.7,0-2.5,0.1v-34.1h6V1433.9z M1151.5,1327.6
	c-1.5-5.6-2-11.5-1.6-17.2c0.4-5.8,1.8-11.6,4.5-16.8c1.4-2.6,3.1-5.1,5.3-7.1c2.2-2,5-3.5,7.8-3.7c-2.5,1.3-4.5,3.1-6,5.3
	c-1.5,2.2-2.6,4.6-3.5,7.1c-1.8,5-2.7,10.3-3.1,15.6c-0.4,5.3-0.3,10.7,0.4,16.1c0.7,5.4,2,10.6,4.1,15.9
	C1155.6,1338.6,1153,1333.2,1151.5,1327.6z M1148.5,1394.8v-26h6v26H1148.5z M1140.6,1480.8c2.9,5.1,7.2,9.4,12.4,12.2v150.3
	c0,69.7,25.6,135.5,72.4,186.7c-69.2-18.2-120.4-81.3-120.4-156.2v-193H1140.6z M1113.1,1422c2.4,7.1,1.3,13.8-2.3,15
	c-3.7,1.2-8.6-3.5-10.9-10.6c-2.4-7.1-1.3-13.8,2.3-15C1105.9,1410.2,1110.8,1415,1113.1,1422z M1095.5,1336.8h13v26h-13V1336.8z
	 M1083.5,1256.1c-1.5,2.2-2.6,4.6-3.5,7.1c-1.8,5-2.7,10.3-3.1,15.6c-0.4,5.3-0.3,10.7,0.4,16.1c0.7,5.4,2,10.6,4.1,15.9
	c-3.9-4.1-6.5-9.5-8-15.1c-1.5-5.6-2-11.5-1.6-17.2c0.4-5.8,1.8-11.6,4.5-16.8c1.4-2.6,3.1-5.1,5.3-7.1c2.2-2,5-3.5,7.8-3.7
	C1087,1252,1085,1253.9,1083.5,1256.1z M1092.5,1367.8v34c-0.5,0-1,0-1.5,0c-1.5,0-3,0.1-4.5,0.3v-34.3H1092.5z M1086.5,1673.8
	v-209.3c1.5,0.2,3,0.3,4.5,0.3c0.5,0,1,0,1.5,0v209c0,95.9,78.1,174,174,174s174-78.1,174-174v-212c0.7,0,1.3,0,2,0
	c1.4,0,2.7,0,4-0.1v212.1c0,99.3-80.7,180-180,180S1086.5,1773,1086.5,1673.8z M1694.5,1643.3c0,70.7-27.5,137.1-77.5,187
	c-50,50-116.4,77.5-187,77.5c-51.9,0-101.4-14.8-143.9-42.5c3.2-0.3,6.4-0.7,9.6-1.2c39.2,23.9,85.1,37.7,134.3,37.7
	c142.5,0,258.5-116,258.5-258.5v-32.5c0.7,0,1.3,0,2,0c1.4,0,2.7,0,4-0.1V1643.3z M1714,1596.8c1.4,0,2.5,1.1,2.5,2.5
	s-1.1,2.5-2.5,2.5h-46c-1.4,0-2.5-1.1-2.5-2.5s1.1-2.5,2.5-2.5H1714z M1715.6,1554.6c-0.2,1-1.1,1.6-2.1,1.5l0,0l-2.9-0.5l0,0
	c-1-0.2-1.7-1.1-1.6-2.2c0.2-1,1.1-1.7,2.2-1.6l0.1,0l3,0.6C1715.1,1552.6,1715.8,1553.6,1715.6,1554.6z M1708.8,1472.2
	c-0.6,1.2-1.2,2.4-1.8,3.7c-1.1-0.1-2.3-0.3-3.4-0.4c0.5-1.6,1.1-3.2,1.6-4.7c2.2-6.2,4.5-12.4,7-18.5c2.5-6.1,5.2-12.1,8-18
	c2.9-5.9,5.8-11.8,9.3-17.5c-1.5,6.5-3.5,12.8-5.7,19c-2.2,6.2-4.5,12.4-7,18.5C1714.3,1460.3,1711.7,1466.3,1708.8,1472.2z
	 M1724.2,1556.6c-0.2,0.9-1.1,1.4-2,1.2l0,0l-2.9-0.7l0,0c-0.9-0.2-1.5-1.1-1.3-2.1s1.1-1.5,2.1-1.3l0.1,0l2.9,0.8
	C1723.9,1554.8,1724.4,1555.7,1724.2,1556.6z M1732.6,1559.2c-0.3,0.7-1,1.1-1.8,0.9l0,0l-2.9-0.8l0,0c-0.8-0.2-1.3-1.1-1.1-1.9
	c0.2-0.8,1.1-1.3,1.9-1.1l0.1,0l2.9,1C1732.4,1557.6,1732.8,1558.4,1732.6,1559.2z M1750.3,1497.9c2.7,2.2,5.1,4.8,7,7.9
	c1.9,3.1,3.2,6.6,3.6,10.4c0.1,0.9,0.1,1.9,0.1,2.8c-0.1,0.9,0,1.9-0.2,2.8c-0.1,0.9-0.3,1.8-0.6,2.7c-0.2,0.9-0.5,1.8-0.8,2.6
	c-1.3,3.4-3.4,6.5-5.8,9c-4.8,5-10.9,8.3-17.3,10.1c5-4.3,9.6-8.6,13-13.6c3.4-4.9,5.1-10.4,4.6-15.7c-0.6-5.4-3.4-10.5-7.4-15
	c-4-4.6-9-8.5-14.2-12.5C1738.7,1490.7,1745,1493.5,1750.3,1497.9z M1834.5,1431.8c-7.1,5.7-14.5,11-22,16.2
	c-7.5,5.2-15,10.1-22.7,15c-7.7,4.8-15.4,9.5-23.3,14c-6.8,3.9-13.6,7.7-20.6,11.1c-0.2-0.1-0.5-0.3-0.7-0.4
	c6.3-4.9,12.7-9.5,19.3-14c7.5-5.2,15-10.1,22.7-15c7.7-4.8,15.4-9.5,23.3-14C1818.3,1440.1,1826.3,1435.7,1834.5,1431.8z
	 M1800.5,1423.8c-5.5,6.3-11.3,12.2-17.2,18c-5.9,5.8-12,11.4-18.1,16.9c-6.2,5.5-12.4,10.9-18.9,16.1c-3.5,2.9-7.1,5.7-10.7,8.4
	c-0.7-0.3-1.5-0.6-2.2-0.9c3.4-3.6,6.8-7,10.3-10.4c5.9-5.8,12-11.4,18.1-16.9c6.2-5.5,12.4-10.9,18.9-16.1
	C1787.1,1433.6,1793.6,1428.5,1800.5,1423.8z M1748.9,1436.1c4.7-5.6,9.4-11.1,14.6-16.3c-3.5,6.5-7.4,12.6-11.4,18.7
	c-4,6.1-8.2,12-12.6,17.8c-4.3,5.8-8.8,11.6-13.4,17.2c-1.5,1.8-2.9,3.5-4.4,5.2c-1-0.3-2.1-0.5-3.1-0.7c1.4-2.3,2.9-4.6,4.4-6.8
	c4-6.1,8.2-12,12.6-17.8C1739.8,1447.4,1744.3,1441.7,1748.9,1436.1z"/>
<path d="M1636.5,757.8c4.7-0.2,8.7,2.1,12.3,4.1c2.3,1.3,4.8,2.7,6.3,2.7l0.1,0c1.3,0,3.8-1.7,5.9-3.1c3.5-2.3,7.5-5,12.4-5.1l0.2,0
	c4.6,0,8.6,2.4,12,4.6c2.2,1.4,4.8,2.9,6.2,2.9c1.4,0,3.9-1.6,6.1-2.9c3.5-2.2,7.5-4.7,12.2-4.6c4.8,0.1,8.8,2.7,12.3,5.1
	c2,1.3,4.5,3,5.7,3c1.4,0,4-1.4,6.3-2.7c3.6-2.1,7.6-4.4,12.3-4.2c4.9,0.3,8.8,3.1,12.2,5.6c1.9,1.4,4.3,3.1,5.5,3.2
	c1.5,0.1,4.2-1.3,6.5-2.5c3.6-1.9,7.8-4.1,12.3-3.6c5,0.5,8.8,3.6,12.1,6.3c1.7,1.4,4,3.3,5.2,3.4c1.6,0.2,4.5-1,6.9-2.1
	c3.7-1.7,7.9-3.5,12.4-2.8c5.3,0.9,9.1,4.6,12.2,7.6c1.4,1.3,3.5,3.4,4.4,3.6c2.2,0.5,5.3-0.3,8.4-1.1c2.1-0.5,4.2-1.1,6.3-1.3
	l1.5,11.3l-0.1,0.1l0.1,0l0,0c-0.9-0.1-3.3,0.5-4.9,1c-4,1-8.9,2.3-14,1.1c-4-1-6.9-3.8-9.7-6.5c-2.1-2-4.4-4.2-6.1-4.5
	c-1-0.2-3.9,1.1-5.8,1.9c-3.9,1.7-8.2,3.7-13.1,3c-4.4-0.6-7.9-3.4-11-5.9c-2.1-1.7-4.5-3.6-6-3.8c-1.2-0.1-3.9,1.3-5.9,2.4
	c-3.7,1.9-7.9,4.1-12.7,3.8c-4.5-0.3-8.2-3-11.5-5.4c-2.1-1.6-4.6-3.3-6-3.4c-1.2-0.1-3.8,1.4-5.9,2.6c-3.6,2.1-7.7,4.4-12.4,4.3
	c-4.6-0.2-8.4-2.7-11.8-5c-2.1-1.4-4.7-3.1-6.1-3.1h0c-1.3,0-3.8,1.6-5.9,2.9c-3.5,2.2-7.5,4.7-12.2,4.7c-4.7,0-8.7-2.5-12.3-4.7
	c-2.1-1.3-4.7-2.9-6-2.9c-1.5,0-4,1.7-6.2,3.2c-3.4,2.3-7.3,4.8-11.8,5c-4.8,0.2-8.9-2.2-12.5-4.2c-2.1-1.2-4.7-2.7-6-2.6
	c-1.5,0.1-4,1.9-6.2,3.4c-0.8,0.6-1.7,1.2-2.6,1.8l1.7,15.4c19.2-1.1,40.1-1.7,61.9-1.7c92.3,0,167.1,10.8,167.1,24.2
	c0,0.9-0.3,1.8-1,2.6c-0.7-0.9-1.6-1.7-2.6-2.4c-0.3-0.2-0.6-0.4-0.8-0.7c-8.3-9.5-72.9-19.8-162.7-19.8c-21.3,0-42.1,0.6-61.5,1.7
	l14.7,133.5c0.5-10.1,0.9-20.2,1.5-30.3c1.7-29.8,3.7-59.6,6.8-89.4c1.5,29.9,1.8,59.8,1.8,89.6c0,29.9-0.5,59.7-1.3,89.5
	c-0.1,5.3-0.3,10.7-0.5,16l5.6,51.1c0.1,1-0.1,1.9-0.7,2.7c3.9,3,5.9,6.2,6,9.7l6.8,52.3c0.2,0.7,0.2,1.4,0.2,2
	c0,5.1-3.2,12.1-25.6,19.2c-0.7,8.6-1.5,17.2-2.4,25.8c-0.4-8.2-0.7-16.5-1-24.7c-6.4,1.9-14.2,3.7-23.6,5.6
	c-6.8,1.3-14.2,2.6-22.2,3.7c-0.7,5.8-1.5,11.6-2.3,17.4c-0.1-5.7-0.1-11.4-0.1-17.1c-13.8,1.9-29.1,3.6-45.4,5
	c-0.8,5.4-1.6,10.7-2.5,16.1c0-5.3,0.1-10.6,0.2-15.9c-13.8,1.1-28.2,2-43.2,2.7c-1.3,7.4-2.6,14.8-4,22.3c0.3-7.4,0.6-14.8,1-22.1
	c-0.7,0-1.3,0.1-2,0.1v37.6c10.4-3.1,23.7-6,39.8-8.5c41.1-6.4,95.7-10,153.7-10s112.6,3.5,153.7,10c20.1,3.2,36,6.8,47.2,11
	c4.1,1.5,7.5,3.1,10.3,4.7l-42.3-384.3c1.8-1.6,2.8-3.2,2.8-4.9c0-0.3-0.1-0.7-0.1-1l-5.2-40.5c0-14.4-74.5-26-166.3-26
	c-23.6,0-46.1,0.8-66.4,2.2l1.4,12.5C1629.7,759.6,1632.8,758,1636.5,757.8z M1695.8,1076.5c-0.9,30.4-2,60.8-4.3,91.3
	c-2.3-30.4-3.5-60.8-4.3-91.3c-0.8-30.4-1.2-60.8-1.2-91.3c0-30.4,0.4-60.8,1.2-91.3c0.9-30.4,2-60.8,4.3-91.3
	c2.3,30.4,3.4,60.8,4.3,91.3c0.8,30.4,1.2,60.8,1.2,91.3C1697,1015.7,1696.6,1046.1,1695.8,1076.5z M1740.5,1165.8
	c-3.1-29.8-5.1-59.6-6.8-89.4c-1.6-29.8-2.8-59.6-3.7-89.5c-0.8-29.8-1.3-59.7-1.3-89.5c0-29.9,0.4-59.7,1.8-89.6
	c3.1,29.8,5.1,59.6,6.8,89.4c1.6,29.8,2.8,59.6,3.7,89.5c0.8,29.8,1.3,59.7,1.3,89.5C1742.3,1106,1742,1135.9,1740.5,1165.8z
	 M1789.5,1167.8c-4.1-29.9-7.1-59.8-9.8-89.7c-2.6-30-4.8-59.9-6.7-89.9c-1.8-30-3.3-60-4.3-90.1c-1-30.1-1.7-60.1-1.2-90.3
	c4.1,29.9,7.1,59.8,9.8,89.7c2.6,30,4.8,59.9,6.7,89.9c1.8,30,3.3,60,4.3,90.1C1789.3,1107.5,1790,1137.6,1789.5,1167.8z
	 M1825.7,1081.9c-3.3-30-6.2-60.1-8.7-90.2c-2.5-30.1-4.6-60.2-6.3-90.3c-1.6-30.2-3-60.3-3.2-90.6c4.8,29.9,8.4,59.9,11.8,89.9
	c3.3,30,6.2,60.1,8.7,90.2c2.5,30.1,4.6,60.2,6.3,90.3c1.6,30.2,3,60.3,3.2,90.6C1832.7,1141.9,1829.1,1111.9,1825.7,1081.9z
	 M1869.5,997.6c3.4,30.4,6.5,60.9,9.1,91.4c2.6,30.5,4.8,61.1,6,91.7c-5.7-30.2-10.3-60.4-14.5-90.8c-4.2-30.3-8-60.7-11.4-91.1
	c-3.4-30.4-6.5-60.9-9.1-91.4c-2.5-30.5-4.8-61.1-6-91.7c5.7,30.2,10.2,60.5,14.5,90.8C1862.3,936.8,1866,967.2,1869.5,997.6z"/>
<path d="M387.1,670.2l-42.3,384.3c2.8-1.6,6.2-3.2,10.3-4.7c11.2-4.1,27-7.8,47.2-11c41.1-6.4,95.7-10,153.7-10s112.6,3.5,153.7,10
	c20.1,3.2,36,6.8,47.2,11c4.4,1.6,8,3.3,11,5.1l-43.4-384.3c2.1-1.7,3.3-3.4,3.3-5.2c0-0.3-0.1-0.7-0.1-1l-5.2-40.5
	c0-14.4-74.5-26-166.3-26s-166.3,11.7-166.3,26l-5.2,40.5c-0.1,0.3-0.1,0.7-0.1,1C384.3,667,385.3,668.7,387.1,670.2z M398.5,758.5
	c-2.6,30.5-5.7,61-9.1,91.4c-3.4,30.4-7.2,60.8-11.4,91.1c-4.3,30.3-8.8,60.6-14.5,90.8c1.1-30.7,3.4-61.2,6-91.7
	c2.6-30.5,5.7-61,9.1-91.4c3.4-30.4,7.2-60.8,11.4-91.1c4.3-30.3,8.8-60.6,14.5-90.8C403.4,697.4,401.1,728,398.5,758.5z
	 M437.3,752.4c-1.7,30.1-3.8,60.3-6.3,90.3c-2.5,30.1-5.4,60.1-8.7,90.2c-3.4,30-7,60-11.8,89.9c0.2-30.3,1.6-60.5,3.2-90.6
	c1.7-30.1,3.8-60.3,6.3-90.3c2.5-30.1,5.4-60.1,8.7-90.2c3.4-30,7-60,11.8-89.9C440.3,692,438.9,722.2,437.3,752.4z M479.3,749
	c-1,30-2.5,60.1-4.3,90.1c-1.8,30-4,60-6.7,89.9c-2.7,29.9-5.7,59.9-9.8,89.7c-0.5-30.1,0.2-60.2,1.2-90.3c1-30,2.5-60.1,4.3-90.1
	c1.8-30,4-60,6.7-89.9c2.7-29.9,5.7-59.9,9.8-89.7C481,688.9,480.3,719,479.3,749z M518,837.9c-0.8,29.8-2,59.7-3.7,89.5
	c-1.7,29.8-3.7,59.6-6.8,89.4c-1.5-29.9-1.8-59.8-1.8-89.6c0-29.9,0.5-59.7,1.3-89.5c0.8-29.8,2-59.7,3.7-89.5
	c1.7-29.8,3.7-59.6,6.8-89.4c1.5,29.9,1.8,59.8,1.8,89.6C519.3,778.2,518.8,808.1,518,837.9z M560.8,927.5
	c-0.9,30.4-2,60.8-4.3,91.3c-2.3-30.4-3.5-60.8-4.3-91.3c-0.8-30.4-1.2-60.8-1.2-91.3c0-30.4,0.4-60.8,1.2-91.3
	c0.9-30.4,2-60.8,4.3-91.3c2.3,30.4,3.4,60.8,4.3,91.3c0.8,30.4,1.2,60.8,1.2,91.3C562,866.7,561.6,897.1,560.8,927.5z
	 M604.5,1016.8c-3.1-29.8-5.1-59.6-6.8-89.4c-1.6-29.8-2.8-59.6-3.7-89.5c-0.8-29.8-1.3-59.7-1.3-89.5c0-29.9,0.4-59.7,1.8-89.6
	c3.1,29.8,5.1,59.6,6.8,89.4c1.6,29.8,2.8,59.6,3.7,89.5c0.8,29.8,1.3,59.7,1.3,89.5C606.3,957,606,986.9,604.5,1016.8z
	 M653.5,1018.8c-4.1-29.9-7.1-59.8-9.8-89.7c-2.6-30-4.8-59.9-6.7-89.9c-1.8-30-3.3-60-4.3-90.1c-1-30.1-1.7-60.1-1.2-90.3
	c4.1,29.9,7.1,59.8,9.8,89.7c2.6,30,4.8,59.9,6.7,89.9c1.8,30,3.3,60,4.3,90.1C653.3,958.5,654,988.6,653.5,1018.8z M689.7,932.9
	c-3.3-30-6.2-60.1-8.7-90.2c-2.5-30.1-4.6-60.2-6.3-90.3c-1.6-30.2-3-60.3-3.2-90.6c4.8,29.9,8.4,59.9,11.8,89.9
	c3.3,30,6.2,60.1,8.7,90.2c2.5,30.1,4.6,60.2,6.3,90.3c1.6,30.2,3,60.3,3.2,90.6C696.7,992.9,693.1,962.9,689.7,932.9z M733.5,848.6
	c3.4,30.4,6.5,60.9,9.1,91.4c2.6,30.5,4.8,61.1,6,91.7c-5.7-30.2-10.3-60.4-14.5-90.8c-4.2-30.3-8-60.7-11.4-91.1
	c-3.4-30.4-6.5-60.9-9.1-91.4c-2.5-30.5-4.8-61.1-6-91.7c5.7,30.2,10.2,60.5,14.5,90.8C726.3,787.8,730,818.2,733.5,848.6z
	 M395.1,636.5L395.1,636.5l0-0.2l1.5-11.3c2.1,0.2,4.2,0.7,6.3,1.3c3,0.8,6.1,1.6,8.4,1.1c0.9-0.2,3-2.2,4.4-3.6
	c3.1-3,6.9-6.7,12.2-7.6c4.5-0.8,8.7,1.1,12.4,2.8c2.5,1.1,5.3,2.3,6.9,2.1c1.1-0.1,3.5-2,5.2-3.4c3.4-2.7,7.2-5.8,12.1-6.3
	c4.6-0.4,8.7,1.7,12.3,3.6c2.3,1.2,5,2.6,6.5,2.5c1.2-0.1,3.6-1.8,5.5-3.2c3.4-2.5,7.3-5.3,12.2-5.6c4.6-0.2,8.7,2.1,12.3,4.2
	c2.3,1.3,4.9,2.8,6.3,2.7c1.3,0,3.7-1.7,5.7-3c3.5-2.4,7.5-5,12.3-5.1c4.7-0.1,8.7,2.4,12.2,4.6c2.2,1.4,4.7,2.9,6.1,2.9
	c1.5,0,4-1.6,6.2-2.9c3.5-2.2,7.4-4.6,12-4.6l0.2,0c4.8,0.1,8.8,2.7,12.4,5.1c2,1.3,4.5,3,5.9,3.1l0.1,0c1.5,0,4.1-1.5,6.3-2.7
	c3.6-2.1,7.7-4.4,12.3-4.1c4.9,0.3,8.8,3.1,12.3,5.6c1.9,1.4,4.4,3.1,5.6,3.2c1.6,0.1,4.3-1.3,6.7-2.5c3.7-1.9,7.8-4,12.4-3.6
	c5,0.5,8.8,3.6,12.2,6.3c1.8,1.5,4.1,3.3,5.3,3.4c1.7,0.2,4.6-1,7.1-2.1c3.7-1.6,8-3.5,12.4-2.7c5.3,0.9,9.2,4.7,12.3,7.7
	c1.4,1.3,3.5,3.4,4.4,3.6c2.4,0.6,5.6-0.2,8.7-0.9c1.6-0.4,3.2-0.7,4.8-1l1.3,11.5c-1.1,0.2-2.4,0.5-3.4,0.7c-2.8,0.6-6,1.4-9.4,1.4
	c-1.6,0-3.2-0.2-4.8-0.6c-3.9-1-6.8-3.8-9.6-6.5c-2.2-2.1-4.5-4.3-6.3-4.6c-1-0.2-3.8,1-5.9,1.9c-3.9,1.7-8.3,3.6-13.2,3
	c-4.4-0.6-7.9-3.4-11-5.9c-2.1-1.7-4.6-3.7-6.2-3.8c-1.2-0.1-3.9,1.2-6,2.3c-3.7,1.9-8,4.1-12.8,3.7c-4.5-0.3-8.2-3-11.5-5.4
	c-2.2-1.6-4.7-3.4-6.2-3.4c-1.3-0.1-3.9,1.4-6,2.6c-3.6,2.1-7.7,4.4-12.5,4.2c-4.6-0.2-8.4-2.7-11.8-5c-2.2-1.5-4.7-3.1-6.2-3.2
	c-1.3,0-3.9,1.6-6,2.9c-3.5,2.2-7.6,4.7-12.3,4.7c-4.7,0-8.7-2.5-12.2-4.7c-2-1.3-4.6-2.9-5.9-2.9h0c-1.4,0-4,1.8-6.1,3.1
	c-3.4,2.3-7.2,4.8-11.8,5c-4.7,0.2-8.8-2.2-12.4-4.3c-2.1-1.2-4.7-2.7-5.9-2.6c-1.5,0.1-3.9,1.8-6,3.4c-3.3,2.4-7,5.1-11.5,5.4
	c-4.8,0.3-9-1.8-12.7-3.8c-2-1-4.7-2.5-5.9-2.4c-1.5,0.1-3.9,2.1-6,3.8c-3.1,2.5-6.6,5.3-11,5.9c-4.8,0.6-9.2-1.3-13.1-3
	c-1.9-0.8-4.7-2.1-5.8-1.9c-1.8,0.3-4.1,2.6-6.1,4.5c-2.8,2.7-5.7,5.5-9.7,6.5c-5,1.2-10-0.1-14-1.1
	C398.4,637.1,396,636.5,395.1,636.5L395.1,636.5z M556,639.2c92.3,0,167.1,10.8,167.1,24.2c0,0.9-0.3,1.7-0.9,2.5
	c-0.7-0.7-1.4-1.4-2.3-1.9c-0.4-0.2-0.7-0.6-1-0.9c-2.9-3.8-18.1-9.4-51.7-13.8c-30.5-4-70-6.2-111.2-6.2
	c-89.8,0-154.4,10.3-162.7,19.8c-0.2,0.3-0.5,0.5-0.8,0.7c-1,0.6-1.8,1.5-2.6,2.4c-0.6-0.9-1-1.7-1-2.6
	C388.9,650,463.7,639.2,556,639.2z"/>
<path d="M932.3,1454.5c1.2,0.2,2.5,0.3,3.7,0.3c13,0,23.5-9.6,23.5-21.5s-10.5-21.5-23.5-21.5c-1.3,0-2.5,0.1-3.7,0.3
	c-1.8-2-4-3.8-6.3-5.3v-39h9.5v-34H928c-1.9-3-4.9-5.5-8.5-7.1v-10.7c7.6-5.4,13-17.7,13-32.2c0-19.3-9.6-35-21.5-35
	s-21.5,15.7-21.5,35c0,13.8,4.9,25.7,12,31.4v11.5c-3.6,1.6-6.5,4.1-8.5,7.1h-8.5v34H895v37.3c-10.4,5.2-17.5,15.9-17.5,28.2
	c0,4.8,1.1,9.4,3,13.5h-23.1c-2.8-3.8-6.3-7-10.5-9.2v-37.8h10.5v-34H850c-1.9-3-4.9-5.5-8.5-7.1v-10.7c7.6-5.4,13-17.7,13-32.2
	c0-19.3-9.6-35-21.5-35s-21.5,15.7-21.5,35c0,13.8,4.9,25.7,12,31.4v11.5c-3.6,1.6-6.5,4.1-8.5,7.1h-8.5v34h9.5v38.4
	c-9.3,5.5-15.5,15.6-15.5,27.1s6.2,21.7,15.5,27.1v150.9c0,77.4-36,146.6-92,191.7c-84.6-5-152-75.4-152-161.2v-213.3
	c10.4-2,17.5-6,17.5-10.7c0-3.6-4.3-6.9-11-9.1v-15.9c13.7-2.8,23-8.2,23-14.5c0-1-0.3-2.1-0.8-3.1c22.7-7.8,37.8-21.6,37.8-37.4
	c0-11-7.3-21-19.4-28.8c17.7-5.1,31.1-12.3,37.8-20.7c3.3-4.1,8-6.7,13.2-7.6c32.8-5.6,53.4-13.6,53.4-22.5
	c0-13.4-46.9-24.8-112-28.9v-106.7c96.6-3.9,168-17.6,168-33.9c0-0.4-0.1-0.9-0.2-1.3l-6.8-52.7c0-18.7-96.9-33.9-216.5-33.9
	s-216.5,15.2-216.5,33.9l-6.8,52.7c-0.1,0.4-0.2,0.9-0.2,1.3c0,16.6,73.9,30.5,173,34.1v106.5c-65.1,4.1-112,15.5-112,28.9
	c0,8.9,20.6,16.9,53.4,22.5c5.2,0.9,9.9,3.5,13.2,7.6c6.8,8.5,20.5,15.8,38.5,20.9c-11.9,7.7-19,17.7-19,28.6
	c0,15.2,14,28.6,35.3,36.5c-0.8,1.3-1.3,2.6-1.3,4c0,6.3,9.3,11.7,23,14.5v15.9c-6.7,2.2-11,5.4-11,9.1c0,4.4,6.2,8.2,15.5,10.3
	v213.7c0,89.7,61.6,165.2,144.7,186.5c-34.5,18.5-73.9,29-115.7,29c-135.6,0-246-110.4-246-246v-33.8c10.4-2,17.5-6,17.5-10.7
	c0-3.6-4.3-6.9-11-9.1v-15.9c13.7-2.8,23-8.2,23-14.5c0-1-0.3-2.1-0.8-3.1c22.7-7.8,37.8-21.6,37.8-37.4c0-11-7.3-21-19.4-28.8
	c17.7-5.1,31.1-12.3,37.8-20.7c3.3-4.1,8-6.7,13.2-7.6c32.8-5.6,53.4-13.6,53.4-22.5c0-13.4-46.9-24.8-112-28.9v-106.7
	c11.7-0.5,23.1-1.1,34-1.8c-2.6-1.7-4.6-3.6-6-5.5c-9.1,0.5-18.4,1-28.1,1.4v-61c60.2,2.3,110.1,8.2,138,16.1v-16.7
	c-0.2,0-0.3,0-0.5,0c-2,0-4.1-0.2-6.2-0.7c-5.1-1.3-8.9-5-12.5-8.5c-2.8-2.8-5.8-5.6-8.2-6c-1.3-0.2-5,1.3-7.6,2.5
	c-5.1,2.2-10.8,4.7-17.1,3.9c-5.7-0.7-10.3-4.4-14.3-7.6c-2.8-2.2-6-4.8-8-5c-1.6-0.2-5.1,1.6-7.8,3.1c-4.9,2.5-10.4,5.3-16.6,4.9
	c-5.9-0.4-10.7-3.9-15-7c-2.8-2-6.1-4.4-8-4.5c-1.7-0.1-5.1,1.9-7.9,3.4c-4.7,2.7-10.1,5.7-16.3,5.5c-6-0.2-11-3.5-15.4-6.5
	c-2.9-1.9-6.2-4.1-8.1-4.1c-1.7-0.1-5.1,2.1-7.8,3.7c-4.6,2.8-9.8,6.1-16,6.1c-6.1,0-11.3-3.2-15.9-6.1c-2.7-1.7-6-3.7-7.6-3.7h0
	c-1.8,0-5.2,2.3-7.9,4.1c-4.4,2.9-9.4,6.3-15.3,6.5c-6.2,0.2-11.5-2.9-16.2-5.6c-2.7-1.6-6.1-3.5-7.7-3.4c-1.9,0.1-5.1,2.4-7.9,4.4
	c-4.2,3.1-9.1,6.6-14.9,7c-6.2,0.5-11.7-2.4-16.5-4.9c-2.6-1.4-6.1-3.2-7.7-3.1c-2,0.2-5.1,2.7-7.9,4.9c-4,3.2-8.6,6.9-14.3,7.6
	c-6.3,0.8-12-1.7-17-4c-2.5-1.1-6.2-2.8-7.5-2.5c-2.3,0.4-5.3,3.3-8,5.9c-3.7,3.5-7.5,7.2-12.6,8.5c-6.5,1.6-13-0.1-18.2-1.4
	c-2.1-0.5-5.2-1.3-6.4-1.2l0,0l0.1,0l-0.1-0.2l1.9-14.7c2.7,0.2,5.5,0.9,8.2,1.6c3.9,1,8,2.1,10.9,1.4c1.2-0.3,3.9-2.9,5.7-4.7
	c4-3.9,9-8.7,15.9-9.9c5.8-1,11.3,1.4,16.1,3.6c3.2,1.4,6.9,3.1,9,2.8c1.5-0.2,4.5-2.6,6.8-4.4c4.4-3.5,9.3-7.5,15.8-8.2
	c6-0.6,11.3,2.2,16.1,4.7c3.1,1.6,6.5,3.4,8.5,3.3c1.6-0.1,4.7-2.4,7.2-4.2c4.5-3.3,9.6-6.9,15.9-7.3c6-0.3,11.3,2.7,16,5.4
	c3,1.7,6.3,3.6,8.2,3.6c1.7-0.1,4.9-2.2,7.5-4c4.6-3.1,9.7-6.5,16-6.6c6.1-0.1,11.3,3.1,15.9,6c2.9,1.8,6.1,3.8,8,3.8
	c1.9,0,5.2-2,8.1-3.8c4.5-2.8,9.7-6,15.7-6c0.1,0,0.2,0,0.3,0c6.3,0.1,11.5,3.6,16.1,6.6c2.6,1.7,5.9,3.9,7.6,4l0.1,0
	c2,0,5.3-1.9,8.3-3.6c4.7-2.7,10-5.7,16.1-5.4c6.4,0.3,11.5,4,16,7.3c2.5,1.8,5.7,4.1,7.3,4.2c2.1,0.2,5.6-1.7,8.7-3.3
	c4.8-2.5,10.2-5.2,16.2-4.6c6.5,0.6,11.5,4.7,15.9,8.2c2.4,1.9,5.3,4.3,6.9,4.5c2.2,0.3,5.9-1.3,9.2-2.8c4.9-2.1,10.4-4.5,16.2-3.5
	c7,1.2,12,6.1,16.1,10.1c1.8,1.8,4.5,4.4,5.8,4.7c0.9,0.2,1.9,0.3,3,0.3v-20.6c-35.6-11.1-108.9-18.7-193.5-18.7
	c-119.6,0-216.5,15.2-216.5,33.9l-6.8,52.7c-0.1,0.4-0.2,0.9-0.2,1.3c0,16.6,73.9,30.5,173,34.1v106.5c-65.1,4.1-112,15.5-112,28.9
	c0,8.9,20.6,16.9,53.4,22.5c5.2,0.9,9.9,3.5,13.2,7.6c6.8,8.5,20.5,15.8,38.5,20.9c-11.9,7.7-19,17.7-19,28.6
	c0,15.2,14,28.6,35.3,36.5c-0.8,1.3-1.3,2.6-1.3,4c0,6.3,9.3,11.7,23,14.5v15.9c-6.7,2.2-11,5.4-11,9.1c0,4.4,6.2,8.2,15.5,10.3
	v34.2c0,74,28.8,143.6,81.1,195.9s121.9,81.1,195.9,81.1c60,0,117-19,164.4-54c105.7-0.5,191.6-86.6,191.6-192.5v-214
	C928.3,1458.3,930.4,1456.5,932.3,1454.5z M891.5,1362.8v-26h13v26H891.5z M886.9,1422c2.4-7.1,7.3-11.8,10.9-10.6
	c3.7,1.2,4.7,8,2.3,15s-7.3,11.8-10.9,10.6C885.5,1435.8,884.5,1429.1,886.9,1422z M845.5,1368.8h6v26h-6V1368.8z M847,1643.3V1493
	c5.2-2.8,9.5-7.1,12.4-12.2H895v193c0,74.8-51.2,137.9-120.4,156.2C821.4,1778.8,847,1713,847,1643.3z M840.3,1286.5
	c2.2,2,3.9,4.5,5.3,7.1c2.7,5.3,4,11,4.5,16.8c0.4,5.8,0,11.6-1.6,17.2c-1.5,5.6-4.1,11-8,15.1c2.1-5.3,3.4-10.5,4.1-15.9
	c0.7-5.3,0.8-10.7,0.4-16.1c-0.4-5.3-1.3-10.6-3.1-15.6c-0.9-2.5-2-4.9-3.5-7.1c-1.5-2.2-3.4-4-6-5.3
	C835.4,1283,838.1,1284.4,840.3,1286.5z M828.5,1399.8h6v34.1c-0.8-0.1-1.7-0.1-2.5-0.1c-1.2,0-2.4,0.1-3.5,0.2V1399.8z
	 M813.5,1394.8v-26h13v26H813.5z M810.1,1465.4c-3.4-1.8-3.8-8-0.8-13.9c3-5.9,8.2-9.3,11.7-7.5c3.4,1.8,3.8,8,0.8,13.9
	C818.7,1463.8,813.5,1467.2,810.1,1465.4z M828.5,1643.3v-146.7c1.1,0.1,2.3,0.2,3.5,0.2c0.8,0,1.7,0,2.5-0.1v146.6
	c0,70.7-27.5,137.1-77.5,187c-1.3,1.3-2.6,2.5-3.9,3.8c-3.3,0.4-6.6,0.7-9.9,0.9C795.6,1787.6,828.5,1719.2,828.5,1643.3z
	 M583.6,1406.4c-0.2,1-1.1,1.6-2,1.4l0,0l-2.9-0.6l0,0l0,0c-1-0.2-1.6-1.2-1.4-2.1c0.2-1,1.2-1.6,2.1-1.4l3,0.7
	C583.2,1404.6,583.8,1405.5,583.6,1406.4z M577.8,1323.2c-0.6,1.2-1.2,2.4-1.7,3.5c-1.1-0.1-2.3-0.3-3.4-0.4c0.5-1.6,1-3.1,1.6-4.7
	c2.2-6.2,4.5-12.4,7-18.5c2.5-6.1,5.2-12.1,8-18c2.9-5.9,5.8-11.8,9.3-17.5c-1.5,6.5-3.5,12.8-5.7,19c-2.2,6.2-4.5,12.4-7,18.5
	C583.3,1311.3,580.7,1317.3,577.8,1323.2z M574.9,1404.7c-0.1,1-1.1,1.8-2.1,1.7l0,0l-2.9-0.4l-0.1,0l0,0c-1.1-0.1-1.8-1.1-1.6-2.2
	c0.1-1.1,1.1-1.8,2.2-1.6l3,0.4C574.3,1402.7,575.1,1403.7,574.9,1404.7z M579.5,1260v-173.1c5.1,0.1,10.1,0.2,15,0.3v173.3
	C589.6,1260.3,584.6,1260.1,579.5,1260z M592.1,1408.7c-0.2,0.8-1.1,1.3-1.9,1.1l0,0l-2.9-0.7l0,0l-0.1,0c-0.9-0.3-1.3-1.2-1.1-2.1
	c0.3-0.9,1.2-1.3,2.1-1.1l2.9,0.9C591.8,1407.1,592.3,1407.9,592.1,1408.7z M600.4,1411.5c-0.2,0.7-1,1.1-1.6,0.8l0,0l-2.8-0.9l0,0
	l-0.1,0c-0.7-0.3-1.1-1.1-0.8-1.8c0.3-0.7,1.1-1.1,1.8-0.8l2.8,1.1C600.2,1410.2,600.6,1410.9,600.4,1411.5z M621.9,1350.5
	c2.8,2.6,5.3,5.8,6.9,9.5c0.8,1.9,1.5,3.8,1.8,5.9c0.1,0.5,0.2,1,0.2,1.5l0.1,1.6l0,0.8l0,0.8l-0.1,1.6c-0.4,4.2-1.9,8.1-4.1,11.4
	c-2.2,3.3-4.9,6.1-7.9,8.5c-6,4.6-13,7.4-20.2,8.7c6.1-4,11.9-8,16.6-12.8c4.7-4.8,8.2-10.4,8.7-16.4c0.1-1.5,0.2-3-0.1-4.5
	c-0.1-1.5-0.6-3-1.1-4.4c-1.1-2.9-2.8-5.7-4.8-8.3c-4.2-5.2-9.7-9.6-15.6-13.9C609.4,1342,616.2,1345.3,621.9,1350.5z M703.5,1282.8
	c-7.1,5.7-14.5,11-22,16.2c-7.5,5.2-15,10.1-22.7,15c-7.7,4.8-15.4,9.5-23.3,14c-6.6,3.8-13.3,7.5-20.1,10.9
	c-0.3-0.2-0.6-0.3-0.8-0.5c6.1-4.8,12.5-9.3,18.9-13.7c7.5-5.2,15-10.1,22.7-15c7.7-4.8,15.4-9.5,23.3-14
	C687.3,1291.1,695.3,1286.7,703.5,1282.8z M669.5,1274.8c-5.5,6.3-11.3,12.2-17.2,18c-5.9,5.8-12,11.4-18.1,16.9
	c-6.2,5.5-12.4,10.9-18.9,16.1c-3.4,2.8-6.8,5.5-10.3,8.2c-0.8-0.3-1.5-0.6-2.3-0.9c3.3-3.5,6.7-6.8,10.1-10.2
	c5.9-5.8,12-11.4,18.1-16.9c6.2-5.5,12.4-10.9,18.9-16.1C656.1,1284.6,662.6,1279.5,669.5,1274.8z M617.9,1287.1
	c4.7-5.6,9.4-11.1,14.6-16.3c-3.5,6.5-7.4,12.6-11.4,18.7c-4,6.1-8.2,12-12.6,17.8c-4.3,5.8-8.8,11.6-13.4,17.2
	c-1.4,1.7-2.8,3.4-4.2,5c-1.1-0.3-2.1-0.5-3.2-0.7c1.4-2.2,2.8-4.4,4.3-6.6c4-6.1,8.2-12,12.6-17.8
	C608.8,1298.4,613.3,1292.7,617.9,1287.1z M773.5,1118.2c0,14.6-68.8,26.9-162,30.5v-61C704.7,1091.3,773.5,1103.6,773.5,1118.2z
	 M346.6,1083.2l0.1,0l-0.1-0.2l1.9-14.7c2.7,0.2,5.5,0.9,8.2,1.6c3.9,1,8,2.1,10.9,1.4c1.2-0.3,3.9-2.9,5.7-4.7
	c4-3.9,9-8.7,15.9-9.9c5.8-1,11.3,1.4,16.1,3.6c3.2,1.4,6.9,3.1,9,2.8c1.5-0.2,4.5-2.6,6.8-4.4c4.4-3.5,9.3-7.5,15.8-8.2
	c6-0.6,11.3,2.2,16.1,4.7c3.1,1.6,6.5,3.4,8.5,3.3c1.6-0.1,4.7-2.4,7.2-4.2c4.5-3.3,9.6-6.9,15.9-7.3c6-0.3,11.3,2.7,16,5.4
	c3,1.7,6.3,3.6,8.2,3.6c1.7-0.1,4.9-2.2,7.5-4c4.6-3.1,9.7-6.5,16-6.6c6.1-0.1,11.3,3.1,15.9,6c2.9,1.8,6.1,3.8,8,3.8
	c1.9,0,5.2-2,8.1-3.8c4.5-2.8,9.7-6,15.7-6c0.1,0,0.2,0,0.3,0c6.3,0.1,11.5,3.6,16.1,6.6c2.6,1.7,5.9,3.9,7.6,4l0.1,0
	c2,0,5.3-1.9,8.3-3.6c4.7-2.7,10-5.7,16.1-5.4c6.4,0.3,11.5,4,16,7.3c2.5,1.8,5.7,4.1,7.3,4.2c2.1,0.2,5.6-1.7,8.7-3.3
	c4.8-2.5,10.2-5.2,16.2-4.6c6.5,0.6,11.5,4.7,15.9,8.2c2.4,1.9,5.3,4.3,6.9,4.5c2.2,0.3,5.9-1.3,9.2-2.8c4.9-2.1,10.4-4.5,16.2-3.5
	c7,1.2,12,6.1,16.1,10.1c1.8,1.8,4.5,4.4,5.8,4.7c3.1,0.8,7.3-0.2,11.3-1.1c2-0.5,4.1-1,6.2-1.2l1.7,14.9c-1.4,0.2-3.1,0.6-4.5,0.9
	c-3.6,0.8-7.8,1.8-12.2,1.8c-2,0-4.1-0.2-6.2-0.7c-5.1-1.3-8.9-5-12.5-8.5c-2.8-2.8-5.8-5.6-8.2-6c-1.3-0.2-5,1.3-7.6,2.5
	c-5.1,2.2-10.8,4.7-17.1,3.9c-5.7-0.7-10.3-4.4-14.3-7.6c-2.8-2.2-6-4.8-8-5c-1.6-0.2-5.1,1.6-7.8,3.1c-4.9,2.5-10.4,5.3-16.6,4.9
	c-5.9-0.4-10.7-3.9-15-7c-2.8-2-6.1-4.4-8-4.5c-1.7-0.1-5.1,1.9-7.9,3.4c-4.7,2.7-10.1,5.7-16.3,5.5c-6-0.2-11-3.5-15.4-6.5
	c-2.9-1.9-6.2-4.1-8.1-4.1c-1.7-0.1-5.1,2.1-7.8,3.7c-4.6,2.8-9.8,6.1-16,6.1c-6.1,0-11.3-3.2-15.9-6.1c-2.7-1.7-6-3.7-7.6-3.7h0
	c-1.8,0-5.2,2.3-7.9,4.1c-4.4,2.9-9.4,6.3-15.3,6.5c-6.2,0.2-11.5-2.9-16.2-5.6c-2.7-1.6-6.1-3.5-7.7-3.4c-1.9,0.1-5.1,2.4-7.9,4.4
	c-4.2,3.1-9.1,6.6-14.9,7c-6.2,0.5-11.7-2.4-16.5-4.9c-2.6-1.4-6.1-3.2-7.7-3.1c-2,0.2-5.1,2.7-7.9,4.9c-4,3.2-8.6,6.9-14.3,7.6
	c-6.3,0.8-12-1.7-17-4c-2.5-1.1-6.2-2.8-7.5-2.5c-2.3,0.4-5.3,3.3-8,5.9c-3.7,3.5-7.5,7.2-12.6,8.5c-6.5,1.6-13-0.1-18.2-1.4
	C350.8,1084,347.7,1083.2,346.6,1083.2L346.6,1083.2z M529.5,1260.2v-173.3c7.6-0.1,15.2-0.2,23-0.2v173.1
	C544.7,1259.8,537,1260,529.5,1260.2z M548.1,1403.5c0.1,1.1-0.7,2-1.8,2.1l0,0l-2.9,0.3l0,0c-1.1,0.1-2-0.7-2.1-1.7
	c-0.1-1.1,0.7-2,1.7-2.1l3-0.3l0,0C547,1401.6,548,1402.4,548.1,1403.5z M552,1401.3l3-0.1l0,0c1.1,0,2,0.9,2,2c0,1.1-0.9,2-2,2
	l-0.1,0l-2.9,0l-0.1,0c-1.1,0-2-0.8-2-1.9C550.1,1402.3,550.9,1401.4,552,1401.3z M556.8,1325.8c-0.1-1.1-0.2-2.2-0.2-3.3
	c-0.4-6.1-0.5-12.2-0.5-18.3c0-6.1,0.2-12.2,0.5-18.3c0.4-6.1,0.9-12.2,2-18.3c1,6.1,1.6,12.2,2,18.3c0.4,6.1,0.5,12.2,0.5,18.3
	c0,6.1-0.2,12.2-0.5,18.3c-0.1,1.1-0.2,2.2-0.2,3.3c-0.4,0-0.8,0-1.2,0C558.3,1325.8,557.5,1325.8,556.8,1325.8z M561.2,1401.4
	l3,0.2c1.1,0.1,1.9,1,1.8,2c-0.1,1.1-1,1.9-2,1.9l0,0l-2.9-0.1l0,0l0,0c-1.1-0.1-1.9-1-1.8-2.1
	C559.2,1402.1,560.1,1401.3,561.2,1401.4z M338.5,1118.2c0-14.9,71.2-27.4,167-30.7v61.3C409.7,1145.6,338.5,1133.1,338.5,1118.2z
	 M467.3,1289.8c6.4,5.2,12.7,10.6,18.9,16.1c6.2,5.5,12.2,11.1,18.1,16.9c3.5,3.4,6.9,6.9,10.3,10.4c-0.8,0.3-1.5,0.6-2.2,0.9
	c-3.6-2.7-7.2-5.5-10.7-8.4c-6.4-5.2-12.7-10.6-18.9-16.1c-6.2-5.5-12.2-11.1-18.1-16.9c-5.9-5.8-11.7-11.7-17.2-18
	C454.4,1279.5,460.9,1284.6,467.3,1289.8z M481.5,1327.9c-7.9-4.5-15.6-9.2-23.3-14c-7.7-4.8-15.3-9.8-22.7-15
	c-7.5-5.1-14.8-10.4-22-16.2c8.2,4,16.2,8.3,24,12.8c7.9,4.5,15.6,9.2,23.3,14c7.7,4.8,15.2,9.8,22.7,15c6.5,4.5,13,9.1,19.3,14
	c-0.2,0.1-0.5,0.3-0.7,0.4C495.1,1335.5,488.2,1331.8,481.5,1327.9z M498.7,1383.6c3.4,4.9,8,9.3,13,13.6c-6.3-1.7-12.4-5-17.3-10.1
	c-2.4-2.5-4.5-5.5-5.8-9c-0.3-0.9-0.6-1.7-0.8-2.6c-0.3-0.9-0.4-1.8-0.6-2.7c-0.2-0.9-0.1-1.9-0.2-2.8c0-0.9,0.1-1.9,0.1-2.8
	c0.4-3.7,1.7-7.3,3.6-10.4c1.9-3.1,4.3-5.7,7-7.9c5.3-4.4,11.6-7.1,18-8.5c-5.2,4-10.2,7.9-14.2,12.5c-4,4.5-6.9,9.7-7.4,15
	C493.5,1373.2,495.3,1378.7,498.7,1383.6z M520.1,1410.3L520.1,1410.3l-2.9,0.8l0,0c-0.7,0.2-1.5-0.2-1.8-0.9
	c-0.3-0.8,0.1-1.6,0.9-1.9l2.9-1l0.1,0c0.8-0.2,1.7,0.2,1.9,1.1C521.4,1409.2,521,1410,520.1,1410.3z M508.5,1307.2
	c-4.3-5.8-8.5-11.8-12.6-17.8c-4-6.1-7.9-12.2-11.4-18.7c5.2,5.2,9.9,10.7,14.6,16.3c4.6,5.6,9.1,11.3,13.4,17.2
	c4.3,5.8,8.5,11.8,12.6,17.8c1.5,2.3,3,4.5,4.4,6.8c-1.1,0.2-2.1,0.5-3.1,0.7c-1.5-1.7-3-3.5-4.4-5.2
	C517.3,1318.8,512.8,1313.1,508.5,1307.2z M528.8,1408.2L528.8,1408.2l-2.9,0.7l0,0c-0.9,0.2-1.8-0.3-2-1.2
	c-0.2-0.9,0.3-1.8,1.2-2.1l2.9-0.8l0.1,0c0.9-0.2,1.9,0.4,2.1,1.3C530.3,1407,529.7,1408,528.8,1408.2z M524.2,1286.7
	c-2.1-6.2-4.2-12.5-5.7-19c3.5,5.7,6.5,11.6,9.3,17.5c2.8,5.9,5.5,12,8,18c2.5,6.1,4.8,12.2,7,18.5c0.5,1.6,1.1,3.2,1.6,4.7
	c-1.1,0.1-2.3,0.3-3.4,0.4c-0.6-1.2-1.2-2.4-1.8-3.7c-2.8-5.9-5.5-12-8-18C528.7,1299.1,526.3,1293,524.2,1286.7z M534.6,1407.1
	L534.6,1407.1c-1,0.2-1.9-0.5-2.1-1.5c-0.2-1,0.5-2,1.5-2.1l3-0.6l0.1,0c1-0.2,2,0.5,2.2,1.6c0.2,1-0.5,2-1.6,2.2l0,0L534.6,1407.1z
	 M534,1452.8c-1.4,0-2.5-1.1-2.5-2.5s1.1-2.5,2.5-2.5h46c1.4,0,2.5,1.1,2.5,2.5s-1.1,2.5-2.5,2.5H534z M335.6,1555.4
	c-0.2,1-1.1,1.6-2,1.4l0,0l-2.9-0.6l0,0l0,0c-1-0.2-1.6-1.2-1.4-2.1c0.2-1,1.2-1.6,2.1-1.4l3,0.7
	C335.2,1553.6,335.8,1554.5,335.6,1555.4z M344.1,1557.7c-0.2,0.8-1.1,1.3-1.9,1.1l0,0l-2.9-0.7l0,0l-0.1,0
	c-0.9-0.3-1.3-1.2-1.1-2.1c0.3-0.9,1.2-1.3,2.1-1.1l2.9,0.9C343.8,1556.1,344.3,1556.9,344.1,1557.7z M352.4,1560.5
	c-0.2,0.7-1,1.1-1.6,0.8l0,0l-2.8-0.9l0,0l-0.1,0c-0.7-0.3-1.1-1.1-0.8-1.8c0.3-0.7,1.1-1.1,1.8-0.8l2.8,1.1
	C352.2,1559.2,352.6,1559.9,352.4,1560.5z M373.9,1499.5c2.8,2.6,5.3,5.8,6.9,9.5c0.8,1.9,1.5,3.8,1.8,5.9c0.1,0.5,0.2,1,0.2,1.5
	l0.1,1.6l0,0.8l0,0.8l-0.1,1.6c-0.4,4.2-1.9,8.1-4.1,11.4c-2.2,3.3-4.9,6.1-7.9,8.5c-6,4.6-13,7.4-20.2,8.7c6.1-4,11.9-8,16.6-12.8
	c4.7-4.8,8.2-10.4,8.7-16.4c0.1-1.5,0.2-3-0.1-4.5c-0.1-1.5-0.6-3-1.1-4.4c-1.1-2.9-2.8-5.7-4.8-8.3c-4.2-5.2-9.7-9.6-15.6-13.9
	C361.4,1491,368.2,1494.3,373.9,1499.5z M455.5,1431.8c-7.1,5.7-14.5,11-22,16.2c-7.5,5.2-15,10.1-22.7,15
	c-7.7,4.8-15.4,9.5-23.3,14c-6.6,3.8-13.3,7.5-20.1,10.9c-0.3-0.2-0.6-0.3-0.8-0.5c6.1-4.8,12.5-9.3,18.9-13.7
	c7.5-5.2,15-10.1,22.7-15c7.7-4.8,15.4-9.5,23.3-14C439.3,1440.1,447.3,1435.7,455.5,1431.8z M421.5,1423.8
	c-5.5,6.3-11.3,12.2-17.2,18c-5.9,5.8-12,11.4-18.1,16.9c-6.2,5.5-12.4,10.9-18.9,16.1c-3.4,2.8-6.8,5.5-10.3,8.2
	c-0.8-0.3-1.5-0.6-2.3-0.9c3.3-3.5,6.7-6.8,10.1-10.2c5.9-5.8,12-11.4,18.1-16.9c6.2-5.5,12.4-10.9,18.9-16.1
	C408.1,1433.6,414.6,1428.5,421.5,1423.8z M356.5,1453.3c4.3-5.8,8.8-11.6,13.4-17.2c4.7-5.6,9.4-11.1,14.6-16.3
	c-3.5,6.5-7.4,12.6-11.4,18.7c-4,6.1-8.2,12-12.6,17.8c-4.3,5.8-8.8,11.6-13.4,17.2c-1.4,1.7-2.8,3.4-4.2,5
	c-1.1-0.3-2.1-0.5-3.2-0.7c1.4-2.2,2.8-4.4,4.3-6.6C348,1465,352.2,1459.1,356.5,1453.3z M331.5,1235.9c5.1,0.1,10.1,0.2,15,0.3
	v173.3c-4.9-0.2-9.9-0.4-15-0.5V1235.9z M326.2,1470.8c2.2-6.2,4.5-12.4,7-18.5c2.5-6.1,5.2-12.1,8-18c2.9-5.9,5.8-11.8,9.3-17.5
	c-1.5,6.5-3.5,12.8-5.7,19c-2.2,6.2-4.5,12.4-7,18.5c-2.5,6.1-5.2,12.1-8,18c-0.6,1.2-1.2,2.4-1.7,3.5c-1.1-0.1-2.3-0.3-3.4-0.4
	C325.1,1473.9,325.7,1472.3,326.2,1470.8z M320.1,1552.8c0.1-1.1,1.1-1.8,2.2-1.6l3,0.4c1,0.1,1.7,1.1,1.6,2.1
	c-0.1,1-1.1,1.8-2.1,1.7l0,0l-2.9-0.4l-0.1,0l0,0C320.7,1554.8,320,1553.8,320.1,1552.8z M316.2,1550.6c1.1,0.1,1.9,1,1.8,2
	c-0.1,1.1-1,1.9-2,1.9l0,0l-2.9-0.1l0,0l0,0c-1.1-0.1-1.9-1-1.8-2.1c0.1-1.1,1-1.9,2.1-1.8L316.2,1550.6z M308.5,1435
	c0.4-6.1,0.9-12.2,2-18.3c1,6.1,1.6,12.2,2,18.3c0.4,6.1,0.5,12.2,0.5,18.3c0,6.1-0.2,12.2-0.5,18.3c-0.1,1.1-0.2,2.2-0.2,3.3
	c-0.4,0-0.8,0-1.2,0c-0.7,0-1.5,0-2.2,0c-0.1-1.1-0.2-2.2-0.2-3.3c-0.4-6.1-0.5-12.2-0.5-18.3C308,1447.2,308.2,1441.1,308.5,1435z
	 M307.1,1550.3c1.1,0,2,0.9,2,2c0,1.1-0.9,2-2,2l-0.1,0l-2.9,0l-0.1,0c-1.1,0-2-0.8-2-1.9c0-1.1,0.8-2,1.9-2L307.1,1550.3
	L307.1,1550.3z M281.5,1235.9c7.6-0.1,15.2-0.2,23-0.2v173.1c-7.8,0.1-15.5,0.2-23,0.4V1235.9z M300.1,1552.5c0.1,1.1-0.7,2-1.8,2.1
	l0,0l-2.9,0.3l0,0c-1.1,0.1-2-0.7-2.1-1.7c-0.1-1.1,0.7-2,1.7-2.1l3-0.3l0,0C299,1550.6,300,1551.4,300.1,1552.5z M90.5,1267.2
	c0-14.9,71.2-27.4,167-30.7v61.3C161.7,1294.6,90.5,1282.1,90.5,1267.2z M219.3,1438.8c6.4,5.2,12.7,10.6,18.9,16.1
	c6.2,5.5,12.2,11.1,18.1,16.9c3.5,3.4,6.9,6.9,10.3,10.4c-0.8,0.3-1.5,0.6-2.2,0.9c-3.6-2.7-7.2-5.5-10.7-8.4
	c-6.4-5.2-12.7-10.6-18.9-16.1c-6.2-5.5-12.2-11.1-18.1-16.9c-5.9-5.8-11.7-11.7-17.2-18C206.4,1428.5,212.9,1433.6,219.3,1438.8z
	 M233.5,1476.9c-7.9-4.5-15.6-9.2-23.3-14c-7.7-4.8-15.3-9.8-22.7-15c-7.5-5.1-14.8-10.4-22-16.2c8.2,4,16.2,8.3,24,12.8
	c7.9,4.5,15.6,9.2,23.3,14c7.7,4.8,15.2,9.8,22.7,15c6.5,4.5,13,9.1,19.3,14c-0.2,0.1-0.5,0.3-0.7,0.4
	C247.1,1484.5,240.2,1480.8,233.5,1476.9z M250.7,1532.6c3.4,4.9,8,9.3,13,13.6c-6.3-1.7-12.4-5-17.3-10.1c-2.4-2.5-4.5-5.5-5.8-9
	c-0.3-0.9-0.6-1.7-0.8-2.6c-0.3-0.9-0.4-1.8-0.6-2.7c-0.2-0.9-0.1-1.9-0.2-2.8c0-0.9,0.1-1.9,0.1-2.8c0.4-3.7,1.7-7.3,3.6-10.4
	c1.9-3.1,4.3-5.7,7-7.9c5.3-4.4,11.6-7.1,18-8.5c-5.2,4-10.2,7.9-14.2,12.5c-4,4.5-6.9,9.7-7.4,15
	C245.5,1522.2,247.3,1527.7,250.7,1532.6z M272.1,1559.3L272.1,1559.3l-2.9,0.8l0,0c-0.7,0.2-1.5-0.2-1.8-0.9
	c-0.3-0.8,0.1-1.6,0.9-1.9l2.9-1l0.1,0c0.8-0.2,1.7,0.2,1.9,1.1C273.4,1558.2,273,1559,272.1,1559.3z M260.5,1456.2
	c-4.3-5.8-8.5-11.8-12.6-17.8c-4-6.1-7.9-12.2-11.4-18.7c5.2,5.2,9.9,10.7,14.6,16.3c4.6,5.6,9.1,11.3,13.4,17.2
	c4.3,5.8,8.5,11.8,12.6,17.8c1.5,2.3,3,4.5,4.4,6.8c-1.1,0.2-2.1,0.5-3.1,0.7c-1.5-1.7-3-3.5-4.4-5.2
	C269.3,1467.8,264.8,1462.1,260.5,1456.2z M280.8,1557.2L280.8,1557.2l-2.9,0.7l0,0c-0.9,0.2-1.8-0.3-2-1.2
	c-0.2-0.9,0.3-1.8,1.2-2.1l2.9-0.8l0.1,0c0.9-0.2,1.9,0.4,2.1,1.3C282.3,1556,281.7,1557,280.8,1557.2z M276.2,1435.7
	c-2.1-6.2-4.2-12.5-5.7-19c3.5,5.7,6.5,11.6,9.3,17.5c2.8,5.9,5.5,12,8,18c2.5,6.1,4.8,12.2,7,18.5c0.5,1.6,1.1,3.2,1.6,4.7
	c-1.1,0.1-2.3,0.3-3.4,0.4c-0.6-1.2-1.2-2.4-1.8-3.7c-2.8-5.9-5.5-12-8-18C280.7,1448.1,278.3,1442,276.2,1435.7z M286.6,1556.1
	L286.6,1556.1c-1,0.2-1.9-0.5-2.1-1.5c-0.2-1,0.5-2,1.5-2.1l3-0.6l0.1,0c1-0.2,2,0.5,2.2,1.6c0.2,1-0.5,2-1.6,2.2l0,0L286.6,1556.1z
	 M286,1601.8c-1.4,0-2.5-1.1-2.5-2.5s1.1-2.5,2.5-2.5h46c1.4,0,2.5,1.1,2.5,2.5s-1.1,2.5-2.5,2.5H286z M570,1907.8
	c-70.7,0-137.1-27.5-187-77.5c-50-50-77.5-116.4-77.5-187v-32.6c1.3,0.1,2.6,0.1,4,0.1c0.7,0,1.3,0,2,0v32.5
	c0,142.5,116,258.5,258.5,258.5c49.1,0,95.1-13.8,134.3-37.7c3.2,0.5,6.4,0.9,9.6,1.2C671.4,1892.9,621.9,1907.8,570,1907.8z
	 M913.5,1673.8c0,99.3-80.7,180-180,180s-180-80.7-180-180v-212.1c1.3,0.1,2.6,0.1,4,0.1c0.7,0,1.3,0,2,0v212
	c0,95.9,78.1,174,174,174s174-78.1,174-174v-209c0.5,0,1,0,1.5,0c1.5,0,3-0.1,4.5-0.3V1673.8z M913.5,1402.1c-1.5-0.2-3-0.3-4.5-0.3
	c-0.5,0-1,0-1.5,0v-34h6V1402.1z M923.1,1278.8c-0.4-5.3-1.3-10.6-3.1-15.6c-0.9-2.5-2-4.9-3.5-7.1c-1.5-2.2-3.4-4-6-5.3
	c2.9,0.2,5.6,1.7,7.8,3.7c2.2,2,3.9,4.5,5.3,7.1c2.7,5.3,4,11,4.5,16.8c0.4,5.8,0,11.6-1.6,17.2c-1.5,5.6-4.1,11-8,15.1
	c2.1-5.3,3.4-10.5,4.1-15.9C923.4,1289.5,923.5,1284.1,923.1,1278.8z M923.5,1362.8v-26h6v26H923.5z"/>
<path d="M107.1,1198.8c11.2-4.1,27-7.8,47.2-11c41.1-6.4,95.7-10,153.7-10s112.6,3.5,153.7,10c16.1,2.5,29.4,5.4,39.8,8.5v-37.6
	c-0.7,0-1.3-0.1-2-0.1c0.4,7.4,0.7,14.7,1,22.1c-1.4-7.4-2.7-14.8-4-22.3c-15-0.6-29.5-1.5-43.2-2.7c0.1,5.3,0.2,10.6,0.2,15.9
	c-0.9-5.4-1.7-10.7-2.5-16.1c-16.3-1.4-31.6-3-45.4-5c0,5.7,0,11.4-0.1,17.1c-0.8-5.8-1.6-11.6-2.3-17.4c-7.9-1.2-15.3-2.4-22.2-3.7
	c-9.4-1.8-17.2-3.7-23.6-5.6c-0.2,8.2-0.6,16.5-1,24.7c-0.9-8.6-1.7-17.2-2.4-25.8c-22.4-7.1-25.6-14.1-25.6-19.2
	c0-0.6,0.1-1.3,0.2-2l6.8-52.3c0.1-3.5,2.1-6.7,6-9.7c-0.5-0.8-0.8-1.7-0.7-2.7l5.6-51.1c-0.2-5.3-0.3-10.7-0.5-16
	c-0.8-29.8-1.3-59.7-1.3-89.5c0-29.9,0.4-59.7,1.8-89.6c3.1,29.8,5.1,59.6,6.8,89.4c0.6,10.1,1,20.2,1.5,30.3l14.7-133.5
	c-19.4-1.1-40.2-1.7-61.5-1.7c-89.8,0-154.4,10.3-162.7,19.8c-0.2,0.3-0.5,0.5-0.8,0.7c-1,0.6-1.8,1.5-2.6,2.4c-0.6-0.9-1-1.7-1-2.6
	c0-13.4,74.8-24.2,167.1-24.2c21.9,0,42.8,0.6,61.9,1.7l1.7-15.4c-0.9-0.6-1.7-1.2-2.6-1.8c-2.2-1.6-4.7-3.4-6.2-3.4
	c-1.3-0.1-3.9,1.4-6,2.6c-3.6,2.1-7.7,4.4-12.5,4.2c-4.6-0.2-8.4-2.7-11.8-5c-2.2-1.5-4.7-3.1-6.2-3.2c-1.3,0-3.9,1.6-6,2.9
	c-3.5,2.2-7.6,4.7-12.3,4.7c-4.7,0-8.7-2.5-12.2-4.7c-2-1.3-4.6-2.9-5.9-2.9h0c-1.4,0-4,1.8-6.1,3.1c-3.4,2.3-7.2,4.8-11.8,5
	c-4.7,0.2-8.8-2.2-12.4-4.3c-2.1-1.2-4.7-2.7-5.9-2.6c-1.5,0.1-3.9,1.8-6,3.4c-3.3,2.4-7,5.1-11.5,5.4c-4.8,0.3-9-1.8-12.7-3.8
	c-2-1-4.7-2.5-5.9-2.4c-1.5,0.1-3.9,2.1-6,3.8c-3.1,2.5-6.6,5.3-11,5.9c-4.8,0.6-9.2-1.3-13.1-3c-1.9-0.8-4.7-2.1-5.8-1.9
	c-1.8,0.3-4.1,2.6-6.1,4.5c-2.8,2.7-5.7,5.5-9.7,6.5c-5,1.2-10-0.1-14-1.1c-1.6-0.4-4-1-4.9-1l0,0l0.1,0l-0.1-0.1l1.5-11.3
	c2.1,0.2,4.2,0.7,6.3,1.3c3,0.8,6.1,1.6,8.4,1.1c0.9-0.2,3-2.2,4.4-3.6c3.1-3,6.9-6.7,12.2-7.6c4.5-0.8,8.7,1.1,12.4,2.8
	c2.5,1.1,5.3,2.3,6.9,2.1c1.1-0.1,3.5-2,5.2-3.4c3.4-2.7,7.2-5.8,12.1-6.3c4.6-0.4,8.7,1.7,12.3,3.6c2.3,1.2,5,2.6,6.5,2.5
	c1.2-0.1,3.6-1.8,5.5-3.2c3.4-2.5,7.3-5.3,12.2-5.6c4.6-0.2,8.7,2.1,12.3,4.2c2.3,1.3,4.9,2.8,6.3,2.7c1.3,0,3.7-1.7,5.7-3
	c3.5-2.4,7.5-5,12.3-5.1c4.7-0.1,8.7,2.4,12.2,4.6c2.2,1.4,4.7,2.9,6.1,2.9c1.5,0,4-1.6,6.2-2.9c3.5-2.2,7.4-4.6,12-4.6l0.2,0
	c4.8,0.1,8.8,2.7,12.4,5.1c2,1.3,4.5,3,5.9,3.1l0.1,0c1.5,0,4.1-1.5,6.3-2.7c3.6-2.1,7.7-4.4,12.3-4.1c3.7,0.2,6.8,1.8,9.6,3.7
	l1.4-12.5c-20.4-1.4-42.8-2.2-66.4-2.2c-91.8,0-166.3,11.7-166.3,26l-5.2,40.5c-0.1,0.3-0.1,0.7-0.1,1c0,1.7,1,3.3,2.8,4.9
	l-42.3,384.3C99.6,1201.9,103.1,1200.3,107.1,1198.8z M304.2,894c0.9-30.4,2-60.8,4.3-91.3c2.3,30.4,3.4,60.8,4.3,91.3
	c0.8,30.4,1.2,60.8,1.2,91.3c0,30.4-0.4,60.8-1.2,91.3c-0.9,30.4-2,60.8-4.3,91.3c-2.3-30.4-3.5-60.8-4.3-91.3
	c-0.8-30.4-1.2-60.8-1.2-91.3C303,954.8,303.4,924.4,304.2,894z M259,986.6c0.8-29.8,2-59.7,3.7-89.5c1.7-29.8,3.7-59.6,6.8-89.4
	c1.5,29.9,1.8,59.8,1.8,89.6c0,29.9-0.5,59.7-1.3,89.5c-0.8,29.8-2,59.7-3.7,89.5c-1.7,29.8-3.7,59.6-6.8,89.4
	c-1.5-29.9-1.8-59.8-1.8-89.6C257.7,1046.3,258.2,1016.4,259,986.6z M211.7,1077.5c1-30,2.5-60.1,4.3-90.1c1.8-30,4-60,6.7-89.9
	c2.7-29.9,5.7-59.9,9.8-89.7c0.5,30.1-0.2,60.2-1.2,90.3c-1,30-2.5,60.1-4.3,90.1c-1.8,30-4,60-6.7,89.9
	c-2.7,29.9-5.7,59.9-9.8,89.7C210,1137.6,210.7,1107.5,211.7,1077.5z M165.7,1081.1c1.7-30.1,3.8-60.3,6.3-90.3
	c2.5-30.1,5.4-60.1,8.7-90.2c3.4-30,7-60,11.8-89.9c-0.2,30.3-1.6,60.5-3.2,90.6c-1.7,30.1-3.8,60.3-6.3,90.3
	c-2.5,30.1-5.4,60.1-8.7,90.2c-3.4,30-7,60-11.8,89.9C162.7,1141.5,164.1,1111.3,165.7,1081.1z M121.5,1089
	c2.6-30.5,5.7-61,9.1-91.4c3.4-30.4,7.2-60.8,11.4-91.1c4.3-30.3,8.8-60.6,14.5-90.8c-1.1,30.7-3.4,61.2-6,91.7
	c-2.6,30.5-5.7,61-9.1,91.4c-3.4,30.4-7.2,60.8-11.4,91.1c-4.3,30.3-8.8,60.6-14.5,90.8C116.6,1150.1,118.9,1119.5,121.5,1089z"/>
<path d="M1109.5,1485.3v56.4c2.6-18,4.5-36.9,5.4-56.4H1109.5z"/>
<path d="M1064,1459.3c-15.4,0-28-11.7-28-26c0-14.3,12.6-26,28-26c0.7,0,1.4,0,2,0.1c1.1-1.1,2.3-2,3.5-2.9v-26.1
	c-0.6-0.3-1.2-0.5-1.8-0.8c-66.2-34.7-36.2-127.7-36.2-127.7c5.6,0,10.2-4.4,10.4-9.9l22.9-485.2c21.8-8.6,35.6-21.5,35.6-35.8
	c0-17.9-21.4-33.4-53-41.4c20-8,33-21,33-35.6c0-10.9-7.2-20.9-19-28.6c18-5.1,31.7-12.4,38.5-20.9c3.3-4.1,8-6.7,13.2-7.6
	c32.8-5.6,53.4-13.6,53.4-22.5c0-13.2-45-24.4-108.2-28.6c3.9-3.1,6.2-6.7,6.2-10.4c0-11.7-21.8-21.4-51-23.9V353.8
	c10.1-3.1,17-9.3,17-16.5c0-2.3-0.7-4.4-1.9-6.4c31.1-26.4,54.7-93.8,60.5-176.7c16.5-7.9,26.4-17.9,26.4-28.9
	c0-25.1-52.2-45.5-116.5-45.5c-64.3,0-116.5,20.4-116.5,45.5c0,11.2,10.3,21.4,27.5,29.3c5.9,82.7,29.5,149.9,60.5,176.2
	c-1.3,2-1.9,4.2-1.9,6.4c0,7.2,6.9,13.5,17,16.5v145.5c-29.7,2.3-52,12.2-52,24c0,3.8,2.4,7.5,6.6,10.7
	c-60.7,4.5-103.6,15.5-103.6,28.3c0,8.9,20.6,16.9,53.4,22.5c5.2,0.9,9.9,3.5,13.2,7.6c6.7,8.4,20.1,15.6,37.8,20.7
	c-12,7.7-19.4,17.8-19.4,28.8c0,14.4,12.5,27.2,31.8,35.2c-32.6,7.8-54.8,23.6-54.8,41.8c0,13.9,13,26.4,33.6,35l23,486.1
	c0.3,5.6,4.9,9.9,10.4,9.9c0,0,35,89-32.9,128.6c-0.7,0.4-1.4,0.7-2,1v24.9c1.2,0.9,2.4,1.9,3.5,2.9c0.7,0,1.4-0.1,2-0.1
	c15.4,0,28,11.7,28,26c0,14.3-12.6,26-28,26c-0.7,0-1.4,0-2-0.1c-1.1,1.1-2.3,2-3.5,2.9v79.7c1.3,5.9,2.6,11.9,4,17.8
	c4,16.9,8.4,33.6,13.2,50.2c1.1,4.2,2.4,8.3,3.7,12.4c1.2,4.1,2.6,8.2,3.9,12.4c2.6,8.2,5.5,16.4,8.4,24.6
	c5.2,14.6,10.9,29.1,16.7,43.5c-0.2,0.1-0.5,0.2-0.7,0.3c-7.6-13.6-14.4-27.7-20.4-42.1c-1.7-4-3.4-8-4.9-12.1
	c-1.5-4.1-3.1-8.2-4.5-12.3c-1.5-4.1-2.9-8.2-4.2-12.4c-1.3-4.2-2.7-8.3-3.9-12.5c-4.6-15.8-8.4-31.8-11.4-47.9v61
	c0.7,1.8,1.4,3.6,2.2,5.3c1.7,4,3.3,8,5.1,11.9l2.7,5.9c0.9,2,1.9,3.9,2.8,5.9l2.9,5.8c1,1.9,2,3.8,3,5.8
	c7.4,14,15.7,27.6,24.8,40.7c-0.2,0.1-0.3,0.2-0.5,0.3c-10.8-11.8-20.2-25-28.4-38.8c-1.1-1.9-2.3-3.8-3.3-5.7l-3.1-5.8
	c-1-2-2.1-3.9-3-5.9l-2.9-5.9c-0.8-1.5-1.5-3.1-2.2-4.6v25.2c11.3,20.3,24.2,35.8,38.3,45.3c-4,3.9-6.3,8.6-6.3,13.6
	c0,8.8,7.2,16.6,18,21.1v13.9H969c-4.7,0-8.5,3.8-8.5,8.5s3.8,8.5,8.5,8.5h11.5v6.7c-8.5,11.8-14,30.8-14,52.3
	c0,35.9,15.4,65,34.5,65s34.5-29.1,34.5-65c0-20.6-5.1-38.9-13-50.8v-8.2h11.5c4.7,0,8.5-3.8,8.5-8.5s-3.8-8.5-8.5-8.5h-11.5v-13.9
	c10.8-4.4,18-12.2,18-21.1c0-5.2-2.5-10-6.7-14c13-8.9,25.1-23.1,35.7-41.4V1646l-2.1,4.2c-0.9,2-2,3.9-3,5.9l-3.1,5.8
	c-1.1,1.9-2.2,3.8-3.3,5.7c-8.2,13.8-17.6,27-28.4,38.8c-0.2-0.1-0.3-0.2-0.5-0.3c9.1-13.1,17.4-26.7,24.8-40.7c1-1.9,2-3.8,3-5.8
	l2.9-5.8c0.9-2,2-3.9,2.8-5.9l2.7-5.9c1.5-3.3,2.9-6.6,4.3-10v-53.5c-2.4,11.1-5.2,22.2-8.5,33.1c-1.2,4.2-2.6,8.3-3.9,12.5
	c-1.3,4.2-2.7,8.3-4.2,12.4c-1.4,4.1-3,8.2-4.5,12.3c-1.5,4.1-3.2,8.1-4.9,12.1c-6,14.4-12.7,28.5-20.4,42.1
	c-0.2-0.1-0.5-0.2-0.7-0.3c5.8-14.5,11.5-28.9,16.7-43.5c2.9-8.2,5.8-16.3,8.4-24.6c1.3-4.1,2.7-8.2,3.9-12.4
	c1.3-4.1,2.6-8.3,3.7-12.4c4.8-16.6,9.2-33.3,13.2-50.2c0.3-1.5,0.7-3,1-4.4v-93.1c-1.2-0.9-2.4-1.9-3.5-2.9
	C1065.4,1459.2,1064.7,1459.3,1064,1459.3z M1026.5,1506.8c1.5,16.8,2.1,33.7,2,50.6c-0.1,16.9-0.8,33.8-2.3,50.6
	c-0.4,4.2-0.8,8.4-1.2,12.6c-0.4,4.2-0.9,8.4-1.4,12.6c-0.5,4.2-1.2,8.4-1.8,12.6c-0.6,4.2-1.3,8.4-2,12.5
	c-2.4,13.8-5.3,27.6-8.9,41.1c-0.4-0.1-0.8-0.1-1.1-0.2c1.9-13.9,3.8-27.8,5.4-41.6c0.9-8.4,2-16.7,2.8-25.1
	c0.9-8.4,1.7-16.7,2.3-25.1c1.4-16.7,2.6-33.5,3.6-50.3L1026.5,1506.8z M1001,1223.6l9-450c0.1-3,2.5-5.4,5.5-5.4l0.1,0
	c3,0.1,5.4,2.6,5.4,5.6l-9,450c-0.1,3-2.5,5.4-5.5,5.4l-0.1,0C1003.4,1229.2,1000.9,1226.7,1001,1223.6z M1004.5,1608.3
	c0,16.9-0.2,33.8-0.7,50.8c-0.3,13.3-0.8,26.5-1.6,39.8c-0.2,0-0.5,0-0.7,0s-0.5,0-0.7,0c-0.8-13.3-1.3-26.5-1.6-39.8
	c-0.4-16.9-0.7-33.8-0.7-50.8l0.2-25.4c0.2-8.5,0.2-16.9,0.5-25.4c0.4-16.9,1.1-33.8,2.3-50.8c1.2,16.9,1.9,33.8,2.3,50.8
	c0.3,8.5,0.3,16.9,0.5,25.4L1004.5,1608.3z M1031,1224c-0.1,2.9-2.6,5.2-5.5,5.2c-0.1,0-0.2,0-0.3,0c-3-0.2-5.4-2.7-5.2-5.8l22-444
	c0.2-3,2.8-5.4,5.8-5.2c3,0.2,5.4,2.7,5.2,5.8L1031,1224z M1062.3,620.9c2.7,2.2,5.1,4.8,7,7.9c1.9,3.1,3.2,6.6,3.6,10.4
	c0.1,0.9,0.1,1.9,0.1,2.8c-0.1,0.9,0,1.9-0.2,2.8c-0.1,0.9-0.3,1.8-0.6,2.7c-0.2,0.9-0.5,1.8-0.8,2.6c-1.3,3.4-3.4,6.5-5.8,9
	c-4.8,5-10.9,8.3-17.3,10.1c5-4.3,9.6-8.6,13-13.6c3.4-4.9,5.1-10.4,4.6-15.7c-0.6-5.4-3.4-10.5-7.4-15c-4-4.6-9-8.5-14.2-12.5
	C1050.7,613.7,1057,616.5,1062.3,620.9z M1146.5,554.8c-7.1,5.7-14.5,11-22,16.2c-7.5,5.2-15,10.1-22.7,15
	c-7.7,4.8-15.4,9.5-23.3,14c-6.8,3.9-13.6,7.6-20.6,11.1c-0.2-0.1-0.5-0.3-0.7-0.4c6.3-4.9,12.7-9.5,19.3-14
	c7.5-5.2,15-10.1,22.7-15c7.7-4.8,15.4-9.5,23.3-14C1130.3,563.1,1138.3,558.7,1146.5,554.8z M1112.5,546.8
	c-5.5,6.3-11.3,12.2-17.2,18c-5.9,5.8-12,11.4-18.1,16.9c-6.2,5.5-12.4,10.9-18.9,16.1c-3.5,2.9-7.1,5.7-10.7,8.4
	c-0.7-0.3-1.5-0.6-2.2-0.9c3.4-3.6,6.8-7,10.3-10.4c5.9-5.8,12-11.4,18.1-16.9c6.2-5.5,12.4-10.9,18.9-16.1
	C1099.1,556.6,1105.6,551.5,1112.5,546.8z M1060.9,559.1c4.7-5.6,9.4-11.1,14.6-16.3c-3.5,6.5-7.4,12.6-11.4,18.7
	c-4,6.1-8.2,12-12.6,17.8c-4.3,5.8-8.8,11.6-13.4,17.2c-1.5,1.8-2.9,3.5-4.4,5.2c-1-0.3-2.1-0.5-3.1-0.7c1.4-2.3,2.9-4.6,4.4-6.8
	c4-6.1,8.2-12,12.6-17.8C1051.8,570.4,1056.3,564.7,1060.9,559.1z M1017.2,593.8c2.2-6.2,4.5-12.4,7-18.5c2.5-6.1,5.2-12.1,8-18
	c2.9-5.9,5.8-11.8,9.3-17.5c-1.5,6.5-3.5,12.8-5.7,19c-2.2,6.2-4.5,12.4-7,18.5c-2.5,6.1-5.2,12.1-8,18c-0.6,1.2-1.2,2.4-1.8,3.7
	c-1.1-0.1-2.3-0.3-3.4-0.4C1016.1,596.9,1016.6,595.3,1017.2,593.8z M1010.1,319.9c-0.4-0.1-0.8-0.2-1.2-0.2
	c1.9-13.8,3.8-27.5,5.7-41.3l1.7-13.1c0.6-4.4,1.1-8.7,1.7-13.1c1.1-8.7,2.2-17.5,3.2-26.2c1-8.7,1.9-17.5,2.8-26.2
	c0.9-8.7,1.6-17.5,2.3-26.3c1.4-17.5,2.4-35.1,3.2-52.7c1.3,17.6,1.4,35.3,0.7,53c-0.3,8.8-0.9,17.6-1.5,26.5
	c-0.7,8.8-1.6,17.6-2.5,26.4c-1,8.8-2.2,17.5-3.4,26.3c-1.3,8.7-2.7,17.5-4.3,26.1C1016.1,292.7,1013.3,306.3,1010.1,319.9z
	 M1018.7,322.7c3.4-14,6.8-28,10-42c0.9-4.3,1.8-8.5,2.8-12.8l2.7-12.8l2.6-12.8l2.4-12.9l2.3-12.9l2.1-12.9l2-12.9
	c0.6-4.3,1.2-8.6,1.8-13c2.4-17.3,4.3-34.6,6.1-52.1c0.3,17.5-0.6,35.1-2.3,52.5c-0.4,4.4-0.9,8.7-1.4,13.1l-1.7,13.1l-2,13l-2.2,13
	l-2.5,12.9c-0.9,4.3-1.8,8.6-2.7,12.9l-3,12.8c-1.1,4.3-2.2,8.5-3.3,12.7c-3.8,14-8,27.8-12.8,41.5
	C1019.3,323,1019,322.9,1018.7,322.7z M1076.6,187.7c-0.4,2.1-0.8,4.2-1.2,6.3l-1.3,6.3l-1.4,6.3l-1.5,6.3l-1.5,6.3l-1.7,6.2
	l-1.7,6.2l-1.8,6.2l-1.8,6.2l-2,6.1l-2,6.1l-2.1,6.1l-2.2,6.1l-2.3,6c-0.8,2-1.5,4-2.4,6l-2.5,5.9c-6.1,14.3-13.1,28.2-21.2,41.5
	c-0.1-0.1-0.3-0.3-0.4-0.4c6.5-14,12.5-28.2,18-42.6c1.5-4,3-8,4.4-12l2.1-6l2-6.1l2-6l1.9-6.1l1.9-6.1l1.8-6.1l1.8-6.1l1.7-6.2
	l1.7-6.2l1.6-6.2l1.6-6.2l1.5-6.2c1-4.1,2-8.3,3-12.4c3.9-16.6,7.3-33.3,10.7-50.1C1082.1,153.8,1079.7,170.8,1076.6,187.7z
	 M891.5,130.8c2.8-3.9,6.2-7.4,10-10.4c3.8-3,8-5.6,12.3-7.9c8.6-4.5,17.8-7.9,27.2-10.4c9.4-2.6,18.9-4.3,28.5-5.5
	c4.8-0.6,9.6-1,14.5-1.3c4.8-0.3,9.7-0.4,14.5-0.4c4.8,0,9.7,0.1,14.5,0.4c4.8,0.3,9.7,0.7,14.5,1.3c9.6,1.2,19.2,3,28.5,5.6
	c9.3,2.6,18.5,6,27.1,10.5c4.3,2.3,8.4,4.9,12.2,7.9c1.9,1.5,3.7,3.1,5.4,4.8c1.7,1.7,3.3,3.5,4.7,5.5c-7.2-6.3-15.5-10.8-24.3-14.2
	c-8.7-3.4-17.8-5.8-26.9-7.7c-9.2-1.8-18.4-3.1-27.8-3.9c-4.7-0.4-9.3-0.7-14-0.9c-4.7-0.2-9.4-0.3-14.1-0.3
	c-9.4,0-18.7,0.4-28.1,1.2c-9.3,0.8-18.6,2.1-27.8,3.9c-9.2,1.8-18.2,4.2-27,7.6C906.9,119.8,898.5,124.2,891.5,130.8z M999.5,558
	c0.4-6.1,0.9-12.2,2-18.3c1,6.1,1.6,12.2,2,18.3c0.4,6.1,0.5,12.2,0.5,18.3c0,6.1-0.2,12.2-0.5,18.3c-0.1,1.1-0.2,2.2-0.2,3.3
	c-0.7,0-1.5,0-2.2,0c-0.4,0-0.8,0-1.2,0c-0.1-1.1-0.2-2.2-0.2-3.3c-0.4-6.1-0.5-12.2-0.5-18.3C999,570.2,999.2,564.1,999.5,558z
	 M997.9,318.8c-0.6-13.5-1-27-1.3-40.5c-0.2-8.8-0.3-17.5-0.4-26.3l-0.1-26.3l0.1-26.3c0.1-8.8,0.2-17.5,0.4-26.3
	c0.4-17.5,0.9-35,1.9-52.5c1,17.5,1.6,35,1.9,52.5c0.2,8.8,0.3,17.5,0.4,26.3l0.1,26.3l-0.1,26.3c-0.1,8.8-0.2,17.5-0.4,26.3
	c-0.3,13.5-0.7,27-1.3,40.5C998.7,318.8,998.3,318.8,997.9,318.8z M972.4,328.3c-8.2-13.5-15.3-27.6-21.6-42.2l-2.5-5.9
	c-0.8-2-1.6-4-2.4-6l-2.3-6l-2.2-6.1l-2.1-6.1l-2-6.1l-2-6.1l-1.9-6.2l-1.8-6.2l-1.7-6.2l-1.7-6.2l-1.5-6.3l-1.5-6.3l-1.4-6.3
	l-1.3-6.3c-0.4-2.1-0.8-4.2-1.2-6.3c-3.2-16.8-5.5-33.8-6.9-50.9c3.4,16.8,6.9,33.5,10.7,50.1c0.9,4.2,2,8.3,3,12.4l1.5,6.2l1.6,6.2
	l1.6,6.2l1.7,6.2l1.7,6.2l1.8,6.1l1.8,6.1l1.9,6.1l1.9,6.1l2,6l2,6.1l2.1,6c1.4,4,2.9,8,4.4,12c5.5,14.6,11.7,29,18.3,43.3
	C972.6,328.1,972.5,328.2,972.4,328.3z M978.5,323.6c-4.9-13.8-9.2-27.8-13-41.9c-1.1-4.2-2.2-8.5-3.3-12.7l-3-12.8
	c-1-4.3-1.8-8.6-2.7-12.9l-2.5-12.9l-2.2-13l-2-13l-1.7-13.1c-0.5-4.4-0.9-8.7-1.4-13.1c-1.6-17.5-2.5-35-2.3-52.5
	c1.8,17.4,3.8,34.8,6.1,52.1c0.6,4.3,1.3,8.6,1.8,13l2,12.9l2.1,12.9l2.3,12.9l2.4,12.9l2.6,12.8l2.7,12.8c1,4.3,1.9,8.5,2.8,12.8
	c3.2,14.2,6.6,28.3,10.1,42.4C979.1,323.3,978.8,323.5,978.5,323.6z M979.5,279c-1.6-8.7-2.9-17.4-4.3-26.1
	c-1.3-8.7-2.4-17.5-3.4-26.3c-1-8.8-1.8-17.6-2.5-26.4c-0.6-8.8-1.2-17.6-1.5-26.5c-0.6-17.7-0.6-35.4,0.7-53
	c0.8,17.6,1.8,35.2,3.2,52.7c0.7,8.8,1.4,17.5,2.3,26.3c0.8,8.8,1.7,17.5,2.8,26.2c0.9,8.7,2,17.5,3.2,26.2
	c0.6,4.4,1.1,8.7,1.7,13.1l1.7,13.1c1.9,13.8,3.8,27.6,5.7,41.5c-0.4,0.1-0.8,0.2-1.1,0.3C984.7,306.5,981.9,292.7,979.5,279z
	 M970.8,557.3c2.8,5.9,5.5,12,8,18c2.5,6.1,4.8,12.2,7,18.5c0.5,1.5,1.1,3.1,1.6,4.7c-1.2,0.1-2.3,0.2-3.4,0.4
	c-0.6-1.2-1.2-2.4-1.7-3.5c-2.8-5.9-5.5-12-8-18c-2.5-6.1-4.8-12.2-7-18.5c-2.1-6.2-4.2-12.5-5.7-19
	C965,545.4,968,551.3,970.8,557.3z M942.1,559.1c4.6,5.6,9.1,11.3,13.4,17.2c4.3,5.8,8.5,11.8,12.6,17.8c1.4,2.2,2.9,4.4,4.3,6.6
	c-1.1,0.2-2.1,0.5-3.2,0.7c-1.4-1.7-2.8-3.3-4.2-5c-4.6-5.6-9.1-11.3-13.4-17.2c-4.3-5.8-8.5-11.8-12.6-17.8
	c-4-6.1-7.9-12.2-11.4-18.7C932.7,548,937.4,553.5,942.1,559.1z M910.3,561.8c6.4,5.2,12.7,10.6,18.9,16.1
	c6.2,5.5,12.2,11.1,18.1,16.9c3.4,3.3,6.8,6.7,10.1,10.2c-0.8,0.3-1.6,0.6-2.3,0.9c-3.5-2.7-6.9-5.4-10.3-8.2
	c-6.4-5.2-12.7-10.6-18.9-16.1c-6.2-5.5-12.2-11.1-18.1-16.9c-5.9-5.8-11.7-11.7-17.2-18C897.4,551.5,903.9,556.6,910.3,561.8z
	 M924.5,599.9c-7.9-4.5-15.6-9.2-23.3-14c-7.7-4.8-15.3-9.8-22.7-15c-7.5-5.1-14.8-10.4-22-16.2c8.2,4,16.2,8.3,24,12.8
	c7.9,4.5,15.6,9.2,23.3,14c7.7,4.8,15.2,9.8,22.7,15c6.4,4.4,12.7,8.9,18.9,13.7c-0.3,0.2-0.6,0.3-0.8,0.5
	C937.7,607.4,931.1,603.7,924.5,599.9z M941.2,663.9c-3-2.3-5.8-5.1-7.9-8.5c-2.2-3.3-3.7-7.3-4.1-11.4l-0.1-1.6l0-0.8l0-0.8
	l0.1-1.6c0-0.5,0.1-1,0.2-1.5c0.3-2,1-4,1.8-5.9c1.7-3.7,4.1-6.9,6.9-9.5c5.6-5.2,12.5-8.5,19.6-10.1c-5.9,4.3-11.4,8.7-15.6,13.9
	c-2.1,2.6-3.8,5.4-4.8,8.3c-0.5,1.5-0.9,2.9-1.1,4.4c-0.3,1.5-0.2,3-0.1,4.5c0.5,6,4,11.6,8.7,16.4c4.7,4.9,10.5,8.8,16.6,12.8
	C954.2,671.3,947.2,668.6,941.2,663.9z M931.2,709.5c-7.6,1.2-15.1,2.7-22.7,5.3c1.4-1.4,2.9-2.8,4.5-4c0.8-0.6,1.6-1.2,2.4-1.8
	c0.8-0.6,1.7-1.1,2.6-1.7c1.7-1.2,3.5-2,5.3-3.1c1.8-1,3.6-1.8,5.5-2.7c7.4-3.3,15.1-5.8,23-7.8c15.7-3.9,31.7-5.7,47.8-5.8
	c16.1-0.1,32.2,1.5,47.9,5.3c7.9,1.9,15.6,4.5,23,7.9c3.7,1.8,7.3,3.6,10.7,5.9c3.4,2.2,6.6,4.9,9.3,7.8c-7.5-2.8-15-4.5-22.5-5.7
	c-7.5-1.3-15.1-2.1-22.7-2.7c-15.2-1.2-30.4-1.5-45.6-1.5c-15.2,0.1-30.5,0.7-45.7,2C946.4,707.5,938.8,708.3,931.2,709.5z
	 M989.6,1229.2l-0.1,0c-3,0-5.4-2.4-5.5-5.4l-9-450c-0.1-3,2.4-5.5,5.4-5.6c3,0,5.5,2.4,5.6,5.4l9,450
	C995.1,1226.7,992.6,1229.2,989.6,1229.2z M993.3,1699.3c-0.4,0.1-0.8,0.1-1.1,0.2c-3.6-13.6-6.5-27.3-8.9-41.1
	c-0.7-4.2-1.5-8.3-2-12.5c-0.6-4.2-1.2-8.4-1.8-12.6c-0.5-4.2-1-8.4-1.4-12.6c-0.4-4.2-0.9-8.4-1.2-12.6
	c-1.5-16.8-2.2-33.8-2.3-50.6c-0.1-16.9,0.4-33.8,2-50.6l2.7,50.5c1,16.8,2.2,33.5,3.6,50.3c0.6,8.4,1.5,16.7,2.3,25.1
	c0.8,8.4,1.8,16.7,2.8,25.1C989.5,1671.5,991.4,1685.4,993.3,1699.3z M970.8,1229.2c-0.1,0-0.2,0-0.3,0c-2.9,0-5.3-2.3-5.5-5.2
	l-22-444c-0.2-3,2.2-5.6,5.2-5.8c3-0.2,5.6,2.2,5.8,5.2l22,444C976.1,1226.5,973.8,1229.1,970.8,1229.2z M972.6,1659.3
	c-4.6-16.5-8.4-33.3-11.2-50.2c-0.7-4.2-1.4-8.5-2-12.7c-0.6-4.2-1.3-8.5-1.7-12.7c-0.5-4.3-1-8.5-1.3-12.8c-0.4-4.3-0.8-8.5-1-12.8
	c-1.2-17.1-1.6-34.2-0.9-51.3c1.8,17,3.5,34,5.5,50.9c1.1,8.4,2.1,16.9,3.4,25.3c0.6,4.2,1.2,8.4,1.9,12.6c0.6,4.2,1.4,8.4,2.1,12.6
	c2.8,16.8,6.1,33.4,9.8,50c3.2,14.1,6.7,28.2,10.4,42.3c-0.3,0.1-0.7,0.2-1,0.3C981.1,1687.2,976.5,1673.3,972.6,1659.3z
	 M1005.2,1862.8c-0.9,8.7-2.2,17.3-4.7,26c-2.5-8.7-3.8-17.3-4.7-26c-0.9-8.7-1.3-17.3-1.3-26c0-8.7,0.4-17.3,1.3-26
	c0.9-8.7,2.2-17.3,4.7-26c2.5,8.7,3.8,17.3,4.7,26c0.9,8.7,1.3,17.3,1.3,26C1006.5,1845.4,1006.1,1854.1,1005.2,1862.8z
	 M1027.5,1721.8c2.2,0,4,1.8,4,4s-1.8,4-4,4h-51c-2.2,0-4-1.8-4-4s1.8-4,4-4H1027.5z M1047.6,1558.1c-0.2,4.3-0.6,8.5-1,12.8
	c-0.4,4.3-0.9,8.5-1.3,12.8c-0.4,4.3-1.1,8.5-1.7,12.7c-0.6,4.2-1.3,8.5-2,12.7c-2.8,16.9-6.6,33.7-11.2,50.2
	c-3.9,14-8.5,27.9-14,41.4c-0.3-0.1-0.7-0.2-1-0.3c3.7-14.1,7.2-28.1,10.4-42.3c3.7-16.6,7-33.3,9.8-50c0.7-4.2,1.5-8.4,2.1-12.6
	c0.6-4.2,1.3-8.4,1.9-12.6c1.3-8.4,2.3-16.8,3.4-25.3c2.1-16.9,3.7-33.9,5.5-50.9C1049.2,1523.8,1048.8,1541,1047.6,1558.1z"/>
<path d="M890.5,1485.3h-3.4c0.6,14.1,1.8,27.9,3.4,41.3V1485.3z"/>
<path d="M1120,1342.3c9.4-1.3,17.9-2.8,25.4-4.4c-0.6-1.3-1.1-2.7-1.6-4.1c-7,1.5-15,2.8-23.8,4V1342.3z"/>
<path d="M1072.4,1253.2c-10.2-0.7-21-1.3-32.1-1.7c-1.5,1.1-3.3,1.9-5.2,2.4c-0.7,2.6-1.8,6.8-2.8,12.3l0.1,0c2.1,1.4,4.7,3.1,6,3.2
	c1.5,0,4.2-1.5,6.6-2.9c3.7-2.2,8-4.6,12.8-4.3c3.1,0.2,5.8,1.3,8.3,2.8C1067.6,1260.4,1069.8,1256.4,1072.4,1253.2z"/>
<path d="M885.1,1287.3c-4.4,0.1-8.5-1.7-12.1-3.2c-2.1-0.9-5.1-2.2-6.1-2c-1.9,0.3-4.3,2.6-6.6,4.9c-2,1.9-4,3.8-6.3,5.2
	c1.8,3.7,3.2,7.9,4,12.5c8.4-1.7,18.3-3.3,29.3-4.6C886.1,1296,885.4,1291.8,885.1,1287.3z"/>
<path d="M1064.2,1295.7c-0.8-3.8-1.2-7.8-1.2-12c0-2.1,0.1-4.1,0.3-6.1c-2.2-1.6-4.7-3.4-6.2-3.5c-1.3-0.1-4,1.5-6.2,2.8
	c-3.8,2.2-8.1,4.6-13,4.5c-2.8-0.1-5.3-1-7.6-2.3c-0.7,6.6-1.2,13.9-1,21.6c0.6,19.2,5,35.2,13.2,48c6-0.2,11.8-0.5,17.5-0.8v-4.7
	c-6.2,0.3-12.6,0.6-19.1,0.8v-49.3C1048.9,1294.9,1056.7,1295.3,1064.2,1295.7z"/>
<path d="M1138.7,1286.6c-2.1-2.1-4.6-4.4-6.4-4.7c-1.1-0.2-4.1,1.1-6,2c-3.4,1.5-7.2,3.2-11.4,3.3c-0.2,4.5-1,8.8-2.1,12.8
	c11,1.3,20.8,2.9,29.3,4.6c0.8-4.5,2.2-8.6,3.9-12.2C1143.2,1290.9,1140.9,1288.7,1138.7,1286.6z"/>
<path d="M1138.2,955.5c0-0.3,0-0.5-0.1-0.8l-4.2-32.5c0-8-29-15-71.5-18.5l-0.6,12.5c0.7-0.3,1.4-0.7,2.1-1.1
	c2.9-1.5,6.2-3.3,9.9-2.9c4,0.4,7.1,2.9,9.8,5c1.4,1.1,3.3,2.6,4.2,2.7c1.3,0.2,3.6-0.8,5.6-1.7c3-1.3,6.4-2.8,10-2.2
	c4.2,0.7,7.3,3.7,9.8,6.1c1.1,1.1,2.8,2.7,3.5,2.9c1.8,0.4,4.3-0.2,6.7-0.8c1.7-0.4,3.4-0.9,5-1l1.2,9l0,0.1l0.1,0l0,0
	c-0.7-0.1-2.6,0.4-3.9,0.8c-3.2,0.8-7.2,1.9-11.2,0.9c-3.2-0.8-5.5-3-7.8-5.2c-1.6-1.6-3.5-3.4-4.9-3.6c-0.8-0.1-3.1,0.9-4.6,1.6
	c-3.1,1.4-6.6,2.9-10.5,2.4c-3.5-0.4-6.3-2.7-8.8-4.7c-1.7-1.4-3.6-2.9-4.8-3c-0.9-0.1-3.1,1.1-4.7,1.9c-2.1,1.1-4.4,2.3-6.9,2.8
	l-0.5,10.5c43.7,3.2,73.7,9.8,73.7,17.4c0,0.7-0.3,1.4-0.8,2.1c-0.6-0.7-1.3-1.4-2.1-1.9c-0.2-0.2-0.5-0.3-0.6-0.6
	c-4.6-5.3-30.8-10.8-70.4-13.8l-14.2,300.2c-0.1,3.1-1.3,6-3,8.3c10.9,0.4,21.6,1,31.7,1.8c4-3.7,8.7-5.9,13.8-5.9
	c6.3,0,12.1,3.3,16.5,8.8c6.4,0.8,12.5,1.6,18.3,2.5c16.2,2.5,28.9,5.5,37.9,8.8c3.3,1.2,6,2.5,8.3,3.8l-34-308.7
	C1137.4,958.1,1138.2,956.8,1138.2,955.5z M1078.6,1239.4c-3.3-24-5.7-48-7.9-72.1c-2.1-24.1-3.9-48.1-5.4-72.2
	c-1.5-24.1-2.6-48.2-3.5-72.4c-0.8-24.1-1.3-48.3-1-72.5c3.3,24,5.7,48,7.9,72.1c2.1,24.1,3.9,48.1,5.4,72.2
	c1.5,24.1,2.7,48.2,3.5,72.4C1078.5,1191,1079,1215.2,1078.6,1239.4z M1107.7,1170.4c-2.7-24.1-5-48.3-7-72.4
	c-2-24.2-3.7-48.4-5.1-72.6c-1.3-24.2-2.4-48.5-2.6-72.8c3.8,24,6.8,48.1,9.5,72.2c2.7,24.1,5,48.3,7,72.4c2,24.2,3.7,48.4,5.1,72.6
	c1.3,24.2,2.4,48.5,2.6,72.8C1113.3,1218.6,1110.4,1194.5,1107.7,1170.4z M1142.9,1102.7c2.8,24.4,5.2,48.9,7.3,73.4
	c2,24.5,3.9,49.1,4.8,73.7c-4.6-24.2-8.2-48.6-11.7-72.9c-3.4-24.4-6.4-48.8-9.2-73.2c-2.7-24.4-5.2-48.9-7.3-73.4
	c-2-24.5-3.9-49.1-4.8-73.7c4.6,24.2,8.2,48.6,11.7,72.9C1137.1,1053.9,1140.1,1078.3,1142.9,1102.7z"/>
<path d="M969.4,1312.6v-18.2c0.2,0,0.3,0,0.5,0c-0.2-5.1-0.8-10-1.5-14.5c-1.9,0.8-3.9,1.4-6.1,1.5c-5,0.2-9.3-2.3-13.1-4.4
	c-2.2-1.3-5-2.8-6.3-2.8c-1.5,0.1-4,1.8-6.2,3.4c0.2,2,0.3,4.1,0.3,6.1c0,4.1-0.4,8.2-1.2,12c6.5-0.4,13.1-0.7,19.9-1v49
	c-5.3-0.2-10.6-0.4-15.7-0.7v4.7c5.1,0.3,10.4,0.5,15.7,0.8v2.8C963.2,1340.5,967.8,1327.6,969.4,1312.6z"/>
<path d="M854.6,1337.8c7.4,1.6,16,3.1,25.4,4.4v-4.5c-8.9-1.2-16.8-2.6-23.8-4C855.7,1335.1,855.2,1336.4,854.6,1337.8z"/>
<path d="M1114.4,1275.1c1.7,0.1,4.5-1.1,7-2.2c3.9-1.7,8.3-3.7,13-2.9c5.5,0.9,9.5,4.8,12.8,8c1.4,1.4,3.6,3.5,4.6,3.8
	c0.5,0.1,1.2,0.2,1.8,0.2c3.9-3.5,8.5-5.6,13.5-5.6c2.5,0,4.9,0.5,7.2,1.5c-0.4-8.6-26.2-16.2-66.2-21.2
	C1111.1,1261.6,1113.4,1268,1114.4,1275.1z"/>
<path d="M838.9,1264.3c9-3.3,21.7-6.3,37.9-8.8c5.6-0.9,11.5-1.7,17.6-2.4c4.5-5.6,10.2-8.9,16.6-8.9c5.1,0,9.9,2.2,13.9,5.9
	c9.3-0.7,18.9-1.3,28.8-1.7c-1.8-2.4-3-5.3-3.1-8.5l-11.3-238.3c-0.2,7-0.4,14-0.6,20.9c-0.8,24.1-2,48.3-3.5,72.4
	c-1.5,24.1-3.2,48.2-5.4,72.2c-2.2,24.1-4.6,48.1-7.9,72.1c-0.4-24.2,0.2-48.4,1-72.5c0.8-24.1,2-48.3,3.5-72.4
	c1.5-24.1,3.3-48.2,5.4-72.2c1.7-18.8,3.5-37.5,5.8-56.2l-1.2-26c-9.1,0.7-17.6,1.6-25.4,2.6c-27,3.5-39.2,8-41.5,11.1
	c-0.2,0.3-0.5,0.5-0.8,0.7c-0.7,0.4-1.3,1-1.9,1.5c-0.5-0.7-0.7-1.4-0.7-2c0-7.4,28.3-13.8,70.1-17.1l-0.5-11.6
	c-1.4-0.6-2.7-1.2-3.9-1.9c-1.7-0.9-3.9-2-4.8-1.9c-1.3,0.1-3.2,1.7-5,3.1c-2.5,2-5.3,4.3-8.8,4.7c-3.9,0.5-7.5-1-10.6-2.4
	c-1.6-0.7-3.9-1.7-4.7-1.5c-1.5,0.3-3.3,2-5.1,3.7c-2.3,2.2-4.6,4.4-7.7,5.2c-1.3,0.3-2.6,0.5-3.8,0.5c-2.7,0-5.3-0.6-7.5-1.1
	c-0.8-0.2-1.9-0.4-2.7-0.6l1-9.2c1.3,0.2,2.6,0.5,3.8,0.8c2.5,0.6,5.1,1.2,7,0.7c0.7-0.2,2.4-1.8,3.6-2.9c2.5-2.4,5.6-5.5,9.9-6.2
	c3.6-0.6,7,0.9,10,2.2c2,0.9,4.3,1.9,5.7,1.7c0.9-0.1,2.8-1.6,4.2-2.8c2.7-2.2,5.8-4.7,9.8-5.1c3.4-0.3,6.4,1.1,9.2,2.5l-0.5-10.8
	c-40.6,3.6-68,10.4-68,18.2l-4.2,32.5c-0.1,0.3-0.1,0.5-0.1,0.8c0,1.4,0.9,2.8,2.6,4.2l-34.9,308.8
	C832.5,1267,835.4,1265.6,838.9,1264.3z M886,1169.8c1.4-24.2,3.1-48.4,5.1-72.6c2-24.2,4.3-48.3,7-72.4c2.7-24.1,5.6-48.2,9.5-72.2
	c-0.2,24.3-1.3,48.6-2.6,72.8c-1.4,24.2-3.1,48.4-5.1,72.6c-2,24.2-4.3,48.3-7,72.4c-2.7,24.1-5.6,48.2-9.5,72.2
	C883.6,1218.3,884.7,1194,886,1169.8z M850.4,1176.1c2.1-24.5,4.5-49,7.3-73.4c2.8-24.4,5.8-48.8,9.2-73.2
	c3.4-24.4,7.1-48.7,11.7-72.9c-0.9,24.6-2.7,49.2-4.8,73.7c-2.1,24.5-4.5,49-7.3,73.4c-2.7,24.4-5.8,48.8-9.2,73.2
	c-3.4,24.4-7.1,48.7-11.7,72.9C846.6,1225.2,848.4,1200.7,850.4,1176.1z"/>
<path d="M846.8,1282.1c0.1,0,0.3,0,0.4-0.1c1-0.2,3.2-2.4,4.6-3.8c3.3-3.2,7.3-7.1,12.9-8.1c4.7-0.8,9.1,1.1,13,2.8
	c2.6,1.1,5.6,2.4,7.4,2.2c0.1,0,0.3-0.1,0.4-0.1c1-7.1,3.2-13.4,6.3-18.5c-39.2,4.9-64.6,12.4-65.5,20.8c2.1-0.8,4.3-1.2,6.6-1.2
	C838.1,1276.3,842.8,1278.4,846.8,1282.1z"/>
<path d="M956.9,1251.6c-10.1,0.4-19.9,1-29.3,1.6c2.6,3.2,4.7,7.2,6.3,11.7c2.5-1.5,5.2-2.6,8.3-2.8c4.9-0.3,9.1,2.2,12.9,4.3
	c2.4,1.3,5,2.9,6.6,2.9l0.1,0c1,0,2.5-0.9,4.1-1.9c-1.4-6.1-2.9-10.9-3.8-13.6C960.2,1253.5,958.5,1252.7,956.9,1251.6z"/>
</svg>
