<?xml version="1.0" encoding="UTF-8" standalone="no"?>
<svg
   width="2.66667in"
   height="2.66667in"
   viewBox="0 0 800 800"
   version="1.1"
   id="svg111"
   sodipodi:docname="new-bulb1.svg"
   inkscape:export-filename="C:\xampp\htdocs\part4\index\assets\img\new-bulb-on.png"
   inkscape:export-xdpi="96"
   inkscape:export-ydpi="96"
   inkscape:version="1.1.1 (3bf5ae0d25, 2021-09-20)"
   xmlns:inkscape="http://www.inkscape.org/namespaces/inkscape"
   xmlns:sodipodi="http://sodipodi.sourceforge.net/DTD/sodipodi-0.dtd"
   xmlns="http://www.w3.org/2000/svg"
   xmlns:svg="http://www.w3.org/2000/svg">
  <defs
     id="defs115" />
  <sodipodi:namedview
     id="namedview113"
     pagecolor="#505050"
     bordercolor="#ffffff"
     borderopacity="1"
     inkscape:pageshadow="0"
     inkscape:pageopacity="0"
     inkscape:pagecheckerboard="1"
     inkscape:document-units="in"
     showgrid="false"
     inkscape:zoom="1.9205568"
     inkscape:cx="124.70342"
     inkscape:cy="140.84457"
     inkscape:window-width="1680"
     inkscape:window-height="987"
     inkscape:window-x="-8"
     inkscape:window-y="-8"
     inkscape:window-maximized="1"
     inkscape:current-layer="svg111" />
  <path
     id="new bulb"
     fill="none"
     stroke="#000000"
     stroke-width="1"
     d="m 344,355.36584 c 0,0 -12.57,15 -12.57,15 -10.93,15.19 -17.41,31.2 -17.43,50 0,0 0.51,17.28 0.51,17.28 2.25,16.98 11.46,35.47 19.09,50.72 6.07,12.14 13.67,23.5 17.22,36.83 0,0 0,26.17 0,26.17 0.25,5.57 1.16,20.51 3.59,25 2.81,5.16 6.86,7.4 8.58,10.28 1.68,2.83 1.61,9.42 4.8,13.11 7.21,8.38 23.96,9.7 34.21,9.61 9.33,-0.09 23.62,-3.05 29.1,-11.32 3.11,-4.71 2.32,-8.64 3.92,-11.4 1.64,-2.82 5.9,-5.25 8.54,-10.28 3.86,-7.36 3.45,-24.45 3.44,-33 -0.01,-6.66 -1.02,-12.29 0.53,-19 2.83,-12.28 21.21,-43.08 27.6,-58 9.83,-22.98 12.39,-48.11 4.35,-72 -3,-8.93 -9.69,-20.63 -15.61,-27.91 0,0 -9.87,-11.09 -9.87,-11.09 -3.44,-0.68 -11.75,-7.53 -16,-9.74 -10.69,-5.57 -22.9,-9.17 -35,-9.26 -16.37,-0.12 -25.89,0.94 -41,8.31 0,0 -18,10.69 -18,10.69 z m 80,229 c 0,3.22 0.5,8.03 -1.6,10.61 -1.95,2.39 -6.37,3.76 -9.31,4.53 -5.56,1.18 -21.61,1.13 -27.18,0 -3.17,-0.49 -8.26,-1.82 -10.31,-4.41 -2.09,-2.64 -1.6,-7.48 -1.6,-10.73 0,0 50,0 50,0 z m 13,-21 c -0.17,5.43 0.15,10.38 -5.1,13.63 -5.82,3.59 -18.17,1.4 -24.9,1.37 0,0 -28,0 -28,0 -3.16,0.01 -8.09,0.68 -10.83,-0.5 -6.72,-2.9 -7,-8.21 -7.17,-14.5 0,0 76,0 76,0 z m -75,-5 c 0,0 -1,-12 -1,-12 0,0 76,0 76,0 0,0 0,11 0,11 0,0 -49,0 -49,0 0,0 -26,1 -26,1 z m 75,-18 c 0,0 -76,0 -76,0 0,0 0,-12 0,-12 0,0 46,0 46,0 0,0 19,1 19,1 9.16,-0.04 10.86,-1.78 11,6 0,0 0,5 0,5 z m -75.61,-17.57 c -3.58,-2.73 -4.31,-7.39 -6.04,-11.43 0,0 -11.31,-23 -11.31,-23 -6.43,-12.67 -12.96,-24.29 -17.16,-38 -6.86,-22.43 -5.15,-46.24 5.9,-67 4.15,-7.79 7.51,-11.13 13.52,-17.21 6.94,-7 12.69,-10.77 21.7,-14.64 11.81,-5.07 16.35,-6.06 29,-6.15 12.5,-0.08 18.06,0.35 30,4.69 8.28,3.02 14.8,7.3 21.42,13.03 33.7,29.11 32.95,75.35 12.24,111.86 0,0 -4.92,10.42 -4.92,10.42 0,0 -11.63,23 -11.63,23 -1.37,2.82 -4.75,12.66 -6.62,13.98 -1.78,1.25 -5.35,1.02 -7.49,1.02 0,0 -45,0 -45,0 -5.61,0 -18.91,0.55 -23.61,-0.57 z m 24.61,-7.43 c 0,0 5,0 5,0 -0.04,-14.02 -1.95,-27.38 -5.23,-41 0,0 -3.77,-17 -3.77,-17 10.37,1.96 11.95,-2.88 15.58,-4.09 2.81,-0.94 5.88,2.09 8.42,3.22 3.51,1.56 6.31,1.39 10,0.87 -5.71,19.71 -8.88,37.43 -9,58 0,0 5,0 5,0 0.38,-17.37 3.69,-46.74 11.3,-62 1.03,-2.05 4.99,-9.02 2.08,-10.83 -0.7,-0.44 -1.5,-0.33 -2.22,0 -3.72,1.73 -4.29,11.85 -13.43,9.88 -9.02,-1.94 -4.73,-10.94 -13.73,-9.05 -0.15,2.17 -0.29,3.09 -1.69,4.93 -0.91,1.21 -1.97,2.17 -3.26,2.96 -9.4,5.76 -14.04,-7 -15.56,-8.12 -1.49,-1.1 -2.81,-0.8 -4.49,-0.77 0,0 7.57,23 7.57,23 3.73,13.08 7.39,36.42 7.43,50 z m -118.69,-19.06 c 4.6,1.24 6.77,-0.86 10.69,-3.09 0,0 19,-10.85 19,-10.85 2.53,-1.45 7.76,-4.11 9.39,-6.33 2.6,-3.55 0.26,-7.7 -4.41,-6.67 -2.94,0.64 -10.15,5.21 -12.98,6.94 0,0 -18,10.34 -18,10.34 -4.14,2.46 -7.98,5.1 -3.69,9.66 z m 261.69,0.36 c 7.18,0.43 6.56,-4.88 1.94,-8.51 0,0 -27.94,-16.48 -27.94,-16.48 -2.76,-1.5 -8.61,-5.02 -10.34,0 -1.43,3.96 3.54,6.76 6.34,8.41 0,0 30,16.58 30,16.58 z m -243,-94.74 c 10.62,1.22 9.48,-5.18 5.85,-7.39 -1.75,-1.07 -6.62,-1.74 -8.85,-2.17 0,0 -21,-3.59 -21,-3.59 -2.66,-0.44 -8.54,-1.68 -10.94,-1.08 -4.46,1.1 -5.1,6.15 0.96,8.11 0,0 33.98,6.12 33.98,6.12 z m 221.32,-0.58 c 4.66,1.73 9.91,0.13 14.68,-0.78 0,0 25,-4.5 25,-4.5 6.14,-1.56 6.61,-5.7 3.68,-7.69 -2.5,-1.67 -7.8,-0.41 -10.68,0 0,0 -29.98,5.38 -29.98,5.38 -4.24,1.4 -5.83,4.06 -2.7,7.59 z m -181.28,-66.02 c 7.21,1.92 7.38,-3.08 4.02,-7.96 0,0 -16.48,-20 -16.48,-20 -1.77,-2.09 -6.44,-7.91 -8.66,-8.92 -3.8,-1.72 -8.18,2.02 -3.35,8.92 3.27,4.68 20.51,25.16 24.47,27.96 z m 143.28,0 c 5.43,1.6 7.38,-2.13 10.6,-5.96 0,0 16.79,-20 16.79,-20 2.02,-2.47 6.48,-8.41 1.98,-10.92 -3.78,-2.1 -7.74,3.51 -9.77,5.92 0,0 -17.49,21 -17.49,21 -2.8,3.5 -5.59,6.06 -2.11,9.96 z m -71.72,-25.99 c 6.8,2.64 6.39,-3.21 6.4,-7.97 0,0 0,-29 0,-29 -0.01,-2.97 0.49,-9.37 -4,-9.37 -1.28,0 -2.28,0.66 -2.98,1.69 -1.13,1.67 -1.01,4.71 -1.02,6.68 0,0 0,26 0,26 0,3.99 -0.8,8.63 1.6,11.97 z" />
  <path
     style="fill:#000000;stroke:#000000;stroke-width:0.178025"
     d="m 123.81657,194.39626 c -2.70945,-0.42951 -4.57793,-1.26049 -5.74909,-2.55683 -0.60822,-0.67322 -0.80112,-1.14621 -1.3707,-3.36091 -0.13997,-0.54426 -0.55507,-1.15536 -1.45112,-2.1363 -0.69029,-0.75568 -1.40669,-1.66958 -1.592,-2.03089 -0.74715,-1.45676 -1.22882,-6.42801 -1.22998,-12.69437 -7e-4,-3.75775 -0.0198,-3.97351 -0.47241,-5.34076 -0.25942,-0.78364 -1.30216,-3.02703 -2.31719,-4.98531 -4.94884,-9.54767 -7.04759,-14.24363 -8.07673,-18.07169 -0.47781,-1.7773 -0.5717,-2.51151 -0.71683,-5.60567 -0.27929,-5.95461 0.28456,-9.31928 2.28606,-13.64167 1.11162,-2.40063 2.62939,-4.68347 4.97069,-7.47627 l 2.19077,-2.61326 2.79717,-1.64917 c 5.95523,-3.51113 8.53953,-4.26536 14.68584,-4.28611 2.64184,-0.009 3.59463,0.0592 5.05432,0.36127 3.63702,0.75268 6.37539,1.89603 9.39783,3.92387 1.0588,0.71037 2.14303,1.38438 2.40941,1.49778 0.72506,0.30869 3.81908,3.86589 5.2118,5.99202 2.92416,4.46404 4.33633,8.52246 4.75217,13.65719 0.36459,4.50204 -0.4208,9.61225 -2.18972,14.24761 -0.3394,0.88937 -2.41028,5.1688 -4.60197,9.50983 -2.19169,4.34104 -4.21544,8.57375 -4.49722,9.40601 l -0.51233,1.51322 -0.033,6.05286 c -0.0461,8.47129 -0.28884,9.66415 -2.43067,11.94593 -1.34163,1.42929 -1.49033,1.67852 -1.76013,2.95001 -0.6245,2.94311 -2.76134,4.6218 -6.89305,5.41514 -1.63488,0.31392 -5.81213,0.30142 -7.86196,-0.0235 z m 9.25731,-2.5636 c 2.21615,-0.76012 2.84841,-1.591 2.84841,-3.74325 v -1.2519 h -8.30361 -8.30362 l 0.0957,1.39687 c 0.14687,2.14274 0.6844,2.88081 2.54013,3.48777 1.4705,0.48095 3.03303,0.6137 6.58331,0.55926 2.94849,-0.0452 3.53095,-0.10278 4.53964,-0.44875 z m 4.88142,-6.83498 c 1.4542,-0.66575 2.06157,-1.78367 2.06157,-3.79453 v -1.1306 h -12.39858 -12.39857 l 0.10627,1.2676 c 0.17903,2.13552 1.08166,3.42426 2.71401,3.87497 0.32187,0.0889 2.89486,0.12503 5.71775,0.0803 2.8229,-0.0447 6.17399,-0.003 7.44687,0.0935 3.44275,0.25997 5.60145,0.13484 6.75068,-0.3913 z m -9.82162,-6.30649 11.88319,-0.0905 v -2.02348 -2.02348 h -12.3935 -12.39349 l 0.11308,1.20167 c 0.31206,3.31629 0.30495,3.27983 0.61484,3.1494 0.16098,-0.0678 5.64013,-0.1639 12.17588,-0.21365 z m 11.88319,-7.14413 c 0,-1.29403 -0.0621,-1.65911 -0.34089,-2.00278 -0.39605,-0.48829 1.17613,-0.42113 -14.21268,-0.60709 l -10.19194,-0.12316 v 2.15777 2.15777 h 12.37275 12.37276 z m 0.0324,-4.14975 c 0.31285,-0.20506 0.71163,-0.89281 1.23818,-2.13538 0.42718,-1.00809 2.39694,-5.09072 4.37725,-9.0725 1.9803,-3.98178 3.83517,-7.8302 4.12191,-8.55204 3.94199,-9.92339 3.17434,-19.8224 -2.11206,-27.23545 -1.30471,-1.82958 -4.18423,-4.68401 -6.05547,-6.00271 -2.37814,-1.67591 -5.30809,-2.95466 -8.4562,-3.69062 -2.06786,-0.48342 -8.96186,-0.48448 -11.03757,-0.002 -2.74445,0.63832 -6.76498,2.44829 -8.85319,3.98554 -1.59643,1.17522 -4.12819,3.68177 -5.3315,5.27841 -3.42894,4.54977 -5.28745,11.4166 -4.78028,17.66226 0.45462,5.59867 1.33937,8.08219 6.68795,18.77339 1.93176,3.86137 3.70384,7.52839 3.93794,8.14894 0.91961,2.43761 1.3558,2.98711 2.46425,3.10436 0.39165,0.0414 5.80277,0.0674 12.02471,0.0576 10.32685,-0.0161 11.35282,-0.044 11.77408,-0.32016 z"
     id="path1013"
     transform="scale(3.1249959)" />
  <path
     id="path1126"
     style="fill:#000000;stroke:#000000;stroke-width:0.178025"
     d="M 97.125 150.37695 C 96.754541 150.39281 96.232447 150.62449 95.294922 151.11719 C 92.784194 152.43663 86.189977 156.33248 85.673828 156.80078 C 85.087849 157.33242 85.049753 157.86226 85.560547 158.37305 C 85.8508 158.66335 86.077101 158.72699 86.548828 158.65039 C 87.239643 158.53829 96.73066 153.1983 97.494141 152.49219 C 98.182017 151.85601 98.312185 151.18523 97.839844 150.71289 C 97.609093 150.48214 97.413135 150.36462 97.125 150.37695 z "
     transform="scale(3.1249959)" />
  <path
     style="fill:#000000;stroke:#000000;stroke-width:0.178025"
     d="m 85.928556,127.37557 c -4.7258,-0.87226 -5.642316,-1.09117 -6.008353,-1.43504 -0.875992,-0.82295 -0.279246,-1.66336 1.157852,-1.63063 1.236304,0.0282 11.401722,1.80962 11.953111,2.09475 1.487401,0.76914 0.96592,2.06167 -0.81408,2.01776 -0.391655,-0.01 -3.221494,-0.48074 -6.28853,-1.04684 z"
     id="path1279"
     transform="scale(3.1249959)" />
  <path
     style="fill:#000000;stroke:#000000;stroke-width:0.178025"
     d="m 104.48401,106.94868 c -0.65858,-0.37624 -2.61722,-2.47283 -5.258687,-5.62907 -2.952649,-3.528058 -3.422787,-4.335002 -3.029079,-5.199096 0.255007,-0.559679 1.039911,-0.577189 1.724771,-0.03848 0.580179,0.456368 7.194505,8.371406 7.730845,9.251126 0.4619,0.75761 0.46951,1.50104 0.0178,1.74277 -0.45936,0.24584 -0.54955,0.23616 -1.18569,-0.12725 z"
     id="path1392"
     transform="scale(3.1249959)" />
  <path
     id="path1505"
     style="fill:#000000;stroke:#000000;stroke-width:0.178025"
     d="M 128 84.472656 C 127.05307 84.472656 127.02148 84.710315 127.02148 91.683594 C 127.02148 97.20489 127.06044 98.157703 127.29883 98.498047 C 127.65457 99.005939 128.53442 99.03559 128.79492 98.548828 C 128.91231 98.32958 128.97852 95.853873 128.97852 91.734375 C 128.97852 84.705252 128.94783 84.472656 128 84.472656 z "
     transform="scale(3.1249959)" />
  <path
     style="fill:#000000;stroke:#000000;stroke-width:0.178025"
     d="m 150.49808,107.01656 c -0.53173,-0.26368 -0.64352,-1.04201 -0.23845,-1.66022 0.58173,-0.88783 7.16152,-8.710481 7.72627,-9.185683 0.70936,-0.596888 1.51593,-0.641452 1.80582,-0.09978 0.41565,0.776638 -0.0809,1.583029 -3.50959,5.699143 -1.82203,2.18734 -3.55562,4.23379 -3.85242,4.54765 -0.69296,0.73279 -1.36957,0.9776 -1.93163,0.69889 z"
     id="path1658"
     transform="scale(3.1249959)" />
  <path
     style="fill:#000000;stroke:#000000;stroke-width:0.178025"
     d="m 162.67591,128.26362 c -0.21738,-0.0875 -0.44981,-0.37651 -0.51653,-0.64231 -0.0977,-0.38926 -0.0278,-0.56368 0.35918,-0.89656 0.57235,-0.49232 0.073,-0.37467 6.31412,-1.4876 5.57504,-0.99415 6.79692,-1.09585 7.33333,-0.61041 0.59785,0.54105 0.37255,1.12506 -0.6331,1.64111 -0.47529,0.2439 -11.06904,2.18047 -11.8493,2.16609 -0.33686,-0.006 -0.79032,-0.0829 -1.0077,-0.17032 z"
     id="path1771"
     transform="scale(3.1249959)" />
  <path
     style="fill:#000000;stroke:#000000;stroke-width:0.178025"
     d="m 164.05028,155.76415 c -5.04843,-2.80994 -6.23088,-3.62916 -6.23088,-4.31686 0,-0.49995 0.5194,-1.1053 0.94472,-1.10105 0.61238,0.006 1.50495,0.47431 6.24294,3.27455 5.51506,3.2595 5.15759,3.01707 5.55937,3.77029 l 0.33782,0.63332 -0.42028,0.34256 c -0.23115,0.18841 -0.59165,0.33755 -0.80111,0.33143 -0.20946,-0.006 -2.74412,-1.32653 -5.63258,-2.93424 z"
     id="path1884"
     transform="scale(3.1249959)" />
  <path
     style="fill:#000000;stroke:#000000;stroke-width:0.178025"
     d="m 123.75176,163.93642 c -0.0623,-0.45428 -0.11321,-1.17222 -0.11321,-1.59542 0,-1.34899 -0.69927,-6.28689 -1.34621,-9.50631 -0.41733,-2.07675 -1.06314,-4.43607 -1.93703,-7.07651 -0.907,-2.74045 -1.23849,-3.96106 -1.07573,-3.96106 0.48116,0 0.81933,0.23606 1.09113,0.76166 0.15372,0.29727 0.64222,0.92827 1.08555,1.40223 1.44852,1.54859 2.97835,1.54154 4.54081,-0.0209 0.46526,-0.46527 0.84593,-1.00779 0.84593,-1.20562 0,-0.99208 1.17619,-0.88877 1.74399,0.15317 0.85362,1.56643 1.7083,2.11393 3.3,2.11393 1.20283,0 1.65817,-0.33274 2.718,-1.98619 0.51538,-0.80406 0.89587,-1.21827 1.11906,-1.21827 0.72316,0 0.57921,1.02883 -0.42345,3.02643 -1.73844,3.46352 -3.22384,10.75616 -3.58078,17.58 l -0.12339,2.35883 -0.55195,1.8e-4 -0.55196,1.8e-4 0.11102,-2.53704 c 0.19634,-4.48688 0.94311,-9.14202 2.20537,-13.74761 0.34156,-1.24627 0.62102,-2.29676 0.62102,-2.33443 0,-0.0377 -0.4687,-0.0195 -1.04156,0.0404 -1.189,0.12428 -2.00881,-0.0913 -3.24885,-0.8543 -1.05881,-0.65149 -2.00136,-0.67293 -2.82634,-0.0643 -1.01848,0.75141 -2.01893,1.04276 -3.20985,0.93477 -0.82543,-0.0748 -1.06701,-0.0423 -1.06701,0.14387 0,0.13234 0.43712,2.22767 0.97137,4.65628 1.0902,4.95578 1.61996,8.3634 1.80045,11.58118 l 0.12233,2.18081 h -0.53275 c -0.49883,0 -0.53996,-0.0526 -0.64596,-0.82596 z"
     id="path1997"
     transform="scale(3.1249959)"
     inkscape:export-filename="C:\xampp\htdocs\part4\index\assets\img\path1997.png"
     inkscape:export-xdpi="96"
     inkscape:export-ydpi="96" />
  <g
     inkscape:groupmode="layer"
     id="layer1"
     inkscape:label="on"
     style="display:none" />
  <g
     inkscape:groupmode="layer"
     id="layer2"
     inkscape:label="off"
     style="display:none" />
</svg>
