<?xml version="1.0" encoding="UTF-8" standalone="no"?>
<!DOCTYPE svg PUBLIC "-//W3C//DTD SVG 20010904//EN"
              "http://www.w3.org/TR/2001/REC-SVG-20010904/DTD/svg10.dtd">

<svg xmlns="http://www.w3.org/2000/svg"
     width="2.66667in" height="2.66667in"
     viewBox="0 0 800 800">
  <path id="Selection"
        fill="none" stroke="black" stroke-width="1"
        d="M 396.00,0.00
           C 396.00,0.00 404.00,0.00 404.00,0.00
             404.00,0.00 404.00,276.00 404.00,276.00
             410.24,276.31 412.76,277.19 417.72,281.07
             423.85,285.87 427.63,282.96 429.21,287.22
             431.04,292.20 425.35,292.93 422.00,293.00
             422.00,293.00 378.00,293.00 378.00,293.00
             374.70,292.93 368.91,292.17 370.66,287.22
             371.71,284.23 375.29,284.39 377.72,283.01
             380.02,281.69 381.06,279.80 385.00,277.92
             391.77,274.68 395.82,277.49 396.00,268.00
             396.00,268.00 396.00,179.00 396.00,179.00
             396.00,179.00 396.00,0.00 396.00,0.00 Z
           M 366.31,298.02
           C 371.18,296.17 380.50,297.00 386.00,297.00
             386.00,297.00 427.00,297.00 427.00,297.00
             430.25,297.05 437.22,297.56 435.34,302.79
             434.01,306.52 428.16,305.99 425.00,306.00
             425.00,306.00 373.00,306.00 373.00,306.00
             367.94,305.93 360.71,304.13 366.31,298.02 Z
           M 366.31,311.02
           C 371.18,309.17 380.50,310.00 386.00,310.00
             386.00,310.00 427.00,310.00 427.00,310.00
             430.35,310.02 437.26,310.33 435.34,315.78
             434.03,319.52 428.16,318.99 425.00,319.00
             425.00,319.00 372.00,319.00 372.00,319.00
             366.72,318.90 361.23,316.59 366.31,311.02 Z
           M 368.00,323.53
           C 368.00,323.53 424.00,323.00 424.00,323.00
             427.07,323.00 430.02,322.90 433.00,323.80
             447.29,328.11 446.02,344.11 448.40,356.00
             450.61,367.07 453.90,378.36 457.69,389.00
             466.30,413.16 481.96,431.29 482.00,458.00
             482.00,458.00 482.00,463.00 482.00,463.00
             481.94,499.17 455.03,532.06 420.00,540.35
             380.98,549.58 341.23,531.14 324.73,494.00
             321.17,485.99 318.11,474.78 318.00,466.00
             317.86,453.33 318.10,446.33 322.03,434.00
             322.03,434.00 334.22,408.00 334.22,408.00
             334.22,408.00 342.81,387.00 342.81,387.00
             347.01,375.95 350.47,361.68 352.58,350.00
             354.82,337.56 353.47,328.06 368.00,323.53 Z
           M 379.00,332.00
           C 374.23,332.00 368.95,331.28 365.43,335.23
             362.32,338.70 361.59,349.04 360.60,354.00
             357.80,368.04 354.92,379.55 349.81,393.00
             349.81,393.00 341.05,414.00 341.05,414.00
             335.62,425.17 331.65,430.23 328.47,443.00
             326.49,450.98 326.99,456.91 327.00,465.00
             327.01,474.25 328.49,479.42 331.81,488.00
             343.14,517.21 371.18,534.36 402.00,534.00
             431.59,533.65 458.22,514.52 468.58,487.00
             471.09,480.32 472.91,473.17 473.00,466.00
             473.12,455.59 473.46,450.25 470.57,440.00
             466.88,426.90 464.57,425.90 459.26,415.00
             459.26,415.00 449.95,393.00 449.95,393.00
             445.36,380.66 441.76,367.96 439.42,355.00
             438.54,350.09 437.65,338.68 434.57,335.23
             431.06,331.28 425.76,332.00 421.00,332.00
             421.00,332.00 437.88,408.00 437.88,408.00
             437.88,408.00 442.63,429.00 442.63,429.00
             443.20,431.30 444.88,436.74 444.23,438.85
             443.21,442.17 438.77,441.70 434.00,443.87
             429.12,446.08 417.62,445.80 412.00,445.42
             405.08,444.95 397.50,446.60 391.00,444.00
             389.93,444.52 389.87,444.87 388.00,445.20
             388.00,445.20 369.00,445.20 369.00,445.20
             369.00,445.20 364.00,442.91 364.00,442.91
             360.62,441.59 356.84,442.31 355.77,438.85
             355.11,436.72 356.81,431.35 357.35,429.00
             357.35,429.00 362.27,407.00 362.27,407.00
             362.27,407.00 379.00,332.00 379.00,332.00 Z
           M 385.00,332.00
           C 381.54,337.11 378.60,355.86 376.87,363.00
             376.87,363.00 364.50,418.00 364.50,418.00
             364.50,418.00 360.00,437.00 360.00,437.00
             360.00,437.00 368.00,437.00 368.00,437.00
             368.00,437.00 368.00,441.00 368.00,441.00
             368.00,441.00 373.28,440.04 373.28,440.04
             373.28,440.04 376.93,440.04 376.93,440.04
             376.93,440.04 382.17,440.04 382.17,440.04
             382.17,440.04 388.57,440.04 388.57,440.04
             388.57,440.04 397.09,440.04 397.09,440.04
             397.09,440.04 424.25,440.04 424.25,440.04
             424.25,440.04 432.00,441.00 432.00,441.00
             432.00,441.00 432.00,437.00 432.00,437.00
             432.00,437.00 440.00,437.00 440.00,437.00
             440.00,437.00 422.87,362.00 422.87,362.00
             421.23,355.26 418.15,336.77 415.00,332.00
             415.00,332.00 418.72,366.00 418.72,366.00
             418.72,366.00 424.15,410.00 424.15,410.00
             424.15,410.00 427.00,433.00 427.00,433.00
             427.00,433.00 373.00,433.00 373.00,433.00
             373.00,433.00 381.28,366.00 381.28,366.00
             381.28,366.00 385.00,332.00 385.00,332.00 Z
           M 410.00,332.00
           C 410.00,332.00 390.00,332.00 390.00,332.00
             390.00,332.00 386.15,364.00 386.15,364.00
             386.15,364.00 378.00,429.00 378.00,429.00
             378.00,429.00 422.00,429.00 422.00,429.00
             422.00,429.00 413.85,364.00 413.85,364.00
             413.85,364.00 410.00,332.00 410.00,332.00 Z
           M 267.31,382.06
           C 271.91,380.82 274.08,382.92 278.00,385.15
             278.00,385.15 297.00,396.00 297.00,396.00
             299.53,397.45 304.76,400.11 306.39,402.33
             308.99,405.88 306.65,410.03 301.98,409.00
             299.04,408.36 291.83,403.79 289.00,402.06
             289.00,402.06 271.00,391.72 271.00,391.72
             266.86,389.26 263.02,386.62 267.31,382.06 Z
           M 529.00,381.70
           C 536.18,381.27 535.56,386.58 530.94,390.21
             530.94,390.21 503.00,406.69 503.00,406.69
             500.24,408.19 494.39,411.71 492.66,406.69
             491.23,402.73 496.20,399.93 499.00,398.28
             499.00,398.28 529.00,381.70 529.00,381.70 Z
           M 286.00,476.44
           C 296.62,475.22 295.48,481.62 291.85,483.83
             290.10,484.90 285.23,485.57 283.00,486.00
             283.00,486.00 262.00,489.59 262.00,489.59
             259.34,490.03 253.46,491.27 251.06,490.67
             246.60,489.57 245.96,484.52 252.02,482.56
             252.02,482.56 286.00,476.44 286.00,476.44 Z
           M 507.32,477.02
           C 511.98,475.29 517.23,476.89 522.00,477.80
             522.00,477.80 547.00,482.30 547.00,482.30
             553.14,483.86 553.61,488.00 550.68,489.99
             548.18,491.66 542.88,490.40 540.00,489.99
             540.00,489.99 510.02,484.61 510.02,484.61
             505.78,483.21 504.19,480.55 507.32,477.02 Z
           M 326.04,543.04
           C 333.25,541.12 333.42,546.12 330.06,551.00
             330.06,551.00 313.58,571.00 313.58,571.00
             311.81,573.09 307.14,578.91 304.92,579.92
             301.12,581.64 296.74,577.90 301.57,571.00
             304.84,566.32 322.08,545.84 326.04,543.04 Z
           M 469.32,543.04
           C 474.75,541.44 476.70,545.17 479.92,549.00
             479.92,549.00 496.71,569.00 496.71,569.00
             498.73,571.47 503.19,577.41 498.69,579.92
             494.91,582.02 490.95,576.41 488.92,574.00
             488.92,574.00 471.43,553.00 471.43,553.00
             468.63,549.50 465.84,546.94 469.32,543.04 Z
           M 397.60,569.03
           C 404.40,566.39 403.99,572.24 404.00,577.00
             404.00,577.00 404.00,606.00 404.00,606.00
             403.99,608.97 404.49,615.37 400.00,615.37
             398.72,615.37 397.72,614.71 397.02,613.68
             395.89,612.01 396.01,608.97 396.00,607.00
             396.00,607.00 396.00,581.00 396.00,581.00
             396.00,577.01 395.20,572.37 397.60,569.03 Z" />
</svg>
